%TF.GenerationSoftware,KiCad,Pcbnew,8.0.9-1.fc41*%
%TF.CreationDate,2025-05-30T14:30:08-05:00*%
%TF.ProjectId,transistor-amp,7472616e-7369-4737-946f-722d616d702e,rev?*%
%TF.SameCoordinates,Original*%
%TF.FileFunction,Soldermask,Bot*%
%TF.FilePolarity,Negative*%
%FSLAX46Y46*%
G04 Gerber Fmt 4.6, Leading zero omitted, Abs format (unit mm)*
G04 Created by KiCad (PCBNEW 8.0.9-1.fc41) date 2025-05-30 14:30:08*
%MOMM*%
%LPD*%
G01*
G04 APERTURE LIST*
G04 Aperture macros list*
%AMRoundRect*
0 Rectangle with rounded corners*
0 $1 Rounding radius*
0 $2 $3 $4 $5 $6 $7 $8 $9 X,Y pos of 4 corners*
0 Add a 4 corners polygon primitive as box body*
4,1,4,$2,$3,$4,$5,$6,$7,$8,$9,$2,$3,0*
0 Add four circle primitives for the rounded corners*
1,1,$1+$1,$2,$3*
1,1,$1+$1,$4,$5*
1,1,$1+$1,$6,$7*
1,1,$1+$1,$8,$9*
0 Add four rect primitives between the rounded corners*
20,1,$1+$1,$2,$3,$4,$5,0*
20,1,$1+$1,$4,$5,$6,$7,0*
20,1,$1+$1,$6,$7,$8,$9,0*
20,1,$1+$1,$8,$9,$2,$3,0*%
G04 Aperture macros list end*
%ADD10RoundRect,0.050800X-0.525000X-0.750000X0.525000X-0.750000X0.525000X0.750000X-0.525000X0.750000X0*%
%ADD11O,1.151600X1.601600*%
%ADD12RoundRect,0.050800X0.800000X-0.800000X0.800000X0.800000X-0.800000X0.800000X-0.800000X-0.800000X0*%
%ADD13C,1.701600*%
%ADD14O,1.701600X1.701600*%
%ADD15RoundRect,0.050800X-0.800000X-0.800000X0.800000X-0.800000X0.800000X0.800000X-0.800000X0.800000X0*%
%ADD16RoundRect,0.050800X0.800000X0.800000X-0.800000X0.800000X-0.800000X-0.800000X0.800000X-0.800000X0*%
%ADD17RoundRect,0.050800X1.500000X-1.500000X1.500000X1.500000X-1.500000X1.500000X-1.500000X-1.500000X0*%
%ADD18C,3.101600*%
%ADD19C,1.541600*%
%ADD20RoundRect,0.050800X-0.635000X-2.540000X0.635000X-2.540000X0.635000X2.540000X-0.635000X2.540000X0*%
%ADD21C,17.901600*%
%ADD22C,0.701600*%
G04 APERTURE END LIST*
D10*
%TO.C,Q8*%
X96460000Y-93000000D03*
D11*
X97730000Y-93000000D03*
X99000000Y-93000000D03*
%TD*%
D12*
%TO.C,C1*%
X108500000Y-71152651D03*
D13*
X108500000Y-67652651D03*
%TD*%
D10*
%TO.C,Q9*%
X111460000Y-76500000D03*
D11*
X112730000Y-76500000D03*
X114000000Y-76500000D03*
%TD*%
D13*
%TO.C,R3*%
X85690000Y-87000000D03*
D14*
X93310000Y-87000000D03*
%TD*%
D10*
%TO.C,Q1*%
X86960000Y-82500000D03*
D11*
X88230000Y-82500000D03*
X89500000Y-82500000D03*
%TD*%
D15*
%TO.C,D2*%
X103500000Y-81000000D03*
D14*
X113660000Y-81000000D03*
%TD*%
D13*
%TO.C,R5*%
X100690000Y-75500000D03*
D14*
X108310000Y-75500000D03*
%TD*%
D16*
%TO.C,D1*%
X113660000Y-83500000D03*
D14*
X103500000Y-83500000D03*
%TD*%
D13*
%TO.C,R7*%
X115000000Y-92000000D03*
D14*
X107380000Y-92000000D03*
%TD*%
D13*
%TO.C,R8*%
X107380000Y-87900000D03*
D14*
X115000000Y-87900000D03*
%TD*%
D10*
%TO.C,Q6*%
X98000000Y-82500000D03*
D11*
X99270000Y-82500000D03*
X100540000Y-82500000D03*
%TD*%
D10*
%TO.C,Q5*%
X95300000Y-76450000D03*
D11*
X96570000Y-76450000D03*
X97840000Y-76450000D03*
%TD*%
D17*
%TO.C,J1*%
X120500000Y-82320000D03*
D18*
X120500000Y-77240000D03*
X120500000Y-72160000D03*
X120500000Y-67080000D03*
X120500000Y-62000000D03*
X120500000Y-56920000D03*
%TD*%
D13*
%TO.C,R4*%
X95500000Y-87000000D03*
D14*
X103120000Y-87000000D03*
%TD*%
D13*
%TO.C,R2*%
X85690000Y-90500000D03*
D14*
X93310000Y-90500000D03*
%TD*%
D10*
%TO.C,Q2*%
X84260000Y-76450000D03*
D11*
X85530000Y-76450000D03*
X86800000Y-76450000D03*
%TD*%
D10*
%TO.C,Q3*%
X89800000Y-76450000D03*
D11*
X91070000Y-76450000D03*
X92340000Y-76450000D03*
%TD*%
D13*
%TO.C,R1*%
X83000000Y-87310000D03*
D14*
X83000000Y-79690000D03*
%TD*%
D10*
%TO.C,Q4*%
X92460000Y-82500000D03*
D11*
X93730000Y-82500000D03*
X95000000Y-82500000D03*
%TD*%
D13*
%TO.C,R6*%
X107380000Y-96000000D03*
D14*
X115000000Y-96000000D03*
%TD*%
D10*
%TO.C,Q7*%
X101960000Y-93000000D03*
D11*
X103230000Y-93000000D03*
X104500000Y-93000000D03*
%TD*%
D19*
%TO.C,RV1*%
X108500000Y-62580000D03*
X111040000Y-60040000D03*
X108500000Y-57500000D03*
%TD*%
D20*
%TO.C,BT2*%
X81030000Y-61500000D03*
X103000000Y-61500000D03*
D21*
X92015000Y-61500000D03*
%TD*%
D22*
X81015000Y-65000000D03*
X103015000Y-65000000D03*
M02*
