%TF.GenerationSoftware,KiCad,Pcbnew,8.0.9-1.fc41*%
%TF.CreationDate,2025-05-30T14:30:08-05:00*%
%TF.ProjectId,transistor-amp,7472616e-7369-4737-946f-722d616d702e,rev?*%
%TF.SameCoordinates,Original*%
%TF.FileFunction,Legend,Top*%
%TF.FilePolarity,Positive*%
%FSLAX46Y46*%
G04 Gerber Fmt 4.6, Leading zero omitted, Abs format (unit mm)*
G04 Created by KiCad (PCBNEW 8.0.9-1.fc41) date 2025-05-30 14:30:08*
%MOMM*%
%LPD*%
G01*
G04 APERTURE LIST*
%ADD10C,0.100000*%
%ADD11C,0.300000*%
%ADD12C,0.150000*%
%ADD13C,0.120000*%
G04 APERTURE END LIST*
D10*
X123372419Y-63338972D02*
X124372419Y-63005639D01*
X124372419Y-63005639D02*
X123372419Y-62672306D01*
X124324800Y-61910401D02*
X124372419Y-62005639D01*
X124372419Y-62005639D02*
X124372419Y-62196115D01*
X124372419Y-62196115D02*
X124324800Y-62291353D01*
X124324800Y-62291353D02*
X124277180Y-62338972D01*
X124277180Y-62338972D02*
X124181942Y-62386591D01*
X124181942Y-62386591D02*
X123896228Y-62386591D01*
X123896228Y-62386591D02*
X123800990Y-62338972D01*
X123800990Y-62338972D02*
X123753371Y-62291353D01*
X123753371Y-62291353D02*
X123705752Y-62196115D01*
X123705752Y-62196115D02*
X123705752Y-62005639D01*
X123705752Y-62005639D02*
X123753371Y-61910401D01*
X124324800Y-61053258D02*
X124372419Y-61148496D01*
X124372419Y-61148496D02*
X124372419Y-61338972D01*
X124372419Y-61338972D02*
X124324800Y-61434210D01*
X124324800Y-61434210D02*
X124277180Y-61481829D01*
X124277180Y-61481829D02*
X124181942Y-61529448D01*
X124181942Y-61529448D02*
X123896228Y-61529448D01*
X123896228Y-61529448D02*
X123800990Y-61481829D01*
X123800990Y-61481829D02*
X123753371Y-61434210D01*
X123753371Y-61434210D02*
X123705752Y-61338972D01*
X123705752Y-61338972D02*
X123705752Y-61148496D01*
X123705752Y-61148496D02*
X123753371Y-61053258D01*
X123230038Y-68172306D02*
X123182419Y-68267544D01*
X123182419Y-68267544D02*
X123182419Y-68410401D01*
X123182419Y-68410401D02*
X123230038Y-68553258D01*
X123230038Y-68553258D02*
X123325276Y-68648496D01*
X123325276Y-68648496D02*
X123420514Y-68696115D01*
X123420514Y-68696115D02*
X123610990Y-68743734D01*
X123610990Y-68743734D02*
X123753847Y-68743734D01*
X123753847Y-68743734D02*
X123944323Y-68696115D01*
X123944323Y-68696115D02*
X124039561Y-68648496D01*
X124039561Y-68648496D02*
X124134800Y-68553258D01*
X124134800Y-68553258D02*
X124182419Y-68410401D01*
X124182419Y-68410401D02*
X124182419Y-68315163D01*
X124182419Y-68315163D02*
X124134800Y-68172306D01*
X124134800Y-68172306D02*
X124087180Y-68124687D01*
X124087180Y-68124687D02*
X123753847Y-68124687D01*
X123753847Y-68124687D02*
X123753847Y-68315163D01*
X124182419Y-67696115D02*
X123182419Y-67696115D01*
X123182419Y-67696115D02*
X124182419Y-67124687D01*
X124182419Y-67124687D02*
X123182419Y-67124687D01*
X124182419Y-66648496D02*
X123182419Y-66648496D01*
X123182419Y-66648496D02*
X123182419Y-66410401D01*
X123182419Y-66410401D02*
X123230038Y-66267544D01*
X123230038Y-66267544D02*
X123325276Y-66172306D01*
X123325276Y-66172306D02*
X123420514Y-66124687D01*
X123420514Y-66124687D02*
X123610990Y-66077068D01*
X123610990Y-66077068D02*
X123753847Y-66077068D01*
X123753847Y-66077068D02*
X123944323Y-66124687D01*
X123944323Y-66124687D02*
X124039561Y-66172306D01*
X124039561Y-66172306D02*
X124134800Y-66267544D01*
X124134800Y-66267544D02*
X124182419Y-66410401D01*
X124182419Y-66410401D02*
X124182419Y-66648496D01*
D11*
X82428571Y-93885912D02*
X82785714Y-95385912D01*
X82785714Y-95385912D02*
X83071428Y-94314484D01*
X83071428Y-94314484D02*
X83357143Y-95385912D01*
X83357143Y-95385912D02*
X83714286Y-93885912D01*
X84285714Y-95385912D02*
X84285714Y-93885912D01*
X84928572Y-95385912D02*
X84928572Y-94600198D01*
X84928572Y-94600198D02*
X84857143Y-94457341D01*
X84857143Y-94457341D02*
X84714286Y-94385912D01*
X84714286Y-94385912D02*
X84500000Y-94385912D01*
X84500000Y-94385912D02*
X84357143Y-94457341D01*
X84357143Y-94457341D02*
X84285714Y-94528769D01*
X86285715Y-95385912D02*
X86285715Y-94600198D01*
X86285715Y-94600198D02*
X86214286Y-94457341D01*
X86214286Y-94457341D02*
X86071429Y-94385912D01*
X86071429Y-94385912D02*
X85785715Y-94385912D01*
X85785715Y-94385912D02*
X85642857Y-94457341D01*
X86285715Y-95314484D02*
X86142857Y-95385912D01*
X86142857Y-95385912D02*
X85785715Y-95385912D01*
X85785715Y-95385912D02*
X85642857Y-95314484D01*
X85642857Y-95314484D02*
X85571429Y-95171626D01*
X85571429Y-95171626D02*
X85571429Y-95028769D01*
X85571429Y-95028769D02*
X85642857Y-94885912D01*
X85642857Y-94885912D02*
X85785715Y-94814484D01*
X85785715Y-94814484D02*
X86142857Y-94814484D01*
X86142857Y-94814484D02*
X86285715Y-94743055D01*
X86785715Y-94385912D02*
X87357143Y-94385912D01*
X87000000Y-93885912D02*
X87000000Y-95171626D01*
X87000000Y-95171626D02*
X87071429Y-95314484D01*
X87071429Y-95314484D02*
X87214286Y-95385912D01*
X87214286Y-95385912D02*
X87357143Y-95385912D01*
X87714286Y-93885912D02*
X88071429Y-95385912D01*
X88071429Y-95385912D02*
X88357143Y-94314484D01*
X88357143Y-94314484D02*
X88642858Y-95385912D01*
X88642858Y-95385912D02*
X89000001Y-93885912D01*
X90214287Y-95385912D02*
X90214287Y-94600198D01*
X90214287Y-94600198D02*
X90142858Y-94457341D01*
X90142858Y-94457341D02*
X90000001Y-94385912D01*
X90000001Y-94385912D02*
X89714287Y-94385912D01*
X89714287Y-94385912D02*
X89571429Y-94457341D01*
X90214287Y-95314484D02*
X90071429Y-95385912D01*
X90071429Y-95385912D02*
X89714287Y-95385912D01*
X89714287Y-95385912D02*
X89571429Y-95314484D01*
X89571429Y-95314484D02*
X89500001Y-95171626D01*
X89500001Y-95171626D02*
X89500001Y-95028769D01*
X89500001Y-95028769D02*
X89571429Y-94885912D01*
X89571429Y-94885912D02*
X89714287Y-94814484D01*
X89714287Y-94814484D02*
X90071429Y-94814484D01*
X90071429Y-94814484D02*
X90214287Y-94743055D01*
X90928572Y-95385912D02*
X90928572Y-94385912D01*
X90928572Y-94671626D02*
X91000001Y-94528769D01*
X91000001Y-94528769D02*
X91071430Y-94457341D01*
X91071430Y-94457341D02*
X91214287Y-94385912D01*
X91214287Y-94385912D02*
X91357144Y-94385912D01*
X92428572Y-95314484D02*
X92285715Y-95385912D01*
X92285715Y-95385912D02*
X92000001Y-95385912D01*
X92000001Y-95385912D02*
X91857143Y-95314484D01*
X91857143Y-95314484D02*
X91785715Y-95171626D01*
X91785715Y-95171626D02*
X91785715Y-94600198D01*
X91785715Y-94600198D02*
X91857143Y-94457341D01*
X91857143Y-94457341D02*
X92000001Y-94385912D01*
X92000001Y-94385912D02*
X92285715Y-94385912D01*
X92285715Y-94385912D02*
X92428572Y-94457341D01*
X92428572Y-94457341D02*
X92500001Y-94600198D01*
X92500001Y-94600198D02*
X92500001Y-94743055D01*
X92500001Y-94743055D02*
X91785715Y-94885912D01*
X84964286Y-97800828D02*
X84250000Y-97800828D01*
X84250000Y-97800828D02*
X84250000Y-96300828D01*
X85464286Y-97800828D02*
X85464286Y-96300828D01*
X85464286Y-96300828D02*
X85964286Y-97372257D01*
X85964286Y-97372257D02*
X86464286Y-96300828D01*
X86464286Y-96300828D02*
X86464286Y-97800828D01*
X87035715Y-96300828D02*
X87964287Y-96300828D01*
X87964287Y-96300828D02*
X87464287Y-96872257D01*
X87464287Y-96872257D02*
X87678572Y-96872257D01*
X87678572Y-96872257D02*
X87821430Y-96943685D01*
X87821430Y-96943685D02*
X87892858Y-97015114D01*
X87892858Y-97015114D02*
X87964287Y-97157971D01*
X87964287Y-97157971D02*
X87964287Y-97515114D01*
X87964287Y-97515114D02*
X87892858Y-97657971D01*
X87892858Y-97657971D02*
X87821430Y-97729400D01*
X87821430Y-97729400D02*
X87678572Y-97800828D01*
X87678572Y-97800828D02*
X87250001Y-97800828D01*
X87250001Y-97800828D02*
X87107144Y-97729400D01*
X87107144Y-97729400D02*
X87035715Y-97657971D01*
X88821429Y-96943685D02*
X88678572Y-96872257D01*
X88678572Y-96872257D02*
X88607143Y-96800828D01*
X88607143Y-96800828D02*
X88535715Y-96657971D01*
X88535715Y-96657971D02*
X88535715Y-96586542D01*
X88535715Y-96586542D02*
X88607143Y-96443685D01*
X88607143Y-96443685D02*
X88678572Y-96372257D01*
X88678572Y-96372257D02*
X88821429Y-96300828D01*
X88821429Y-96300828D02*
X89107143Y-96300828D01*
X89107143Y-96300828D02*
X89250001Y-96372257D01*
X89250001Y-96372257D02*
X89321429Y-96443685D01*
X89321429Y-96443685D02*
X89392858Y-96586542D01*
X89392858Y-96586542D02*
X89392858Y-96657971D01*
X89392858Y-96657971D02*
X89321429Y-96800828D01*
X89321429Y-96800828D02*
X89250001Y-96872257D01*
X89250001Y-96872257D02*
X89107143Y-96943685D01*
X89107143Y-96943685D02*
X88821429Y-96943685D01*
X88821429Y-96943685D02*
X88678572Y-97015114D01*
X88678572Y-97015114D02*
X88607143Y-97086542D01*
X88607143Y-97086542D02*
X88535715Y-97229400D01*
X88535715Y-97229400D02*
X88535715Y-97515114D01*
X88535715Y-97515114D02*
X88607143Y-97657971D01*
X88607143Y-97657971D02*
X88678572Y-97729400D01*
X88678572Y-97729400D02*
X88821429Y-97800828D01*
X88821429Y-97800828D02*
X89107143Y-97800828D01*
X89107143Y-97800828D02*
X89250001Y-97729400D01*
X89250001Y-97729400D02*
X89321429Y-97657971D01*
X89321429Y-97657971D02*
X89392858Y-97515114D01*
X89392858Y-97515114D02*
X89392858Y-97229400D01*
X89392858Y-97229400D02*
X89321429Y-97086542D01*
X89321429Y-97086542D02*
X89250001Y-97015114D01*
X89250001Y-97015114D02*
X89107143Y-96943685D01*
X90678572Y-96300828D02*
X90392857Y-96300828D01*
X90392857Y-96300828D02*
X90250000Y-96372257D01*
X90250000Y-96372257D02*
X90178572Y-96443685D01*
X90178572Y-96443685D02*
X90035714Y-96657971D01*
X90035714Y-96657971D02*
X89964286Y-96943685D01*
X89964286Y-96943685D02*
X89964286Y-97515114D01*
X89964286Y-97515114D02*
X90035714Y-97657971D01*
X90035714Y-97657971D02*
X90107143Y-97729400D01*
X90107143Y-97729400D02*
X90250000Y-97800828D01*
X90250000Y-97800828D02*
X90535714Y-97800828D01*
X90535714Y-97800828D02*
X90678572Y-97729400D01*
X90678572Y-97729400D02*
X90750000Y-97657971D01*
X90750000Y-97657971D02*
X90821429Y-97515114D01*
X90821429Y-97515114D02*
X90821429Y-97157971D01*
X90821429Y-97157971D02*
X90750000Y-97015114D01*
X90750000Y-97015114D02*
X90678572Y-96943685D01*
X90678572Y-96943685D02*
X90535714Y-96872257D01*
X90535714Y-96872257D02*
X90250000Y-96872257D01*
X90250000Y-96872257D02*
X90107143Y-96943685D01*
X90107143Y-96943685D02*
X90035714Y-97015114D01*
X90035714Y-97015114D02*
X89964286Y-97157971D01*
D10*
X123420038Y-78172306D02*
X123372419Y-78267544D01*
X123372419Y-78267544D02*
X123372419Y-78410401D01*
X123372419Y-78410401D02*
X123420038Y-78553258D01*
X123420038Y-78553258D02*
X123515276Y-78648496D01*
X123515276Y-78648496D02*
X123610514Y-78696115D01*
X123610514Y-78696115D02*
X123800990Y-78743734D01*
X123800990Y-78743734D02*
X123943847Y-78743734D01*
X123943847Y-78743734D02*
X124134323Y-78696115D01*
X124134323Y-78696115D02*
X124229561Y-78648496D01*
X124229561Y-78648496D02*
X124324800Y-78553258D01*
X124324800Y-78553258D02*
X124372419Y-78410401D01*
X124372419Y-78410401D02*
X124372419Y-78315163D01*
X124372419Y-78315163D02*
X124324800Y-78172306D01*
X124324800Y-78172306D02*
X124277180Y-78124687D01*
X124277180Y-78124687D02*
X123943847Y-78124687D01*
X123943847Y-78124687D02*
X123943847Y-78315163D01*
X124372419Y-77696115D02*
X123372419Y-77696115D01*
X123372419Y-77696115D02*
X124372419Y-77124687D01*
X124372419Y-77124687D02*
X123372419Y-77124687D01*
X124372419Y-76648496D02*
X123372419Y-76648496D01*
X123372419Y-76648496D02*
X123372419Y-76410401D01*
X123372419Y-76410401D02*
X123420038Y-76267544D01*
X123420038Y-76267544D02*
X123515276Y-76172306D01*
X123515276Y-76172306D02*
X123610514Y-76124687D01*
X123610514Y-76124687D02*
X123800990Y-76077068D01*
X123800990Y-76077068D02*
X123943847Y-76077068D01*
X123943847Y-76077068D02*
X124134323Y-76124687D01*
X124134323Y-76124687D02*
X124229561Y-76172306D01*
X124229561Y-76172306D02*
X124324800Y-76267544D01*
X124324800Y-76267544D02*
X124372419Y-76410401D01*
X124372419Y-76410401D02*
X124372419Y-76648496D01*
X123420038Y-57672306D02*
X123372419Y-57767544D01*
X123372419Y-57767544D02*
X123372419Y-57910401D01*
X123372419Y-57910401D02*
X123420038Y-58053258D01*
X123420038Y-58053258D02*
X123515276Y-58148496D01*
X123515276Y-58148496D02*
X123610514Y-58196115D01*
X123610514Y-58196115D02*
X123800990Y-58243734D01*
X123800990Y-58243734D02*
X123943847Y-58243734D01*
X123943847Y-58243734D02*
X124134323Y-58196115D01*
X124134323Y-58196115D02*
X124229561Y-58148496D01*
X124229561Y-58148496D02*
X124324800Y-58053258D01*
X124324800Y-58053258D02*
X124372419Y-57910401D01*
X124372419Y-57910401D02*
X124372419Y-57815163D01*
X124372419Y-57815163D02*
X124324800Y-57672306D01*
X124324800Y-57672306D02*
X124277180Y-57624687D01*
X124277180Y-57624687D02*
X123943847Y-57624687D01*
X123943847Y-57624687D02*
X123943847Y-57815163D01*
X124372419Y-57196115D02*
X123372419Y-57196115D01*
X123372419Y-57196115D02*
X124372419Y-56624687D01*
X124372419Y-56624687D02*
X123372419Y-56624687D01*
X124372419Y-56148496D02*
X123372419Y-56148496D01*
X123372419Y-56148496D02*
X123372419Y-55910401D01*
X123372419Y-55910401D02*
X123420038Y-55767544D01*
X123420038Y-55767544D02*
X123515276Y-55672306D01*
X123515276Y-55672306D02*
X123610514Y-55624687D01*
X123610514Y-55624687D02*
X123800990Y-55577068D01*
X123800990Y-55577068D02*
X123943847Y-55577068D01*
X123943847Y-55577068D02*
X124134323Y-55624687D01*
X124134323Y-55624687D02*
X124229561Y-55672306D01*
X124229561Y-55672306D02*
X124324800Y-55767544D01*
X124324800Y-55767544D02*
X124372419Y-55910401D01*
X124372419Y-55910401D02*
X124372419Y-56148496D01*
X124182419Y-83219925D02*
X124182419Y-83696115D01*
X124182419Y-83696115D02*
X123182419Y-83696115D01*
X124182419Y-82886591D02*
X123182419Y-82886591D01*
X124182419Y-82410401D02*
X123182419Y-82410401D01*
X123182419Y-82410401D02*
X124182419Y-81838973D01*
X124182419Y-81838973D02*
X123182419Y-81838973D01*
X123658609Y-81362782D02*
X123658609Y-81029449D01*
X124182419Y-80886592D02*
X124182419Y-81362782D01*
X124182419Y-81362782D02*
X123182419Y-81362782D01*
X123182419Y-81362782D02*
X123182419Y-80886592D01*
X105661027Y-53372419D02*
X105994360Y-54372419D01*
X105994360Y-54372419D02*
X106327693Y-53372419D01*
X106803884Y-54372419D02*
X106708646Y-54324800D01*
X106708646Y-54324800D02*
X106661027Y-54277180D01*
X106661027Y-54277180D02*
X106613408Y-54181942D01*
X106613408Y-54181942D02*
X106613408Y-53896228D01*
X106613408Y-53896228D02*
X106661027Y-53800990D01*
X106661027Y-53800990D02*
X106708646Y-53753371D01*
X106708646Y-53753371D02*
X106803884Y-53705752D01*
X106803884Y-53705752D02*
X106946741Y-53705752D01*
X106946741Y-53705752D02*
X107041979Y-53753371D01*
X107041979Y-53753371D02*
X107089598Y-53800990D01*
X107089598Y-53800990D02*
X107137217Y-53896228D01*
X107137217Y-53896228D02*
X107137217Y-54181942D01*
X107137217Y-54181942D02*
X107089598Y-54277180D01*
X107089598Y-54277180D02*
X107041979Y-54324800D01*
X107041979Y-54324800D02*
X106946741Y-54372419D01*
X106946741Y-54372419D02*
X106803884Y-54372419D01*
X107708646Y-54372419D02*
X107613408Y-54324800D01*
X107613408Y-54324800D02*
X107565789Y-54229561D01*
X107565789Y-54229561D02*
X107565789Y-53372419D01*
X108518170Y-53705752D02*
X108518170Y-54372419D01*
X108089599Y-53705752D02*
X108089599Y-54229561D01*
X108089599Y-54229561D02*
X108137218Y-54324800D01*
X108137218Y-54324800D02*
X108232456Y-54372419D01*
X108232456Y-54372419D02*
X108375313Y-54372419D01*
X108375313Y-54372419D02*
X108470551Y-54324800D01*
X108470551Y-54324800D02*
X108518170Y-54277180D01*
X108994361Y-54372419D02*
X108994361Y-53705752D01*
X108994361Y-53800990D02*
X109041980Y-53753371D01*
X109041980Y-53753371D02*
X109137218Y-53705752D01*
X109137218Y-53705752D02*
X109280075Y-53705752D01*
X109280075Y-53705752D02*
X109375313Y-53753371D01*
X109375313Y-53753371D02*
X109422932Y-53848609D01*
X109422932Y-53848609D02*
X109422932Y-54372419D01*
X109422932Y-53848609D02*
X109470551Y-53753371D01*
X109470551Y-53753371D02*
X109565789Y-53705752D01*
X109565789Y-53705752D02*
X109708646Y-53705752D01*
X109708646Y-53705752D02*
X109803885Y-53753371D01*
X109803885Y-53753371D02*
X109851504Y-53848609D01*
X109851504Y-53848609D02*
X109851504Y-54372419D01*
X110708646Y-54324800D02*
X110613408Y-54372419D01*
X110613408Y-54372419D02*
X110422932Y-54372419D01*
X110422932Y-54372419D02*
X110327694Y-54324800D01*
X110327694Y-54324800D02*
X110280075Y-54229561D01*
X110280075Y-54229561D02*
X110280075Y-53848609D01*
X110280075Y-53848609D02*
X110327694Y-53753371D01*
X110327694Y-53753371D02*
X110422932Y-53705752D01*
X110422932Y-53705752D02*
X110613408Y-53705752D01*
X110613408Y-53705752D02*
X110708646Y-53753371D01*
X110708646Y-53753371D02*
X110756265Y-53848609D01*
X110756265Y-53848609D02*
X110756265Y-53943847D01*
X110756265Y-53943847D02*
X110280075Y-54039085D01*
X123372419Y-73005639D02*
X123372419Y-72815163D01*
X123372419Y-72815163D02*
X123420038Y-72719925D01*
X123420038Y-72719925D02*
X123515276Y-72624687D01*
X123515276Y-72624687D02*
X123705752Y-72577068D01*
X123705752Y-72577068D02*
X124039085Y-72577068D01*
X124039085Y-72577068D02*
X124229561Y-72624687D01*
X124229561Y-72624687D02*
X124324800Y-72719925D01*
X124324800Y-72719925D02*
X124372419Y-72815163D01*
X124372419Y-72815163D02*
X124372419Y-73005639D01*
X124372419Y-73005639D02*
X124324800Y-73100877D01*
X124324800Y-73100877D02*
X124229561Y-73196115D01*
X124229561Y-73196115D02*
X124039085Y-73243734D01*
X124039085Y-73243734D02*
X123705752Y-73243734D01*
X123705752Y-73243734D02*
X123515276Y-73196115D01*
X123515276Y-73196115D02*
X123420038Y-73100877D01*
X123420038Y-73100877D02*
X123372419Y-73005639D01*
X123372419Y-72148496D02*
X124181942Y-72148496D01*
X124181942Y-72148496D02*
X124277180Y-72100877D01*
X124277180Y-72100877D02*
X124324800Y-72053258D01*
X124324800Y-72053258D02*
X124372419Y-71958020D01*
X124372419Y-71958020D02*
X124372419Y-71767544D01*
X124372419Y-71767544D02*
X124324800Y-71672306D01*
X124324800Y-71672306D02*
X124277180Y-71624687D01*
X124277180Y-71624687D02*
X124181942Y-71577068D01*
X124181942Y-71577068D02*
X123372419Y-71577068D01*
X123372419Y-71243734D02*
X123372419Y-70672306D01*
X124372419Y-70958020D02*
X123372419Y-70958020D01*
D12*
X97554761Y-89990057D02*
X97459523Y-89942438D01*
X97459523Y-89942438D02*
X97364285Y-89847200D01*
X97364285Y-89847200D02*
X97221428Y-89704342D01*
X97221428Y-89704342D02*
X97126190Y-89656723D01*
X97126190Y-89656723D02*
X97030952Y-89656723D01*
X97078571Y-89894819D02*
X96983333Y-89847200D01*
X96983333Y-89847200D02*
X96888095Y-89751961D01*
X96888095Y-89751961D02*
X96840476Y-89561485D01*
X96840476Y-89561485D02*
X96840476Y-89228152D01*
X96840476Y-89228152D02*
X96888095Y-89037676D01*
X96888095Y-89037676D02*
X96983333Y-88942438D01*
X96983333Y-88942438D02*
X97078571Y-88894819D01*
X97078571Y-88894819D02*
X97269047Y-88894819D01*
X97269047Y-88894819D02*
X97364285Y-88942438D01*
X97364285Y-88942438D02*
X97459523Y-89037676D01*
X97459523Y-89037676D02*
X97507142Y-89228152D01*
X97507142Y-89228152D02*
X97507142Y-89561485D01*
X97507142Y-89561485D02*
X97459523Y-89751961D01*
X97459523Y-89751961D02*
X97364285Y-89847200D01*
X97364285Y-89847200D02*
X97269047Y-89894819D01*
X97269047Y-89894819D02*
X97078571Y-89894819D01*
X98078571Y-89323390D02*
X97983333Y-89275771D01*
X97983333Y-89275771D02*
X97935714Y-89228152D01*
X97935714Y-89228152D02*
X97888095Y-89132914D01*
X97888095Y-89132914D02*
X97888095Y-89085295D01*
X97888095Y-89085295D02*
X97935714Y-88990057D01*
X97935714Y-88990057D02*
X97983333Y-88942438D01*
X97983333Y-88942438D02*
X98078571Y-88894819D01*
X98078571Y-88894819D02*
X98269047Y-88894819D01*
X98269047Y-88894819D02*
X98364285Y-88942438D01*
X98364285Y-88942438D02*
X98411904Y-88990057D01*
X98411904Y-88990057D02*
X98459523Y-89085295D01*
X98459523Y-89085295D02*
X98459523Y-89132914D01*
X98459523Y-89132914D02*
X98411904Y-89228152D01*
X98411904Y-89228152D02*
X98364285Y-89275771D01*
X98364285Y-89275771D02*
X98269047Y-89323390D01*
X98269047Y-89323390D02*
X98078571Y-89323390D01*
X98078571Y-89323390D02*
X97983333Y-89371009D01*
X97983333Y-89371009D02*
X97935714Y-89418628D01*
X97935714Y-89418628D02*
X97888095Y-89513866D01*
X97888095Y-89513866D02*
X97888095Y-89704342D01*
X97888095Y-89704342D02*
X97935714Y-89799580D01*
X97935714Y-89799580D02*
X97983333Y-89847200D01*
X97983333Y-89847200D02*
X98078571Y-89894819D01*
X98078571Y-89894819D02*
X98269047Y-89894819D01*
X98269047Y-89894819D02*
X98364285Y-89847200D01*
X98364285Y-89847200D02*
X98411904Y-89799580D01*
X98411904Y-89799580D02*
X98459523Y-89704342D01*
X98459523Y-89704342D02*
X98459523Y-89513866D01*
X98459523Y-89513866D02*
X98411904Y-89418628D01*
X98411904Y-89418628D02*
X98364285Y-89371009D01*
X98364285Y-89371009D02*
X98269047Y-89323390D01*
X103609580Y-69569317D02*
X103657200Y-69616936D01*
X103657200Y-69616936D02*
X103704819Y-69759793D01*
X103704819Y-69759793D02*
X103704819Y-69855031D01*
X103704819Y-69855031D02*
X103657200Y-69997888D01*
X103657200Y-69997888D02*
X103561961Y-70093126D01*
X103561961Y-70093126D02*
X103466723Y-70140745D01*
X103466723Y-70140745D02*
X103276247Y-70188364D01*
X103276247Y-70188364D02*
X103133390Y-70188364D01*
X103133390Y-70188364D02*
X102942914Y-70140745D01*
X102942914Y-70140745D02*
X102847676Y-70093126D01*
X102847676Y-70093126D02*
X102752438Y-69997888D01*
X102752438Y-69997888D02*
X102704819Y-69855031D01*
X102704819Y-69855031D02*
X102704819Y-69759793D01*
X102704819Y-69759793D02*
X102752438Y-69616936D01*
X102752438Y-69616936D02*
X102800057Y-69569317D01*
X103704819Y-68616936D02*
X103704819Y-69188364D01*
X103704819Y-68902650D02*
X102704819Y-68902650D01*
X102704819Y-68902650D02*
X102847676Y-68997888D01*
X102847676Y-68997888D02*
X102942914Y-69093126D01*
X102942914Y-69093126D02*
X102990533Y-69188364D01*
X112554761Y-73490057D02*
X112459523Y-73442438D01*
X112459523Y-73442438D02*
X112364285Y-73347200D01*
X112364285Y-73347200D02*
X112221428Y-73204342D01*
X112221428Y-73204342D02*
X112126190Y-73156723D01*
X112126190Y-73156723D02*
X112030952Y-73156723D01*
X112078571Y-73394819D02*
X111983333Y-73347200D01*
X111983333Y-73347200D02*
X111888095Y-73251961D01*
X111888095Y-73251961D02*
X111840476Y-73061485D01*
X111840476Y-73061485D02*
X111840476Y-72728152D01*
X111840476Y-72728152D02*
X111888095Y-72537676D01*
X111888095Y-72537676D02*
X111983333Y-72442438D01*
X111983333Y-72442438D02*
X112078571Y-72394819D01*
X112078571Y-72394819D02*
X112269047Y-72394819D01*
X112269047Y-72394819D02*
X112364285Y-72442438D01*
X112364285Y-72442438D02*
X112459523Y-72537676D01*
X112459523Y-72537676D02*
X112507142Y-72728152D01*
X112507142Y-72728152D02*
X112507142Y-73061485D01*
X112507142Y-73061485D02*
X112459523Y-73251961D01*
X112459523Y-73251961D02*
X112364285Y-73347200D01*
X112364285Y-73347200D02*
X112269047Y-73394819D01*
X112269047Y-73394819D02*
X112078571Y-73394819D01*
X112983333Y-73394819D02*
X113173809Y-73394819D01*
X113173809Y-73394819D02*
X113269047Y-73347200D01*
X113269047Y-73347200D02*
X113316666Y-73299580D01*
X113316666Y-73299580D02*
X113411904Y-73156723D01*
X113411904Y-73156723D02*
X113459523Y-72966247D01*
X113459523Y-72966247D02*
X113459523Y-72585295D01*
X113459523Y-72585295D02*
X113411904Y-72490057D01*
X113411904Y-72490057D02*
X113364285Y-72442438D01*
X113364285Y-72442438D02*
X113269047Y-72394819D01*
X113269047Y-72394819D02*
X113078571Y-72394819D01*
X113078571Y-72394819D02*
X112983333Y-72442438D01*
X112983333Y-72442438D02*
X112935714Y-72490057D01*
X112935714Y-72490057D02*
X112888095Y-72585295D01*
X112888095Y-72585295D02*
X112888095Y-72823390D01*
X112888095Y-72823390D02*
X112935714Y-72918628D01*
X112935714Y-72918628D02*
X112983333Y-72966247D01*
X112983333Y-72966247D02*
X113078571Y-73013866D01*
X113078571Y-73013866D02*
X113269047Y-73013866D01*
X113269047Y-73013866D02*
X113364285Y-72966247D01*
X113364285Y-72966247D02*
X113411904Y-72918628D01*
X113411904Y-72918628D02*
X113459523Y-72823390D01*
X89333333Y-85454819D02*
X89000000Y-84978628D01*
X88761905Y-85454819D02*
X88761905Y-84454819D01*
X88761905Y-84454819D02*
X89142857Y-84454819D01*
X89142857Y-84454819D02*
X89238095Y-84502438D01*
X89238095Y-84502438D02*
X89285714Y-84550057D01*
X89285714Y-84550057D02*
X89333333Y-84645295D01*
X89333333Y-84645295D02*
X89333333Y-84788152D01*
X89333333Y-84788152D02*
X89285714Y-84883390D01*
X89285714Y-84883390D02*
X89238095Y-84931009D01*
X89238095Y-84931009D02*
X89142857Y-84978628D01*
X89142857Y-84978628D02*
X88761905Y-84978628D01*
X89666667Y-84454819D02*
X90285714Y-84454819D01*
X90285714Y-84454819D02*
X89952381Y-84835771D01*
X89952381Y-84835771D02*
X90095238Y-84835771D01*
X90095238Y-84835771D02*
X90190476Y-84883390D01*
X90190476Y-84883390D02*
X90238095Y-84931009D01*
X90238095Y-84931009D02*
X90285714Y-85026247D01*
X90285714Y-85026247D02*
X90285714Y-85264342D01*
X90285714Y-85264342D02*
X90238095Y-85359580D01*
X90238095Y-85359580D02*
X90190476Y-85407200D01*
X90190476Y-85407200D02*
X90095238Y-85454819D01*
X90095238Y-85454819D02*
X89809524Y-85454819D01*
X89809524Y-85454819D02*
X89714286Y-85407200D01*
X89714286Y-85407200D02*
X89666667Y-85359580D01*
X88054761Y-79490057D02*
X87959523Y-79442438D01*
X87959523Y-79442438D02*
X87864285Y-79347200D01*
X87864285Y-79347200D02*
X87721428Y-79204342D01*
X87721428Y-79204342D02*
X87626190Y-79156723D01*
X87626190Y-79156723D02*
X87530952Y-79156723D01*
X87578571Y-79394819D02*
X87483333Y-79347200D01*
X87483333Y-79347200D02*
X87388095Y-79251961D01*
X87388095Y-79251961D02*
X87340476Y-79061485D01*
X87340476Y-79061485D02*
X87340476Y-78728152D01*
X87340476Y-78728152D02*
X87388095Y-78537676D01*
X87388095Y-78537676D02*
X87483333Y-78442438D01*
X87483333Y-78442438D02*
X87578571Y-78394819D01*
X87578571Y-78394819D02*
X87769047Y-78394819D01*
X87769047Y-78394819D02*
X87864285Y-78442438D01*
X87864285Y-78442438D02*
X87959523Y-78537676D01*
X87959523Y-78537676D02*
X88007142Y-78728152D01*
X88007142Y-78728152D02*
X88007142Y-79061485D01*
X88007142Y-79061485D02*
X87959523Y-79251961D01*
X87959523Y-79251961D02*
X87864285Y-79347200D01*
X87864285Y-79347200D02*
X87769047Y-79394819D01*
X87769047Y-79394819D02*
X87578571Y-79394819D01*
X88959523Y-79394819D02*
X88388095Y-79394819D01*
X88673809Y-79394819D02*
X88673809Y-78394819D01*
X88673809Y-78394819D02*
X88578571Y-78537676D01*
X88578571Y-78537676D02*
X88483333Y-78632914D01*
X88483333Y-78632914D02*
X88388095Y-78680533D01*
X107841905Y-79334819D02*
X107841905Y-78334819D01*
X107841905Y-78334819D02*
X108080000Y-78334819D01*
X108080000Y-78334819D02*
X108222857Y-78382438D01*
X108222857Y-78382438D02*
X108318095Y-78477676D01*
X108318095Y-78477676D02*
X108365714Y-78572914D01*
X108365714Y-78572914D02*
X108413333Y-78763390D01*
X108413333Y-78763390D02*
X108413333Y-78906247D01*
X108413333Y-78906247D02*
X108365714Y-79096723D01*
X108365714Y-79096723D02*
X108318095Y-79191961D01*
X108318095Y-79191961D02*
X108222857Y-79287200D01*
X108222857Y-79287200D02*
X108080000Y-79334819D01*
X108080000Y-79334819D02*
X107841905Y-79334819D01*
X108794286Y-78430057D02*
X108841905Y-78382438D01*
X108841905Y-78382438D02*
X108937143Y-78334819D01*
X108937143Y-78334819D02*
X109175238Y-78334819D01*
X109175238Y-78334819D02*
X109270476Y-78382438D01*
X109270476Y-78382438D02*
X109318095Y-78430057D01*
X109318095Y-78430057D02*
X109365714Y-78525295D01*
X109365714Y-78525295D02*
X109365714Y-78620533D01*
X109365714Y-78620533D02*
X109318095Y-78763390D01*
X109318095Y-78763390D02*
X108746667Y-79334819D01*
X108746667Y-79334819D02*
X109365714Y-79334819D01*
X103238095Y-79654819D02*
X103238095Y-78654819D01*
X103809523Y-79654819D02*
X103380952Y-79083390D01*
X103809523Y-78654819D02*
X103238095Y-79226247D01*
X108023333Y-77954819D02*
X107690000Y-77478628D01*
X107451905Y-77954819D02*
X107451905Y-76954819D01*
X107451905Y-76954819D02*
X107832857Y-76954819D01*
X107832857Y-76954819D02*
X107928095Y-77002438D01*
X107928095Y-77002438D02*
X107975714Y-77050057D01*
X107975714Y-77050057D02*
X108023333Y-77145295D01*
X108023333Y-77145295D02*
X108023333Y-77288152D01*
X108023333Y-77288152D02*
X107975714Y-77383390D01*
X107975714Y-77383390D02*
X107928095Y-77431009D01*
X107928095Y-77431009D02*
X107832857Y-77478628D01*
X107832857Y-77478628D02*
X107451905Y-77478628D01*
X108928095Y-76954819D02*
X108451905Y-76954819D01*
X108451905Y-76954819D02*
X108404286Y-77431009D01*
X108404286Y-77431009D02*
X108451905Y-77383390D01*
X108451905Y-77383390D02*
X108547143Y-77335771D01*
X108547143Y-77335771D02*
X108785238Y-77335771D01*
X108785238Y-77335771D02*
X108880476Y-77383390D01*
X108880476Y-77383390D02*
X108928095Y-77431009D01*
X108928095Y-77431009D02*
X108975714Y-77526247D01*
X108975714Y-77526247D02*
X108975714Y-77764342D01*
X108975714Y-77764342D02*
X108928095Y-77859580D01*
X108928095Y-77859580D02*
X108880476Y-77907200D01*
X108880476Y-77907200D02*
X108785238Y-77954819D01*
X108785238Y-77954819D02*
X108547143Y-77954819D01*
X108547143Y-77954819D02*
X108451905Y-77907200D01*
X108451905Y-77907200D02*
X108404286Y-77859580D01*
X107841905Y-86074819D02*
X107841905Y-85074819D01*
X107841905Y-85074819D02*
X108080000Y-85074819D01*
X108080000Y-85074819D02*
X108222857Y-85122438D01*
X108222857Y-85122438D02*
X108318095Y-85217676D01*
X108318095Y-85217676D02*
X108365714Y-85312914D01*
X108365714Y-85312914D02*
X108413333Y-85503390D01*
X108413333Y-85503390D02*
X108413333Y-85646247D01*
X108413333Y-85646247D02*
X108365714Y-85836723D01*
X108365714Y-85836723D02*
X108318095Y-85931961D01*
X108318095Y-85931961D02*
X108222857Y-86027200D01*
X108222857Y-86027200D02*
X108080000Y-86074819D01*
X108080000Y-86074819D02*
X107841905Y-86074819D01*
X109365714Y-86074819D02*
X108794286Y-86074819D01*
X109080000Y-86074819D02*
X109080000Y-85074819D01*
X109080000Y-85074819D02*
X108984762Y-85217676D01*
X108984762Y-85217676D02*
X108889524Y-85312914D01*
X108889524Y-85312914D02*
X108794286Y-85360533D01*
X113398095Y-85754819D02*
X113398095Y-84754819D01*
X113969523Y-85754819D02*
X113540952Y-85183390D01*
X113969523Y-84754819D02*
X113398095Y-85326247D01*
X110833333Y-90454819D02*
X110500000Y-89978628D01*
X110261905Y-90454819D02*
X110261905Y-89454819D01*
X110261905Y-89454819D02*
X110642857Y-89454819D01*
X110642857Y-89454819D02*
X110738095Y-89502438D01*
X110738095Y-89502438D02*
X110785714Y-89550057D01*
X110785714Y-89550057D02*
X110833333Y-89645295D01*
X110833333Y-89645295D02*
X110833333Y-89788152D01*
X110833333Y-89788152D02*
X110785714Y-89883390D01*
X110785714Y-89883390D02*
X110738095Y-89931009D01*
X110738095Y-89931009D02*
X110642857Y-89978628D01*
X110642857Y-89978628D02*
X110261905Y-89978628D01*
X111166667Y-89454819D02*
X111833333Y-89454819D01*
X111833333Y-89454819D02*
X111404762Y-90454819D01*
X82714285Y-69931009D02*
X82857142Y-69978628D01*
X82857142Y-69978628D02*
X82904761Y-70026247D01*
X82904761Y-70026247D02*
X82952380Y-70121485D01*
X82952380Y-70121485D02*
X82952380Y-70264342D01*
X82952380Y-70264342D02*
X82904761Y-70359580D01*
X82904761Y-70359580D02*
X82857142Y-70407200D01*
X82857142Y-70407200D02*
X82761904Y-70454819D01*
X82761904Y-70454819D02*
X82380952Y-70454819D01*
X82380952Y-70454819D02*
X82380952Y-69454819D01*
X82380952Y-69454819D02*
X82714285Y-69454819D01*
X82714285Y-69454819D02*
X82809523Y-69502438D01*
X82809523Y-69502438D02*
X82857142Y-69550057D01*
X82857142Y-69550057D02*
X82904761Y-69645295D01*
X82904761Y-69645295D02*
X82904761Y-69740533D01*
X82904761Y-69740533D02*
X82857142Y-69835771D01*
X82857142Y-69835771D02*
X82809523Y-69883390D01*
X82809523Y-69883390D02*
X82714285Y-69931009D01*
X82714285Y-69931009D02*
X82380952Y-69931009D01*
X83238095Y-69454819D02*
X83809523Y-69454819D01*
X83523809Y-70454819D02*
X83523809Y-69454819D01*
X84666666Y-70454819D02*
X84095238Y-70454819D01*
X84380952Y-70454819D02*
X84380952Y-69454819D01*
X84380952Y-69454819D02*
X84285714Y-69597676D01*
X84285714Y-69597676D02*
X84190476Y-69692914D01*
X84190476Y-69692914D02*
X84095238Y-69740533D01*
X111023333Y-86454819D02*
X110690000Y-85978628D01*
X110451905Y-86454819D02*
X110451905Y-85454819D01*
X110451905Y-85454819D02*
X110832857Y-85454819D01*
X110832857Y-85454819D02*
X110928095Y-85502438D01*
X110928095Y-85502438D02*
X110975714Y-85550057D01*
X110975714Y-85550057D02*
X111023333Y-85645295D01*
X111023333Y-85645295D02*
X111023333Y-85788152D01*
X111023333Y-85788152D02*
X110975714Y-85883390D01*
X110975714Y-85883390D02*
X110928095Y-85931009D01*
X110928095Y-85931009D02*
X110832857Y-85978628D01*
X110832857Y-85978628D02*
X110451905Y-85978628D01*
X111594762Y-85883390D02*
X111499524Y-85835771D01*
X111499524Y-85835771D02*
X111451905Y-85788152D01*
X111451905Y-85788152D02*
X111404286Y-85692914D01*
X111404286Y-85692914D02*
X111404286Y-85645295D01*
X111404286Y-85645295D02*
X111451905Y-85550057D01*
X111451905Y-85550057D02*
X111499524Y-85502438D01*
X111499524Y-85502438D02*
X111594762Y-85454819D01*
X111594762Y-85454819D02*
X111785238Y-85454819D01*
X111785238Y-85454819D02*
X111880476Y-85502438D01*
X111880476Y-85502438D02*
X111928095Y-85550057D01*
X111928095Y-85550057D02*
X111975714Y-85645295D01*
X111975714Y-85645295D02*
X111975714Y-85692914D01*
X111975714Y-85692914D02*
X111928095Y-85788152D01*
X111928095Y-85788152D02*
X111880476Y-85835771D01*
X111880476Y-85835771D02*
X111785238Y-85883390D01*
X111785238Y-85883390D02*
X111594762Y-85883390D01*
X111594762Y-85883390D02*
X111499524Y-85931009D01*
X111499524Y-85931009D02*
X111451905Y-85978628D01*
X111451905Y-85978628D02*
X111404286Y-86073866D01*
X111404286Y-86073866D02*
X111404286Y-86264342D01*
X111404286Y-86264342D02*
X111451905Y-86359580D01*
X111451905Y-86359580D02*
X111499524Y-86407200D01*
X111499524Y-86407200D02*
X111594762Y-86454819D01*
X111594762Y-86454819D02*
X111785238Y-86454819D01*
X111785238Y-86454819D02*
X111880476Y-86407200D01*
X111880476Y-86407200D02*
X111928095Y-86359580D01*
X111928095Y-86359580D02*
X111975714Y-86264342D01*
X111975714Y-86264342D02*
X111975714Y-86073866D01*
X111975714Y-86073866D02*
X111928095Y-85978628D01*
X111928095Y-85978628D02*
X111880476Y-85931009D01*
X111880476Y-85931009D02*
X111785238Y-85883390D01*
X99094761Y-79490057D02*
X98999523Y-79442438D01*
X98999523Y-79442438D02*
X98904285Y-79347200D01*
X98904285Y-79347200D02*
X98761428Y-79204342D01*
X98761428Y-79204342D02*
X98666190Y-79156723D01*
X98666190Y-79156723D02*
X98570952Y-79156723D01*
X98618571Y-79394819D02*
X98523333Y-79347200D01*
X98523333Y-79347200D02*
X98428095Y-79251961D01*
X98428095Y-79251961D02*
X98380476Y-79061485D01*
X98380476Y-79061485D02*
X98380476Y-78728152D01*
X98380476Y-78728152D02*
X98428095Y-78537676D01*
X98428095Y-78537676D02*
X98523333Y-78442438D01*
X98523333Y-78442438D02*
X98618571Y-78394819D01*
X98618571Y-78394819D02*
X98809047Y-78394819D01*
X98809047Y-78394819D02*
X98904285Y-78442438D01*
X98904285Y-78442438D02*
X98999523Y-78537676D01*
X98999523Y-78537676D02*
X99047142Y-78728152D01*
X99047142Y-78728152D02*
X99047142Y-79061485D01*
X99047142Y-79061485D02*
X98999523Y-79251961D01*
X98999523Y-79251961D02*
X98904285Y-79347200D01*
X98904285Y-79347200D02*
X98809047Y-79394819D01*
X98809047Y-79394819D02*
X98618571Y-79394819D01*
X99904285Y-78394819D02*
X99713809Y-78394819D01*
X99713809Y-78394819D02*
X99618571Y-78442438D01*
X99618571Y-78442438D02*
X99570952Y-78490057D01*
X99570952Y-78490057D02*
X99475714Y-78632914D01*
X99475714Y-78632914D02*
X99428095Y-78823390D01*
X99428095Y-78823390D02*
X99428095Y-79204342D01*
X99428095Y-79204342D02*
X99475714Y-79299580D01*
X99475714Y-79299580D02*
X99523333Y-79347200D01*
X99523333Y-79347200D02*
X99618571Y-79394819D01*
X99618571Y-79394819D02*
X99809047Y-79394819D01*
X99809047Y-79394819D02*
X99904285Y-79347200D01*
X99904285Y-79347200D02*
X99951904Y-79299580D01*
X99951904Y-79299580D02*
X99999523Y-79204342D01*
X99999523Y-79204342D02*
X99999523Y-78966247D01*
X99999523Y-78966247D02*
X99951904Y-78871009D01*
X99951904Y-78871009D02*
X99904285Y-78823390D01*
X99904285Y-78823390D02*
X99809047Y-78775771D01*
X99809047Y-78775771D02*
X99618571Y-78775771D01*
X99618571Y-78775771D02*
X99523333Y-78823390D01*
X99523333Y-78823390D02*
X99475714Y-78871009D01*
X99475714Y-78871009D02*
X99428095Y-78966247D01*
X96394761Y-73440057D02*
X96299523Y-73392438D01*
X96299523Y-73392438D02*
X96204285Y-73297200D01*
X96204285Y-73297200D02*
X96061428Y-73154342D01*
X96061428Y-73154342D02*
X95966190Y-73106723D01*
X95966190Y-73106723D02*
X95870952Y-73106723D01*
X95918571Y-73344819D02*
X95823333Y-73297200D01*
X95823333Y-73297200D02*
X95728095Y-73201961D01*
X95728095Y-73201961D02*
X95680476Y-73011485D01*
X95680476Y-73011485D02*
X95680476Y-72678152D01*
X95680476Y-72678152D02*
X95728095Y-72487676D01*
X95728095Y-72487676D02*
X95823333Y-72392438D01*
X95823333Y-72392438D02*
X95918571Y-72344819D01*
X95918571Y-72344819D02*
X96109047Y-72344819D01*
X96109047Y-72344819D02*
X96204285Y-72392438D01*
X96204285Y-72392438D02*
X96299523Y-72487676D01*
X96299523Y-72487676D02*
X96347142Y-72678152D01*
X96347142Y-72678152D02*
X96347142Y-73011485D01*
X96347142Y-73011485D02*
X96299523Y-73201961D01*
X96299523Y-73201961D02*
X96204285Y-73297200D01*
X96204285Y-73297200D02*
X96109047Y-73344819D01*
X96109047Y-73344819D02*
X95918571Y-73344819D01*
X97251904Y-72344819D02*
X96775714Y-72344819D01*
X96775714Y-72344819D02*
X96728095Y-72821009D01*
X96728095Y-72821009D02*
X96775714Y-72773390D01*
X96775714Y-72773390D02*
X96870952Y-72725771D01*
X96870952Y-72725771D02*
X97109047Y-72725771D01*
X97109047Y-72725771D02*
X97204285Y-72773390D01*
X97204285Y-72773390D02*
X97251904Y-72821009D01*
X97251904Y-72821009D02*
X97299523Y-72916247D01*
X97299523Y-72916247D02*
X97299523Y-73154342D01*
X97299523Y-73154342D02*
X97251904Y-73249580D01*
X97251904Y-73249580D02*
X97204285Y-73297200D01*
X97204285Y-73297200D02*
X97109047Y-73344819D01*
X97109047Y-73344819D02*
X96870952Y-73344819D01*
X96870952Y-73344819D02*
X96775714Y-73297200D01*
X96775714Y-73297200D02*
X96728095Y-73249580D01*
X115404819Y-70003333D02*
X116119104Y-70003333D01*
X116119104Y-70003333D02*
X116261961Y-70050952D01*
X116261961Y-70050952D02*
X116357200Y-70146190D01*
X116357200Y-70146190D02*
X116404819Y-70289047D01*
X116404819Y-70289047D02*
X116404819Y-70384285D01*
X116404819Y-69003333D02*
X116404819Y-69574761D01*
X116404819Y-69289047D02*
X115404819Y-69289047D01*
X115404819Y-69289047D02*
X115547676Y-69384285D01*
X115547676Y-69384285D02*
X115642914Y-69479523D01*
X115642914Y-69479523D02*
X115690533Y-69574761D01*
X99833333Y-85454819D02*
X99500000Y-84978628D01*
X99261905Y-85454819D02*
X99261905Y-84454819D01*
X99261905Y-84454819D02*
X99642857Y-84454819D01*
X99642857Y-84454819D02*
X99738095Y-84502438D01*
X99738095Y-84502438D02*
X99785714Y-84550057D01*
X99785714Y-84550057D02*
X99833333Y-84645295D01*
X99833333Y-84645295D02*
X99833333Y-84788152D01*
X99833333Y-84788152D02*
X99785714Y-84883390D01*
X99785714Y-84883390D02*
X99738095Y-84931009D01*
X99738095Y-84931009D02*
X99642857Y-84978628D01*
X99642857Y-84978628D02*
X99261905Y-84978628D01*
X100690476Y-84788152D02*
X100690476Y-85454819D01*
X100452381Y-84407200D02*
X100214286Y-85121485D01*
X100214286Y-85121485D02*
X100833333Y-85121485D01*
X86523333Y-92954819D02*
X86190000Y-92478628D01*
X85951905Y-92954819D02*
X85951905Y-91954819D01*
X85951905Y-91954819D02*
X86332857Y-91954819D01*
X86332857Y-91954819D02*
X86428095Y-92002438D01*
X86428095Y-92002438D02*
X86475714Y-92050057D01*
X86475714Y-92050057D02*
X86523333Y-92145295D01*
X86523333Y-92145295D02*
X86523333Y-92288152D01*
X86523333Y-92288152D02*
X86475714Y-92383390D01*
X86475714Y-92383390D02*
X86428095Y-92431009D01*
X86428095Y-92431009D02*
X86332857Y-92478628D01*
X86332857Y-92478628D02*
X85951905Y-92478628D01*
X86904286Y-92050057D02*
X86951905Y-92002438D01*
X86951905Y-92002438D02*
X87047143Y-91954819D01*
X87047143Y-91954819D02*
X87285238Y-91954819D01*
X87285238Y-91954819D02*
X87380476Y-92002438D01*
X87380476Y-92002438D02*
X87428095Y-92050057D01*
X87428095Y-92050057D02*
X87475714Y-92145295D01*
X87475714Y-92145295D02*
X87475714Y-92240533D01*
X87475714Y-92240533D02*
X87428095Y-92383390D01*
X87428095Y-92383390D02*
X86856667Y-92954819D01*
X86856667Y-92954819D02*
X87475714Y-92954819D01*
X85354761Y-73440057D02*
X85259523Y-73392438D01*
X85259523Y-73392438D02*
X85164285Y-73297200D01*
X85164285Y-73297200D02*
X85021428Y-73154342D01*
X85021428Y-73154342D02*
X84926190Y-73106723D01*
X84926190Y-73106723D02*
X84830952Y-73106723D01*
X84878571Y-73344819D02*
X84783333Y-73297200D01*
X84783333Y-73297200D02*
X84688095Y-73201961D01*
X84688095Y-73201961D02*
X84640476Y-73011485D01*
X84640476Y-73011485D02*
X84640476Y-72678152D01*
X84640476Y-72678152D02*
X84688095Y-72487676D01*
X84688095Y-72487676D02*
X84783333Y-72392438D01*
X84783333Y-72392438D02*
X84878571Y-72344819D01*
X84878571Y-72344819D02*
X85069047Y-72344819D01*
X85069047Y-72344819D02*
X85164285Y-72392438D01*
X85164285Y-72392438D02*
X85259523Y-72487676D01*
X85259523Y-72487676D02*
X85307142Y-72678152D01*
X85307142Y-72678152D02*
X85307142Y-73011485D01*
X85307142Y-73011485D02*
X85259523Y-73201961D01*
X85259523Y-73201961D02*
X85164285Y-73297200D01*
X85164285Y-73297200D02*
X85069047Y-73344819D01*
X85069047Y-73344819D02*
X84878571Y-73344819D01*
X85688095Y-72440057D02*
X85735714Y-72392438D01*
X85735714Y-72392438D02*
X85830952Y-72344819D01*
X85830952Y-72344819D02*
X86069047Y-72344819D01*
X86069047Y-72344819D02*
X86164285Y-72392438D01*
X86164285Y-72392438D02*
X86211904Y-72440057D01*
X86211904Y-72440057D02*
X86259523Y-72535295D01*
X86259523Y-72535295D02*
X86259523Y-72630533D01*
X86259523Y-72630533D02*
X86211904Y-72773390D01*
X86211904Y-72773390D02*
X85640476Y-73344819D01*
X85640476Y-73344819D02*
X86259523Y-73344819D01*
X90894761Y-73440057D02*
X90799523Y-73392438D01*
X90799523Y-73392438D02*
X90704285Y-73297200D01*
X90704285Y-73297200D02*
X90561428Y-73154342D01*
X90561428Y-73154342D02*
X90466190Y-73106723D01*
X90466190Y-73106723D02*
X90370952Y-73106723D01*
X90418571Y-73344819D02*
X90323333Y-73297200D01*
X90323333Y-73297200D02*
X90228095Y-73201961D01*
X90228095Y-73201961D02*
X90180476Y-73011485D01*
X90180476Y-73011485D02*
X90180476Y-72678152D01*
X90180476Y-72678152D02*
X90228095Y-72487676D01*
X90228095Y-72487676D02*
X90323333Y-72392438D01*
X90323333Y-72392438D02*
X90418571Y-72344819D01*
X90418571Y-72344819D02*
X90609047Y-72344819D01*
X90609047Y-72344819D02*
X90704285Y-72392438D01*
X90704285Y-72392438D02*
X90799523Y-72487676D01*
X90799523Y-72487676D02*
X90847142Y-72678152D01*
X90847142Y-72678152D02*
X90847142Y-73011485D01*
X90847142Y-73011485D02*
X90799523Y-73201961D01*
X90799523Y-73201961D02*
X90704285Y-73297200D01*
X90704285Y-73297200D02*
X90609047Y-73344819D01*
X90609047Y-73344819D02*
X90418571Y-73344819D01*
X91180476Y-72344819D02*
X91799523Y-72344819D01*
X91799523Y-72344819D02*
X91466190Y-72725771D01*
X91466190Y-72725771D02*
X91609047Y-72725771D01*
X91609047Y-72725771D02*
X91704285Y-72773390D01*
X91704285Y-72773390D02*
X91751904Y-72821009D01*
X91751904Y-72821009D02*
X91799523Y-72916247D01*
X91799523Y-72916247D02*
X91799523Y-73154342D01*
X91799523Y-73154342D02*
X91751904Y-73249580D01*
X91751904Y-73249580D02*
X91704285Y-73297200D01*
X91704285Y-73297200D02*
X91609047Y-73344819D01*
X91609047Y-73344819D02*
X91323333Y-73344819D01*
X91323333Y-73344819D02*
X91228095Y-73297200D01*
X91228095Y-73297200D02*
X91180476Y-73249580D01*
X81084819Y-83666666D02*
X80608628Y-83999999D01*
X81084819Y-84238094D02*
X80084819Y-84238094D01*
X80084819Y-84238094D02*
X80084819Y-83857142D01*
X80084819Y-83857142D02*
X80132438Y-83761904D01*
X80132438Y-83761904D02*
X80180057Y-83714285D01*
X80180057Y-83714285D02*
X80275295Y-83666666D01*
X80275295Y-83666666D02*
X80418152Y-83666666D01*
X80418152Y-83666666D02*
X80513390Y-83714285D01*
X80513390Y-83714285D02*
X80561009Y-83761904D01*
X80561009Y-83761904D02*
X80608628Y-83857142D01*
X80608628Y-83857142D02*
X80608628Y-84238094D01*
X81084819Y-82714285D02*
X81084819Y-83285713D01*
X81084819Y-82999999D02*
X80084819Y-82999999D01*
X80084819Y-82999999D02*
X80227676Y-83095237D01*
X80227676Y-83095237D02*
X80322914Y-83190475D01*
X80322914Y-83190475D02*
X80370533Y-83285713D01*
X93554761Y-79490057D02*
X93459523Y-79442438D01*
X93459523Y-79442438D02*
X93364285Y-79347200D01*
X93364285Y-79347200D02*
X93221428Y-79204342D01*
X93221428Y-79204342D02*
X93126190Y-79156723D01*
X93126190Y-79156723D02*
X93030952Y-79156723D01*
X93078571Y-79394819D02*
X92983333Y-79347200D01*
X92983333Y-79347200D02*
X92888095Y-79251961D01*
X92888095Y-79251961D02*
X92840476Y-79061485D01*
X92840476Y-79061485D02*
X92840476Y-78728152D01*
X92840476Y-78728152D02*
X92888095Y-78537676D01*
X92888095Y-78537676D02*
X92983333Y-78442438D01*
X92983333Y-78442438D02*
X93078571Y-78394819D01*
X93078571Y-78394819D02*
X93269047Y-78394819D01*
X93269047Y-78394819D02*
X93364285Y-78442438D01*
X93364285Y-78442438D02*
X93459523Y-78537676D01*
X93459523Y-78537676D02*
X93507142Y-78728152D01*
X93507142Y-78728152D02*
X93507142Y-79061485D01*
X93507142Y-79061485D02*
X93459523Y-79251961D01*
X93459523Y-79251961D02*
X93364285Y-79347200D01*
X93364285Y-79347200D02*
X93269047Y-79394819D01*
X93269047Y-79394819D02*
X93078571Y-79394819D01*
X94364285Y-78728152D02*
X94364285Y-79394819D01*
X94126190Y-78347200D02*
X93888095Y-79061485D01*
X93888095Y-79061485D02*
X94507142Y-79061485D01*
X111023333Y-94454819D02*
X110690000Y-93978628D01*
X110451905Y-94454819D02*
X110451905Y-93454819D01*
X110451905Y-93454819D02*
X110832857Y-93454819D01*
X110832857Y-93454819D02*
X110928095Y-93502438D01*
X110928095Y-93502438D02*
X110975714Y-93550057D01*
X110975714Y-93550057D02*
X111023333Y-93645295D01*
X111023333Y-93645295D02*
X111023333Y-93788152D01*
X111023333Y-93788152D02*
X110975714Y-93883390D01*
X110975714Y-93883390D02*
X110928095Y-93931009D01*
X110928095Y-93931009D02*
X110832857Y-93978628D01*
X110832857Y-93978628D02*
X110451905Y-93978628D01*
X111880476Y-93454819D02*
X111690000Y-93454819D01*
X111690000Y-93454819D02*
X111594762Y-93502438D01*
X111594762Y-93502438D02*
X111547143Y-93550057D01*
X111547143Y-93550057D02*
X111451905Y-93692914D01*
X111451905Y-93692914D02*
X111404286Y-93883390D01*
X111404286Y-93883390D02*
X111404286Y-94264342D01*
X111404286Y-94264342D02*
X111451905Y-94359580D01*
X111451905Y-94359580D02*
X111499524Y-94407200D01*
X111499524Y-94407200D02*
X111594762Y-94454819D01*
X111594762Y-94454819D02*
X111785238Y-94454819D01*
X111785238Y-94454819D02*
X111880476Y-94407200D01*
X111880476Y-94407200D02*
X111928095Y-94359580D01*
X111928095Y-94359580D02*
X111975714Y-94264342D01*
X111975714Y-94264342D02*
X111975714Y-94026247D01*
X111975714Y-94026247D02*
X111928095Y-93931009D01*
X111928095Y-93931009D02*
X111880476Y-93883390D01*
X111880476Y-93883390D02*
X111785238Y-93835771D01*
X111785238Y-93835771D02*
X111594762Y-93835771D01*
X111594762Y-93835771D02*
X111499524Y-93883390D01*
X111499524Y-93883390D02*
X111451905Y-93931009D01*
X111451905Y-93931009D02*
X111404286Y-94026247D01*
X103054761Y-89990057D02*
X102959523Y-89942438D01*
X102959523Y-89942438D02*
X102864285Y-89847200D01*
X102864285Y-89847200D02*
X102721428Y-89704342D01*
X102721428Y-89704342D02*
X102626190Y-89656723D01*
X102626190Y-89656723D02*
X102530952Y-89656723D01*
X102578571Y-89894819D02*
X102483333Y-89847200D01*
X102483333Y-89847200D02*
X102388095Y-89751961D01*
X102388095Y-89751961D02*
X102340476Y-89561485D01*
X102340476Y-89561485D02*
X102340476Y-89228152D01*
X102340476Y-89228152D02*
X102388095Y-89037676D01*
X102388095Y-89037676D02*
X102483333Y-88942438D01*
X102483333Y-88942438D02*
X102578571Y-88894819D01*
X102578571Y-88894819D02*
X102769047Y-88894819D01*
X102769047Y-88894819D02*
X102864285Y-88942438D01*
X102864285Y-88942438D02*
X102959523Y-89037676D01*
X102959523Y-89037676D02*
X103007142Y-89228152D01*
X103007142Y-89228152D02*
X103007142Y-89561485D01*
X103007142Y-89561485D02*
X102959523Y-89751961D01*
X102959523Y-89751961D02*
X102864285Y-89847200D01*
X102864285Y-89847200D02*
X102769047Y-89894819D01*
X102769047Y-89894819D02*
X102578571Y-89894819D01*
X103340476Y-88894819D02*
X104007142Y-88894819D01*
X104007142Y-88894819D02*
X103578571Y-89894819D01*
X107844761Y-55944819D02*
X107511428Y-55468628D01*
X107273333Y-55944819D02*
X107273333Y-54944819D01*
X107273333Y-54944819D02*
X107654285Y-54944819D01*
X107654285Y-54944819D02*
X107749523Y-54992438D01*
X107749523Y-54992438D02*
X107797142Y-55040057D01*
X107797142Y-55040057D02*
X107844761Y-55135295D01*
X107844761Y-55135295D02*
X107844761Y-55278152D01*
X107844761Y-55278152D02*
X107797142Y-55373390D01*
X107797142Y-55373390D02*
X107749523Y-55421009D01*
X107749523Y-55421009D02*
X107654285Y-55468628D01*
X107654285Y-55468628D02*
X107273333Y-55468628D01*
X108130476Y-54944819D02*
X108463809Y-55944819D01*
X108463809Y-55944819D02*
X108797142Y-54944819D01*
X109654285Y-55944819D02*
X109082857Y-55944819D01*
X109368571Y-55944819D02*
X109368571Y-54944819D01*
X109368571Y-54944819D02*
X109273333Y-55087676D01*
X109273333Y-55087676D02*
X109178095Y-55182914D01*
X109178095Y-55182914D02*
X109082857Y-55230533D01*
D13*
%TO.C,Q8*%
X95710000Y-94700000D02*
X99560000Y-94700000D01*
X95710000Y-94700000D02*
G75*
G02*
X99598611Y-94690122I1940000J1700000D01*
G01*
%TO.C,C1*%
X104420000Y-69322651D02*
X112580000Y-69322651D01*
X104420000Y-69362651D02*
X112580000Y-69362651D01*
X104420000Y-69402651D02*
X112580000Y-69402651D01*
X104421000Y-69282651D02*
X112579000Y-69282651D01*
X104423000Y-69242651D02*
X112577000Y-69242651D01*
X104424000Y-69202651D02*
X112576000Y-69202651D01*
X104426000Y-69162651D02*
X112574000Y-69162651D01*
X104429000Y-69122651D02*
X112571000Y-69122651D01*
X104432000Y-69082651D02*
X112568000Y-69082651D01*
X104435000Y-69042651D02*
X112565000Y-69042651D01*
X104439000Y-69002651D02*
X112561000Y-69002651D01*
X104443000Y-68962651D02*
X112557000Y-68962651D01*
X104448000Y-68922651D02*
X112552000Y-68922651D01*
X104452000Y-68882651D02*
X112548000Y-68882651D01*
X104458000Y-68842651D02*
X112542000Y-68842651D01*
X104463000Y-68802651D02*
X112537000Y-68802651D01*
X104470000Y-68762651D02*
X112530000Y-68762651D01*
X104476000Y-68722651D02*
X112524000Y-68722651D01*
X104483000Y-68681651D02*
X107460000Y-68681651D01*
X104490000Y-68641651D02*
X107460000Y-68641651D01*
X104498000Y-68601651D02*
X107460000Y-68601651D01*
X104506000Y-68561651D02*
X107460000Y-68561651D01*
X104515000Y-68521651D02*
X107460000Y-68521651D01*
X104524000Y-68481651D02*
X107460000Y-68481651D01*
X104533000Y-68441651D02*
X107460000Y-68441651D01*
X104543000Y-68401651D02*
X107460000Y-68401651D01*
X104553000Y-68361651D02*
X107460000Y-68361651D01*
X104564000Y-68321651D02*
X107460000Y-68321651D01*
X104575000Y-68281651D02*
X107460000Y-68281651D01*
X104586000Y-68241651D02*
X107460000Y-68241651D01*
X104598000Y-68201651D02*
X107460000Y-68201651D01*
X104611000Y-68161651D02*
X107460000Y-68161651D01*
X104623000Y-68121651D02*
X107460000Y-68121651D01*
X104637000Y-68081651D02*
X107460000Y-68081651D01*
X104650000Y-68041651D02*
X107460000Y-68041651D01*
X104665000Y-68001651D02*
X107460000Y-68001651D01*
X104679000Y-67961651D02*
X107460000Y-67961651D01*
X104695000Y-67921651D02*
X107460000Y-67921651D01*
X104710000Y-67881651D02*
X107460000Y-67881651D01*
X104726000Y-67841651D02*
X107460000Y-67841651D01*
X104743000Y-67801651D02*
X107460000Y-67801651D01*
X104760000Y-67761651D02*
X107460000Y-67761651D01*
X104778000Y-67721651D02*
X107460000Y-67721651D01*
X104796000Y-67681651D02*
X107460000Y-67681651D01*
X104814000Y-67641651D02*
X107460000Y-67641651D01*
X104834000Y-67601651D02*
X107460000Y-67601651D01*
X104853000Y-67561651D02*
X107460000Y-67561651D01*
X104873000Y-67521651D02*
X107460000Y-67521651D01*
X104894000Y-67481651D02*
X107460000Y-67481651D01*
X104916000Y-67441651D02*
X107460000Y-67441651D01*
X104938000Y-67401651D02*
X107460000Y-67401651D01*
X104960000Y-67361651D02*
X107460000Y-67361651D01*
X104983000Y-67321651D02*
X107460000Y-67321651D01*
X105007000Y-67281651D02*
X107460000Y-67281651D01*
X105031000Y-67241651D02*
X107460000Y-67241651D01*
X105056000Y-67201651D02*
X107460000Y-67201651D01*
X105082000Y-67161651D02*
X107460000Y-67161651D01*
X105108000Y-67121651D02*
X107460000Y-67121651D01*
X105135000Y-67081651D02*
X107460000Y-67081651D01*
X105162000Y-67041651D02*
X107460000Y-67041651D01*
X105191000Y-67001651D02*
X107460000Y-67001651D01*
X105220000Y-66961651D02*
X107460000Y-66961651D01*
X105250000Y-66921651D02*
X107460000Y-66921651D01*
X105280000Y-66881651D02*
X107460000Y-66881651D01*
X105311000Y-66841651D02*
X107460000Y-66841651D01*
X105344000Y-66801651D02*
X107460000Y-66801651D01*
X105376000Y-66761651D02*
X107460000Y-66761651D01*
X105410000Y-66721651D02*
X107460000Y-66721651D01*
X105445000Y-66681651D02*
X107460000Y-66681651D01*
X105481000Y-66641651D02*
X107460000Y-66641651D01*
X105517000Y-66601651D02*
X111483000Y-66601651D01*
X105555000Y-66561651D02*
X111445000Y-66561651D01*
X105593000Y-66521651D02*
X111407000Y-66521651D01*
X105633000Y-66481651D02*
X111367000Y-66481651D01*
X105674000Y-66441651D02*
X111326000Y-66441651D01*
X105716000Y-66401651D02*
X111284000Y-66401651D01*
X105759000Y-66361651D02*
X111241000Y-66361651D01*
X105785000Y-73412349D02*
X106585000Y-73412349D01*
X105803000Y-66321651D02*
X111197000Y-66321651D01*
X105849000Y-66281651D02*
X111151000Y-66281651D01*
X105896000Y-66241651D02*
X111104000Y-66241651D01*
X105944000Y-66201651D02*
X111056000Y-66201651D01*
X105995000Y-66161651D02*
X111005000Y-66161651D01*
X106046000Y-66121651D02*
X110954000Y-66121651D01*
X106100000Y-66081651D02*
X110900000Y-66081651D01*
X106155000Y-66041651D02*
X110845000Y-66041651D01*
X106185000Y-73812349D02*
X106185000Y-73012349D01*
X106213000Y-66001651D02*
X110787000Y-66001651D01*
X106272000Y-65961651D02*
X110728000Y-65961651D01*
X106334000Y-65921651D02*
X110666000Y-65921651D01*
X106398000Y-65881651D02*
X110602000Y-65881651D01*
X106466000Y-65841651D02*
X110534000Y-65841651D01*
X106536000Y-65801651D02*
X110464000Y-65801651D01*
X106610000Y-65761651D02*
X110390000Y-65761651D01*
X106687000Y-65721651D02*
X110313000Y-65721651D01*
X106769000Y-65681651D02*
X110231000Y-65681651D01*
X106855000Y-65641651D02*
X110145000Y-65641651D01*
X106948000Y-65601651D02*
X110052000Y-65601651D01*
X107047000Y-65561651D02*
X109953000Y-65561651D01*
X107154000Y-65521651D02*
X109846000Y-65521651D01*
X107271000Y-65481651D02*
X109729000Y-65481651D01*
X107402000Y-65441651D02*
X109598000Y-65441651D01*
X107552000Y-65401651D02*
X109448000Y-65401651D01*
X107732000Y-65361651D02*
X109268000Y-65361651D01*
X107967000Y-65321651D02*
X109033000Y-65321651D01*
X109540000Y-66641651D02*
X111519000Y-66641651D01*
X109540000Y-66681651D02*
X111555000Y-66681651D01*
X109540000Y-66721651D02*
X111590000Y-66721651D01*
X109540000Y-66761651D02*
X111624000Y-66761651D01*
X109540000Y-66801651D02*
X111656000Y-66801651D01*
X109540000Y-66841651D02*
X111689000Y-66841651D01*
X109540000Y-66881651D02*
X111720000Y-66881651D01*
X109540000Y-66921651D02*
X111750000Y-66921651D01*
X109540000Y-66961651D02*
X111780000Y-66961651D01*
X109540000Y-67001651D02*
X111809000Y-67001651D01*
X109540000Y-67041651D02*
X111838000Y-67041651D01*
X109540000Y-67081651D02*
X111865000Y-67081651D01*
X109540000Y-67121651D02*
X111892000Y-67121651D01*
X109540000Y-67161651D02*
X111918000Y-67161651D01*
X109540000Y-67201651D02*
X111944000Y-67201651D01*
X109540000Y-67241651D02*
X111969000Y-67241651D01*
X109540000Y-67281651D02*
X111993000Y-67281651D01*
X109540000Y-67321651D02*
X112017000Y-67321651D01*
X109540000Y-67361651D02*
X112040000Y-67361651D01*
X109540000Y-67401651D02*
X112062000Y-67401651D01*
X109540000Y-67441651D02*
X112084000Y-67441651D01*
X109540000Y-67481651D02*
X112106000Y-67481651D01*
X109540000Y-67521651D02*
X112127000Y-67521651D01*
X109540000Y-67561651D02*
X112147000Y-67561651D01*
X109540000Y-67601651D02*
X112166000Y-67601651D01*
X109540000Y-67641651D02*
X112186000Y-67641651D01*
X109540000Y-67681651D02*
X112204000Y-67681651D01*
X109540000Y-67721651D02*
X112222000Y-67721651D01*
X109540000Y-67761651D02*
X112240000Y-67761651D01*
X109540000Y-67801651D02*
X112257000Y-67801651D01*
X109540000Y-67841651D02*
X112274000Y-67841651D01*
X109540000Y-67881651D02*
X112290000Y-67881651D01*
X109540000Y-67921651D02*
X112305000Y-67921651D01*
X109540000Y-67961651D02*
X112321000Y-67961651D01*
X109540000Y-68001651D02*
X112335000Y-68001651D01*
X109540000Y-68041651D02*
X112350000Y-68041651D01*
X109540000Y-68081651D02*
X112363000Y-68081651D01*
X109540000Y-68121651D02*
X112377000Y-68121651D01*
X109540000Y-68161651D02*
X112389000Y-68161651D01*
X109540000Y-68201651D02*
X112402000Y-68201651D01*
X109540000Y-68241651D02*
X112414000Y-68241651D01*
X109540000Y-68281651D02*
X112425000Y-68281651D01*
X109540000Y-68321651D02*
X112436000Y-68321651D01*
X109540000Y-68361651D02*
X112447000Y-68361651D01*
X109540000Y-68401651D02*
X112457000Y-68401651D01*
X109540000Y-68441651D02*
X112467000Y-68441651D01*
X109540000Y-68481651D02*
X112476000Y-68481651D01*
X109540000Y-68521651D02*
X112485000Y-68521651D01*
X109540000Y-68561651D02*
X112494000Y-68561651D01*
X109540000Y-68601651D02*
X112502000Y-68601651D01*
X109540000Y-68641651D02*
X112510000Y-68641651D01*
X109540000Y-68681651D02*
X112517000Y-68681651D01*
X112620000Y-69402651D02*
G75*
G02*
X104380000Y-69402651I-4120000J0D01*
G01*
X104380000Y-69402651D02*
G75*
G02*
X112620000Y-69402651I4120000J0D01*
G01*
%TO.C,Q9*%
X110710000Y-78200000D02*
X114560000Y-78200000D01*
X110710000Y-78200000D02*
G75*
G02*
X114598611Y-78190122I1940000J1700000D01*
G01*
%TO.C,R3*%
X86230000Y-85630000D02*
X92770000Y-85630000D01*
X86230000Y-85960000D02*
X86230000Y-85630000D01*
X86230000Y-88040000D02*
X86230000Y-88370000D01*
X86230000Y-88370000D02*
X92770000Y-88370000D01*
X92770000Y-85630000D02*
X92770000Y-85960000D01*
X92770000Y-88370000D02*
X92770000Y-88040000D01*
%TO.C,Q1*%
X86210000Y-84200000D02*
X90060000Y-84200000D01*
X86210000Y-84200000D02*
G75*
G02*
X90098611Y-84190122I1940000J1700000D01*
G01*
%TO.C,D2*%
X104540000Y-81000000D02*
X106460000Y-81000000D01*
X106460000Y-79880000D02*
X106460000Y-82120000D01*
X106460000Y-82120000D02*
X110700000Y-82120000D01*
X107060000Y-79880000D02*
X107060000Y-82120000D01*
X107180000Y-79880000D02*
X107180000Y-82120000D01*
X107300000Y-79880000D02*
X107300000Y-82120000D01*
X110700000Y-79880000D02*
X106460000Y-79880000D01*
X110700000Y-82120000D02*
X110700000Y-79880000D01*
X112620000Y-81000000D02*
X110700000Y-81000000D01*
%TO.C,R5*%
X101230000Y-74130000D02*
X107770000Y-74130000D01*
X101230000Y-74460000D02*
X101230000Y-74130000D01*
X101230000Y-76540000D02*
X101230000Y-76870000D01*
X101230000Y-76870000D02*
X107770000Y-76870000D01*
X107770000Y-74130000D02*
X107770000Y-74460000D01*
X107770000Y-76870000D02*
X107770000Y-76540000D01*
%TO.C,D1*%
X104540000Y-83500000D02*
X106460000Y-83500000D01*
X106460000Y-82380000D02*
X106460000Y-84620000D01*
X106460000Y-84620000D02*
X110700000Y-84620000D01*
X109860000Y-84620000D02*
X109860000Y-82380000D01*
X109980000Y-84620000D02*
X109980000Y-82380000D01*
X110100000Y-84620000D02*
X110100000Y-82380000D01*
X110700000Y-82380000D02*
X106460000Y-82380000D01*
X110700000Y-84620000D02*
X110700000Y-82380000D01*
X112620000Y-83500000D02*
X110700000Y-83500000D01*
%TO.C,R7*%
X107920000Y-90630000D02*
X107920000Y-90960000D01*
X107920000Y-93370000D02*
X107920000Y-93040000D01*
X114460000Y-90630000D02*
X107920000Y-90630000D01*
X114460000Y-90960000D02*
X114460000Y-90630000D01*
X114460000Y-93040000D02*
X114460000Y-93370000D01*
X114460000Y-93370000D02*
X107920000Y-93370000D01*
%TO.C,BT1*%
X81220000Y-57870000D02*
X82660000Y-53920000D01*
X81220000Y-58500000D02*
X81220000Y-57870000D01*
X81220000Y-66960000D02*
X81220000Y-64500000D01*
X83300000Y-69040000D02*
X81220000Y-66960000D01*
X83300000Y-69040000D02*
X86800000Y-69040000D01*
X97200000Y-69040000D02*
X100700000Y-69040000D01*
X100700000Y-69040000D02*
X102780000Y-66960000D01*
X102780000Y-57870000D02*
X101340000Y-53920000D01*
X102780000Y-58500000D02*
X102780000Y-57870000D01*
X102780000Y-66960000D02*
X102780000Y-64500000D01*
X82674757Y-53911831D02*
G75*
G02*
X86000000Y-52950000I2015243J-738169D01*
G01*
X98003354Y-52933470D02*
G75*
G02*
X101340000Y-53920000I1306646J-1716531D01*
G01*
%TO.C,R8*%
X107920000Y-86530000D02*
X114460000Y-86530000D01*
X107920000Y-86860000D02*
X107920000Y-86530000D01*
X107920000Y-88940000D02*
X107920000Y-89270000D01*
X107920000Y-89270000D02*
X114460000Y-89270000D01*
X114460000Y-86530000D02*
X114460000Y-86860000D01*
X114460000Y-89270000D02*
X114460000Y-88940000D01*
%TO.C,Q6*%
X97250000Y-84200000D02*
X101100000Y-84200000D01*
X97250000Y-84200000D02*
G75*
G02*
X101138611Y-84190122I1940000J1700000D01*
G01*
%TO.C,Q5*%
X94550000Y-78150000D02*
X98400000Y-78150000D01*
X94550000Y-78150000D02*
G75*
G02*
X98438611Y-78140122I1940000J1700000D01*
G01*
%TO.C,J1*%
X116690000Y-84860000D02*
X116690000Y-54380000D01*
X116690000Y-84860000D02*
X124310000Y-84860000D01*
X123040000Y-84860000D02*
X123040000Y-54380000D01*
X124310000Y-54380000D02*
X116690000Y-54380000D01*
X124310000Y-84860000D02*
X124310000Y-54380000D01*
%TO.C,R4*%
X96040000Y-85630000D02*
X102580000Y-85630000D01*
X96040000Y-85960000D02*
X96040000Y-85630000D01*
X96040000Y-88040000D02*
X96040000Y-88370000D01*
X96040000Y-88370000D02*
X102580000Y-88370000D01*
X102580000Y-85630000D02*
X102580000Y-85960000D01*
X102580000Y-88370000D02*
X102580000Y-88040000D01*
%TO.C,R2*%
X86230000Y-89130000D02*
X92770000Y-89130000D01*
X86230000Y-89460000D02*
X86230000Y-89130000D01*
X86230000Y-91540000D02*
X86230000Y-91870000D01*
X86230000Y-91870000D02*
X92770000Y-91870000D01*
X92770000Y-89130000D02*
X92770000Y-89460000D01*
X92770000Y-91870000D02*
X92770000Y-91540000D01*
%TO.C,Q2*%
X83510000Y-78150000D02*
X87360000Y-78150000D01*
X83510000Y-78150000D02*
G75*
G02*
X87398611Y-78140122I1940000J1700000D01*
G01*
%TO.C,Q3*%
X89050000Y-78150000D02*
X92900000Y-78150000D01*
X89050000Y-78150000D02*
G75*
G02*
X92938611Y-78140122I1940000J1700000D01*
G01*
%TO.C,R1*%
X81630000Y-80230000D02*
X81960000Y-80230000D01*
X81630000Y-86770000D02*
X81630000Y-80230000D01*
X81960000Y-86770000D02*
X81630000Y-86770000D01*
X84040000Y-86770000D02*
X84370000Y-86770000D01*
X84370000Y-80230000D02*
X84040000Y-80230000D01*
X84370000Y-86770000D02*
X84370000Y-80230000D01*
%TO.C,Q4*%
X91710000Y-84200000D02*
X95560000Y-84200000D01*
X91710000Y-84200000D02*
G75*
G02*
X95598611Y-84190122I1940000J1700000D01*
G01*
%TO.C,R6*%
X107920000Y-94630000D02*
X114460000Y-94630000D01*
X107920000Y-94960000D02*
X107920000Y-94630000D01*
X107920000Y-97040000D02*
X107920000Y-97370000D01*
X107920000Y-97370000D02*
X114460000Y-97370000D01*
X114460000Y-94630000D02*
X114460000Y-94960000D01*
X114460000Y-97370000D02*
X114460000Y-97040000D01*
%TO.C,Q7*%
X101210000Y-94700000D02*
X105060000Y-94700000D01*
X101210000Y-94700000D02*
G75*
G02*
X105098611Y-94690122I1940000J1700000D01*
G01*
%TO.C,RV1*%
X104820000Y-56620000D02*
X104820000Y-63460000D01*
X104820000Y-56620000D02*
X107850000Y-56620000D01*
X104820000Y-63460000D02*
X107850000Y-63460000D01*
X109150000Y-56620000D02*
X112060000Y-56620000D01*
X109150000Y-63460000D02*
X112060000Y-63460000D01*
X112060000Y-56620000D02*
X112060000Y-63460000D01*
%TD*%
M02*
