M48
; DRILL file {KiCad 8.0.9-1.fc41} date 2025-05-30T14:30:15-0500
; FORMAT={-:-/ absolute / inch / decimal}
; #@! TF.CreationDate,2025-05-30T14:30:15-05:00
; #@! TF.GenerationSoftware,Kicad,Pcbnew,8.0.9-1.fc41
; #@! TF.FileFunction,Plated,1,2,PTH
FMAT,2
INCH
; #@! TA.AperFunction,Plated,PTH,ViaDrill
T1C0.0118
; #@! TA.AperFunction,Plated,PTH,ComponentDrill
T2C0.0295
; #@! TA.AperFunction,Plated,PTH,ComponentDrill
T3C0.0315
; #@! TA.AperFunction,Plated,PTH,ComponentDrill
T4C0.0598
%
G90
G05
T1
X3.1896Y-2.5591
X4.0557Y-2.5591
T2
X3.3173Y-3.0098
X3.3673Y-3.0098
X3.4173Y-3.0098
X3.4236Y-3.248
X3.4736Y-3.248
X3.5236Y-3.248
X3.5354Y-3.0098
X3.5854Y-3.0098
X3.6354Y-3.0098
X3.6402Y-3.248
X3.6902Y-3.248
X3.7402Y-3.248
X3.752Y-3.0098
X3.7976Y-3.6614
X3.802Y-3.0098
X3.8476Y-3.6614
X3.852Y-3.0098
X3.8583Y-3.248
X3.8976Y-3.6614
X3.9083Y-3.248
X3.9583Y-3.248
X4.0142Y-3.6614
X4.0642Y-3.6614
X4.1142Y-3.6614
X4.3882Y-3.0118
X4.4382Y-3.0118
X4.4882Y-3.0118
T3
X3.2677Y-3.1374
X3.2677Y-3.4374
X3.3736Y-3.4252
X3.3736Y-3.563
X3.6736Y-3.4252
X3.6736Y-3.563
X3.7598Y-3.4252
X3.9642Y-2.9724
X4.0598Y-3.4252
X4.0748Y-3.189
X4.0748Y-3.2874
X4.2276Y-3.4606
X4.2276Y-3.622
X4.2276Y-3.7795
X4.2642Y-2.9724
X4.2717Y-2.2638
X4.2717Y-2.4638
X4.2717Y-2.6635
X4.2717Y-2.8013
X4.3717Y-2.3638
X4.4748Y-3.189
X4.4748Y-3.2874
X4.5276Y-3.4606
X4.5276Y-3.622
X4.5276Y-3.7795
T4
X4.7441Y-2.2409
X4.7441Y-2.4409
X4.7441Y-2.6409
X4.7441Y-2.8409
X4.7441Y-3.0409
X4.7441Y-3.2409
M30
