%TF.GenerationSoftware,KiCad,Pcbnew,8.0.9-1.fc41*%
%TF.CreationDate,2025-05-30T14:30:08-05:00*%
%TF.ProjectId,transistor-amp,7472616e-7369-4737-946f-722d616d702e,rev?*%
%TF.SameCoordinates,Original*%
%TF.FileFunction,Legend,Bot*%
%TF.FilePolarity,Positive*%
%FSLAX46Y46*%
G04 Gerber Fmt 4.6, Leading zero omitted, Abs format (unit mm)*
G04 Created by KiCad (PCBNEW 8.0.9-1.fc41) date 2025-05-30 14:30:08*
%MOMM*%
%LPD*%
G01*
G04 APERTURE LIST*
%ADD10C,0.150000*%
%ADD11C,0.120000*%
G04 APERTURE END LIST*
D10*
X84285714Y-69931009D02*
X84142857Y-69978628D01*
X84142857Y-69978628D02*
X84095238Y-70026247D01*
X84095238Y-70026247D02*
X84047619Y-70121485D01*
X84047619Y-70121485D02*
X84047619Y-70264342D01*
X84047619Y-70264342D02*
X84095238Y-70359580D01*
X84095238Y-70359580D02*
X84142857Y-70407200D01*
X84142857Y-70407200D02*
X84238095Y-70454819D01*
X84238095Y-70454819D02*
X84619047Y-70454819D01*
X84619047Y-70454819D02*
X84619047Y-69454819D01*
X84619047Y-69454819D02*
X84285714Y-69454819D01*
X84285714Y-69454819D02*
X84190476Y-69502438D01*
X84190476Y-69502438D02*
X84142857Y-69550057D01*
X84142857Y-69550057D02*
X84095238Y-69645295D01*
X84095238Y-69645295D02*
X84095238Y-69740533D01*
X84095238Y-69740533D02*
X84142857Y-69835771D01*
X84142857Y-69835771D02*
X84190476Y-69883390D01*
X84190476Y-69883390D02*
X84285714Y-69931009D01*
X84285714Y-69931009D02*
X84619047Y-69931009D01*
X83761904Y-69454819D02*
X83190476Y-69454819D01*
X83476190Y-70454819D02*
X83476190Y-69454819D01*
X82904761Y-69550057D02*
X82857142Y-69502438D01*
X82857142Y-69502438D02*
X82761904Y-69454819D01*
X82761904Y-69454819D02*
X82523809Y-69454819D01*
X82523809Y-69454819D02*
X82428571Y-69502438D01*
X82428571Y-69502438D02*
X82380952Y-69550057D01*
X82380952Y-69550057D02*
X82333333Y-69645295D01*
X82333333Y-69645295D02*
X82333333Y-69740533D01*
X82333333Y-69740533D02*
X82380952Y-69883390D01*
X82380952Y-69883390D02*
X82952380Y-70454819D01*
X82952380Y-70454819D02*
X82333333Y-70454819D01*
D11*
%TO.C,BT2*%
X81235000Y-57870000D02*
X81235000Y-58500000D01*
X81235000Y-64500000D02*
X81235000Y-66960000D01*
X81235000Y-66960000D02*
X83315000Y-69040000D01*
X82675000Y-53920000D02*
X81235000Y-57870000D01*
X83315000Y-69040000D02*
X86815000Y-69040000D01*
X97215000Y-69040000D02*
X100715000Y-69040000D01*
X101355000Y-53920000D02*
X102795000Y-57870000D01*
X102795000Y-57870000D02*
X102795000Y-58500000D01*
X102795000Y-64500000D02*
X102795000Y-66960000D01*
X102795000Y-66960000D02*
X100715000Y-69040000D01*
X82675000Y-53920000D02*
G75*
G02*
X86011646Y-52933470I2030000J-730001D01*
G01*
X98015000Y-52950000D02*
G75*
G02*
X101340243Y-53911831I1310000J-1700000D01*
G01*
%TD*%
M02*
