%TF.GenerationSoftware,KiCad,Pcbnew,8.0.9-1.fc41*%
%TF.CreationDate,2025-05-30T14:30:08-05:00*%
%TF.ProjectId,transistor-amp,7472616e-7369-4737-946f-722d616d702e,rev?*%
%TF.SameCoordinates,Original*%
%TF.FileFunction,Copper,L1,Top*%
%TF.FilePolarity,Positive*%
%FSLAX46Y46*%
G04 Gerber Fmt 4.6, Leading zero omitted, Abs format (unit mm)*
G04 Created by KiCad (PCBNEW 8.0.9-1.fc41) date 2025-05-30 14:30:08*
%MOMM*%
%LPD*%
G01*
G04 APERTURE LIST*
%TA.AperFunction,ComponentPad*%
%ADD10R,1.050000X1.500000*%
%TD*%
%TA.AperFunction,ComponentPad*%
%ADD11O,1.050000X1.500000*%
%TD*%
%TA.AperFunction,ComponentPad*%
%ADD12R,1.600000X1.600000*%
%TD*%
%TA.AperFunction,ComponentPad*%
%ADD13C,1.600000*%
%TD*%
%TA.AperFunction,ComponentPad*%
%ADD14O,1.600000X1.600000*%
%TD*%
%TA.AperFunction,SMDPad,CuDef*%
%ADD15R,1.270000X5.080000*%
%TD*%
%TA.AperFunction,SMDPad,CuDef*%
%ADD16C,17.800000*%
%TD*%
%TA.AperFunction,ComponentPad*%
%ADD17R,3.000000X3.000000*%
%TD*%
%TA.AperFunction,ComponentPad*%
%ADD18C,3.000000*%
%TD*%
%TA.AperFunction,ComponentPad*%
%ADD19C,1.440000*%
%TD*%
%TA.AperFunction,ViaPad*%
%ADD20C,0.600000*%
%TD*%
%TA.AperFunction,Conductor*%
%ADD21C,0.200000*%
%TD*%
G04 APERTURE END LIST*
D10*
%TO.P,Q8,1,C*%
%TO.N,VCC*%
X96460000Y-93000000D03*
D11*
%TO.P,Q8,2,B*%
%TO.N,Net-(D1-A)*%
X97730000Y-93000000D03*
%TO.P,Q8,3,E*%
%TO.N,/FEEDBACK*%
X99000000Y-93000000D03*
%TD*%
D12*
%TO.P,C1,1*%
%TO.N,/FEEDBACK*%
X108500000Y-71152651D03*
D13*
%TO.P,C1,2*%
%TO.N,/OUTPUT*%
X108500000Y-67652651D03*
%TD*%
D10*
%TO.P,Q9,1,C*%
%TO.N,/FEEDBACK*%
X111460000Y-76500000D03*
D11*
%TO.P,Q9,2,B*%
%TO.N,Net-(Q7-E)*%
X112730000Y-76500000D03*
%TO.P,Q9,3,E*%
%TO.N,GND*%
X114000000Y-76500000D03*
%TD*%
D13*
%TO.P,R3,1*%
%TO.N,Net-(Q1-C)*%
X85690000Y-87000000D03*
D14*
%TO.P,R3,2*%
%TO.N,Net-(Q4-C)*%
X93310000Y-87000000D03*
%TD*%
D10*
%TO.P,Q1,1,C*%
%TO.N,Net-(Q1-C)*%
X86960000Y-82500000D03*
D11*
%TO.P,Q1,2,B*%
%TO.N,Net-(Q1-B)*%
X88230000Y-82500000D03*
%TO.P,Q1,3,E*%
%TO.N,Net-(Q1-E)*%
X89500000Y-82500000D03*
%TD*%
D12*
%TO.P,D2,1,K*%
%TO.N,Net-(D2-K)*%
X103500000Y-81000000D03*
D14*
%TO.P,D2,2,A*%
%TO.N,Net-(D1-K)*%
X113660000Y-81000000D03*
%TD*%
D13*
%TO.P,R5,1*%
%TO.N,/INPUT*%
X100690000Y-75500000D03*
D14*
%TO.P,R5,2*%
%TO.N,GND*%
X108310000Y-75500000D03*
%TD*%
D12*
%TO.P,D1,1,K*%
%TO.N,Net-(D1-K)*%
X113660000Y-83500000D03*
D14*
%TO.P,D1,2,A*%
%TO.N,Net-(D1-A)*%
X103500000Y-83500000D03*
%TD*%
D13*
%TO.P,R7,1*%
%TO.N,Net-(R6-Pad2)*%
X115000000Y-92000000D03*
D14*
%TO.P,R7,2*%
%TO.N,Net-(R7-Pad2)*%
X107380000Y-92000000D03*
%TD*%
D15*
%TO.P,BT1,1,+*%
%TO.N,VCC*%
X102985000Y-61500000D03*
X81015000Y-61500000D03*
D16*
%TO.P,BT1,2,-*%
%TO.N,Net-(BT1--)*%
X92000000Y-61500000D03*
%TD*%
D13*
%TO.P,R8,1*%
%TO.N,Net-(R7-Pad2)*%
X107380000Y-87900000D03*
D14*
%TO.P,R8,2*%
%TO.N,Net-(D1-A)*%
X115000000Y-87900000D03*
%TD*%
D10*
%TO.P,Q6,1,C*%
%TO.N,Net-(D2-K)*%
X98000000Y-82500000D03*
D11*
%TO.P,Q6,2,B*%
%TO.N,Net-(Q3-C)*%
X99270000Y-82500000D03*
%TO.P,Q6,3,E*%
%TO.N,GND*%
X100540000Y-82500000D03*
%TD*%
D10*
%TO.P,Q5,1,C*%
%TO.N,Net-(Q4-B)*%
X95300000Y-76450000D03*
D11*
%TO.P,Q5,2,B*%
%TO.N,/INPUT*%
X96570000Y-76450000D03*
%TO.P,Q5,3,E*%
%TO.N,GND*%
X97840000Y-76450000D03*
%TD*%
D17*
%TO.P,J1,1,Pin_1*%
%TO.N,Net-(J1-Pin_1)*%
X120500000Y-82320000D03*
D18*
%TO.P,J1,2,Pin_2*%
%TO.N,GND*%
X120500000Y-77240000D03*
%TO.P,J1,3,Pin_3*%
%TO.N,/OUTPUT*%
X120500000Y-72160000D03*
%TO.P,J1,4,Pin_4*%
%TO.N,GND*%
X120500000Y-67080000D03*
%TO.P,J1,5,Pin_5*%
%TO.N,VCC*%
X120500000Y-62000000D03*
%TO.P,J1,6,Pin_6*%
%TO.N,GND*%
X120500000Y-56920000D03*
%TD*%
D13*
%TO.P,R4,1*%
%TO.N,Net-(Q4-C)*%
X95500000Y-87000000D03*
D14*
%TO.P,R4,2*%
%TO.N,/FEEDBACK*%
X103120000Y-87000000D03*
%TD*%
D13*
%TO.P,R2,1*%
%TO.N,Net-(Q1-C)*%
X85690000Y-90500000D03*
D14*
%TO.P,R2,2*%
%TO.N,VCC*%
X93310000Y-90500000D03*
%TD*%
D10*
%TO.P,Q2,1,C*%
%TO.N,Net-(Q1-E)*%
X84260000Y-76450000D03*
D11*
%TO.P,Q2,2,B*%
X85530000Y-76450000D03*
%TO.P,Q2,3,E*%
%TO.N,GND*%
X86800000Y-76450000D03*
%TD*%
D10*
%TO.P,Q3,1,C*%
%TO.N,Net-(Q3-C)*%
X89800000Y-76450000D03*
D11*
%TO.P,Q3,2,B*%
%TO.N,Net-(Q1-E)*%
X91070000Y-76450000D03*
%TO.P,Q3,3,E*%
%TO.N,GND*%
X92340000Y-76450000D03*
%TD*%
D13*
%TO.P,R1,1*%
%TO.N,Net-(Q1-B)*%
X83000000Y-87310000D03*
D14*
%TO.P,R1,2*%
%TO.N,GND*%
X83000000Y-79690000D03*
%TD*%
D10*
%TO.P,Q4,1,C*%
%TO.N,Net-(Q4-C)*%
X92460000Y-82500000D03*
D11*
%TO.P,Q4,2,B*%
%TO.N,Net-(Q4-B)*%
X93730000Y-82500000D03*
%TO.P,Q4,3,E*%
%TO.N,Net-(Q3-C)*%
X95000000Y-82500000D03*
%TD*%
D13*
%TO.P,R6,1*%
%TO.N,VCC*%
X107380000Y-96000000D03*
D14*
%TO.P,R6,2*%
%TO.N,Net-(R6-Pad2)*%
X115000000Y-96000000D03*
%TD*%
D10*
%TO.P,Q7,1,C*%
%TO.N,/FEEDBACK*%
X101960000Y-93000000D03*
D11*
%TO.P,Q7,2,B*%
%TO.N,Net-(D2-K)*%
X103230000Y-93000000D03*
%TO.P,Q7,3,E*%
%TO.N,Net-(Q7-E)*%
X104500000Y-93000000D03*
%TD*%
D19*
%TO.P,RV1,1,1*%
%TO.N,Net-(J1-Pin_1)*%
X108500000Y-62580000D03*
%TO.P,RV1,2,2*%
%TO.N,/INPUT*%
X111040000Y-60040000D03*
%TO.P,RV1,3,3*%
%TO.N,GND*%
X108500000Y-57500000D03*
%TD*%
D20*
%TO.N,Net-(BT1--)*%
X81015000Y-65000000D03*
X103015000Y-65000000D03*
%TD*%
D21*
%TO.N,VCC*%
X102985000Y-57515000D02*
X107000000Y-53500000D01*
X86500000Y-51000000D02*
X81015000Y-56485000D01*
X96460000Y-93225000D02*
X99235000Y-96000000D01*
X95810000Y-93000000D02*
X93310000Y-90500000D01*
X102985000Y-61500000D02*
X102985000Y-57515000D01*
X81015000Y-56485000D02*
X81015000Y-61500000D01*
X96460000Y-93000000D02*
X96460000Y-93225000D01*
X102985000Y-57485000D02*
X96500000Y-51000000D01*
X112000000Y-53500000D02*
X120500000Y-62000000D01*
X107000000Y-53500000D02*
X112000000Y-53500000D01*
X96460000Y-93000000D02*
X95810000Y-93000000D01*
X96500000Y-51000000D02*
X86500000Y-51000000D01*
X99235000Y-96000000D02*
X107380000Y-96000000D01*
X102985000Y-61500000D02*
X102985000Y-57485000D01*
%TO.N,Net-(BT1--)*%
X95500000Y-65000000D02*
X92000000Y-61500000D01*
X103015000Y-65000000D02*
X95500000Y-65000000D01*
X81015000Y-65000000D02*
X88500000Y-65000000D01*
X88500000Y-65000000D02*
X92000000Y-61500000D01*
%TO.N,/FEEDBACK*%
X103120000Y-88380000D02*
X101960000Y-89540000D01*
X108500000Y-71152651D02*
X108500000Y-73540000D01*
X108500000Y-73540000D02*
X111460000Y-76500000D01*
X103120000Y-87000000D02*
X103120000Y-88380000D01*
X111460000Y-78660000D02*
X103120000Y-87000000D01*
X111460000Y-76500000D02*
X111460000Y-78660000D01*
X101960000Y-93000000D02*
X99000000Y-93000000D01*
X101960000Y-89540000D02*
X101960000Y-93000000D01*
%TO.N,/OUTPUT*%
X115992651Y-67652651D02*
X120500000Y-72160000D01*
X108500000Y-67652651D02*
X115992651Y-67652651D01*
%TO.N,Net-(D1-A)*%
X97730000Y-89270000D02*
X103500000Y-83500000D01*
X97730000Y-93000000D02*
X97730000Y-89270000D01*
%TO.N,Net-(D1-K)*%
X113660000Y-81000000D02*
X113660000Y-83500000D01*
%TO.N,Net-(J1-Pin_1)*%
X107000000Y-64000000D02*
X107500000Y-63500000D01*
X120500000Y-82320000D02*
X120500000Y-80620000D01*
X109380000Y-69500000D02*
X108000000Y-69500000D01*
X107500000Y-63500000D02*
X107580000Y-63500000D01*
X120500000Y-80620000D02*
X109380000Y-69500000D01*
X108000000Y-69500000D02*
X107000000Y-68500000D01*
X107000000Y-68500000D02*
X107000000Y-64000000D01*
X107580000Y-63500000D02*
X108500000Y-62580000D01*
%TO.N,/INPUT*%
X108460000Y-60040000D02*
X106000000Y-62500000D01*
X96570000Y-76450000D02*
X96570000Y-76225000D01*
X104000000Y-75500000D02*
X100690000Y-75500000D01*
X96570000Y-76225000D02*
X97395000Y-75400000D01*
X111040000Y-60040000D02*
X108460000Y-60040000D01*
X97395000Y-75400000D02*
X100590000Y-75400000D01*
X106000000Y-73500000D02*
X104000000Y-75500000D01*
X100590000Y-75400000D02*
X100690000Y-75500000D01*
X106000000Y-62500000D02*
X106000000Y-73500000D01*
%TO.N,Net-(D2-K)*%
X103500000Y-81000000D02*
X99275000Y-81000000D01*
X99275000Y-81000000D02*
X98000000Y-82275000D01*
X98000000Y-82275000D02*
X98000000Y-82500000D01*
%TO.N,Net-(Q3-C)*%
X96050000Y-83550000D02*
X95000000Y-82500000D01*
X89940000Y-76450000D02*
X89940000Y-76675000D01*
X95380000Y-81965000D02*
X95380000Y-82500000D01*
X89800000Y-77075000D02*
X89800000Y-76450000D01*
X99270000Y-82500000D02*
X99270000Y-83105000D01*
X95000000Y-82275000D02*
X89800000Y-77075000D01*
X95000000Y-82500000D02*
X95000000Y-82275000D01*
X98825000Y-83550000D02*
X96050000Y-83550000D01*
X99270000Y-83105000D02*
X98825000Y-83550000D01*
%TO.N,Net-(Q1-B)*%
X88230000Y-83450000D02*
X86680000Y-85000000D01*
X86680000Y-85000000D02*
X85310000Y-85000000D01*
X88230000Y-82500000D02*
X88230000Y-83450000D01*
X85310000Y-85000000D02*
X83000000Y-87310000D01*
%TO.N,Net-(Q1-E)*%
X91210000Y-76450000D02*
X91210000Y-76020000D01*
X91070000Y-75845000D02*
X90625000Y-75400000D01*
X84260000Y-77035000D02*
X84260000Y-76450000D01*
X89880000Y-82305000D02*
X89880000Y-82500000D01*
X89500000Y-82275000D02*
X84260000Y-77035000D01*
X85370000Y-76328274D02*
X85370000Y-76450000D01*
X90625000Y-75400000D02*
X86355000Y-75400000D01*
X84260000Y-76450000D02*
X85530000Y-76450000D01*
X91070000Y-76450000D02*
X91070000Y-75845000D01*
X86355000Y-75400000D02*
X85530000Y-76225000D01*
X89500000Y-82500000D02*
X89500000Y-82275000D01*
X84100000Y-76450000D02*
X84100000Y-76675000D01*
X85530000Y-76225000D02*
X85530000Y-76450000D01*
%TO.N,Net-(Q4-C)*%
X92460000Y-82500000D02*
X92460000Y-86150000D01*
X93310000Y-87000000D02*
X95500000Y-87000000D01*
X92460000Y-86150000D02*
X93310000Y-87000000D01*
%TO.N,Net-(R6-Pad2)*%
X115000000Y-96000000D02*
X115000000Y-92000000D01*
%TO.N,Net-(R7-Pad2)*%
X107380000Y-92000000D02*
X107380000Y-87900000D01*
%TD*%
%TA.AperFunction,Conductor*%
%TO.N,GND*%
G36*
X110005702Y-70975383D02*
G01*
X110012180Y-70981415D01*
X114213681Y-75182916D01*
X114247166Y-75244239D01*
X114250000Y-75270597D01*
X114250000Y-76219670D01*
X114230255Y-76199925D01*
X114144745Y-76150556D01*
X114049370Y-76125000D01*
X113950630Y-76125000D01*
X113855255Y-76150556D01*
X113769745Y-76199925D01*
X113755500Y-76214170D01*
X113755500Y-76173996D01*
X113755499Y-76173995D01*
X113752383Y-76158326D01*
X113750000Y-76134134D01*
X113750000Y-75279646D01*
X113749999Y-75279645D01*
X113701022Y-75289388D01*
X113701015Y-75289390D01*
X113514481Y-75366654D01*
X113514479Y-75366655D01*
X113434337Y-75420204D01*
X113367660Y-75441081D01*
X113300280Y-75422596D01*
X113296558Y-75420204D01*
X113215754Y-75366212D01*
X113029127Y-75288909D01*
X113029119Y-75288907D01*
X112831007Y-75249500D01*
X112831003Y-75249500D01*
X112628997Y-75249500D01*
X112628992Y-75249500D01*
X112430880Y-75288907D01*
X112430868Y-75288910D01*
X112350198Y-75322325D01*
X112280729Y-75329794D01*
X112235342Y-75310036D01*
X112235114Y-75310454D01*
X112230447Y-75307905D01*
X112228432Y-75307028D01*
X112227331Y-75306204D01*
X112227330Y-75306203D01*
X112227328Y-75306202D01*
X112092482Y-75255908D01*
X112092483Y-75255908D01*
X112032883Y-75249501D01*
X112032881Y-75249500D01*
X112032873Y-75249500D01*
X112032865Y-75249500D01*
X111110097Y-75249500D01*
X111043058Y-75229815D01*
X111022416Y-75213181D01*
X109136819Y-73327584D01*
X109103334Y-73266261D01*
X109100500Y-73239903D01*
X109100500Y-72577150D01*
X109120185Y-72510111D01*
X109172989Y-72464356D01*
X109224500Y-72453150D01*
X109347871Y-72453150D01*
X109347872Y-72453150D01*
X109407483Y-72446742D01*
X109542331Y-72396447D01*
X109657546Y-72310197D01*
X109743796Y-72194982D01*
X109794091Y-72060134D01*
X109800500Y-72000524D01*
X109800499Y-71069095D01*
X109820183Y-71002057D01*
X109872987Y-70956302D01*
X109942146Y-70946358D01*
X110005702Y-70975383D01*
G37*
%TD.AperFunction*%
%TA.AperFunction,Conductor*%
G36*
X125942539Y-49520185D02*
G01*
X125988294Y-49572989D01*
X125999500Y-49624500D01*
X125999500Y-98875500D01*
X125979815Y-98942539D01*
X125927011Y-98988294D01*
X125875500Y-98999500D01*
X79624500Y-98999500D01*
X79557461Y-98979815D01*
X79511706Y-98927011D01*
X79500500Y-98875500D01*
X79500500Y-90499998D01*
X84384532Y-90499998D01*
X84384532Y-90500001D01*
X84404364Y-90726686D01*
X84404366Y-90726697D01*
X84463258Y-90946488D01*
X84463261Y-90946497D01*
X84559431Y-91152732D01*
X84559432Y-91152734D01*
X84689954Y-91339141D01*
X84850858Y-91500045D01*
X84850861Y-91500047D01*
X85037266Y-91630568D01*
X85243504Y-91726739D01*
X85463308Y-91785635D01*
X85625230Y-91799801D01*
X85689998Y-91805468D01*
X85690000Y-91805468D01*
X85690002Y-91805468D01*
X85754397Y-91799834D01*
X85916692Y-91785635D01*
X86136496Y-91726739D01*
X86342734Y-91630568D01*
X86529139Y-91500047D01*
X86690047Y-91339139D01*
X86820568Y-91152734D01*
X86916739Y-90946496D01*
X86975635Y-90726692D01*
X86995468Y-90500000D01*
X86975635Y-90273308D01*
X86916739Y-90053504D01*
X86820568Y-89847266D01*
X86690047Y-89660861D01*
X86690045Y-89660858D01*
X86529141Y-89499954D01*
X86342734Y-89369432D01*
X86342732Y-89369431D01*
X86136497Y-89273261D01*
X86136488Y-89273258D01*
X85916697Y-89214366D01*
X85916693Y-89214365D01*
X85916692Y-89214365D01*
X85916691Y-89214364D01*
X85916686Y-89214364D01*
X85690002Y-89194532D01*
X85689998Y-89194532D01*
X85463313Y-89214364D01*
X85463302Y-89214366D01*
X85243511Y-89273258D01*
X85243502Y-89273261D01*
X85037267Y-89369431D01*
X85037265Y-89369432D01*
X84850858Y-89499954D01*
X84689954Y-89660858D01*
X84559432Y-89847265D01*
X84559431Y-89847267D01*
X84463261Y-90053502D01*
X84463258Y-90053511D01*
X84404366Y-90273302D01*
X84404364Y-90273313D01*
X84384532Y-90499998D01*
X79500500Y-90499998D01*
X79500500Y-87309998D01*
X81694532Y-87309998D01*
X81694532Y-87310001D01*
X81714364Y-87536686D01*
X81714366Y-87536697D01*
X81773258Y-87756488D01*
X81773261Y-87756497D01*
X81869431Y-87962732D01*
X81869432Y-87962734D01*
X81999954Y-88149141D01*
X82160858Y-88310045D01*
X82160861Y-88310047D01*
X82347266Y-88440568D01*
X82553504Y-88536739D01*
X82773308Y-88595635D01*
X82935230Y-88609801D01*
X82999998Y-88615468D01*
X83000000Y-88615468D01*
X83000002Y-88615468D01*
X83056673Y-88610509D01*
X83226692Y-88595635D01*
X83446496Y-88536739D01*
X83652734Y-88440568D01*
X83839139Y-88310047D01*
X84000047Y-88149139D01*
X84130568Y-87962734D01*
X84226739Y-87756496D01*
X84277628Y-87566574D01*
X84313992Y-87506916D01*
X84376838Y-87476386D01*
X84446214Y-87484680D01*
X84500092Y-87529165D01*
X84509784Y-87546264D01*
X84559431Y-87652732D01*
X84559432Y-87652734D01*
X84689954Y-87839141D01*
X84850858Y-88000045D01*
X84850861Y-88000047D01*
X85037266Y-88130568D01*
X85243504Y-88226739D01*
X85463308Y-88285635D01*
X85625230Y-88299801D01*
X85689998Y-88305468D01*
X85690000Y-88305468D01*
X85690002Y-88305468D01*
X85746673Y-88300509D01*
X85916692Y-88285635D01*
X86136496Y-88226739D01*
X86342734Y-88130568D01*
X86529139Y-88000047D01*
X86690047Y-87839139D01*
X86820568Y-87652734D01*
X86916739Y-87446496D01*
X86975635Y-87226692D01*
X86995468Y-87000000D01*
X86975635Y-86773308D01*
X86916739Y-86553504D01*
X86820568Y-86347266D01*
X86692181Y-86163908D01*
X86690045Y-86160858D01*
X86529141Y-85999954D01*
X86342734Y-85869432D01*
X86342732Y-85869431D01*
X86331644Y-85864260D01*
X86272929Y-85836881D01*
X86220491Y-85790710D01*
X86201339Y-85723516D01*
X86221555Y-85656635D01*
X86274720Y-85611300D01*
X86325335Y-85600500D01*
X86593331Y-85600500D01*
X86593347Y-85600501D01*
X86600943Y-85600501D01*
X86759054Y-85600501D01*
X86759057Y-85600501D01*
X86911785Y-85559577D01*
X86961904Y-85530639D01*
X87048716Y-85480520D01*
X87160520Y-85368716D01*
X87160520Y-85368714D01*
X87170728Y-85358507D01*
X87170730Y-85358504D01*
X88588506Y-83940728D01*
X88588511Y-83940724D01*
X88598714Y-83930520D01*
X88598716Y-83930520D01*
X88710520Y-83818716D01*
X88782642Y-83693796D01*
X88789577Y-83681785D01*
X88789813Y-83680902D01*
X88790217Y-83680238D01*
X88792687Y-83674278D01*
X88793616Y-83674662D01*
X88826173Y-83621242D01*
X88889018Y-83590709D01*
X88958394Y-83599000D01*
X88978478Y-83609888D01*
X89014244Y-83633786D01*
X89014245Y-83633786D01*
X89014246Y-83633787D01*
X89054962Y-83650652D01*
X89200873Y-83711091D01*
X89366777Y-83744091D01*
X89398992Y-83750499D01*
X89398996Y-83750500D01*
X89398997Y-83750500D01*
X89601004Y-83750500D01*
X89601005Y-83750499D01*
X89799127Y-83711091D01*
X89985756Y-83633786D01*
X89986424Y-83633340D01*
X90153718Y-83521558D01*
X90296558Y-83378718D01*
X90408782Y-83210762D01*
X90408782Y-83210761D01*
X90408786Y-83210756D01*
X90486091Y-83024127D01*
X90525500Y-82826003D01*
X90525500Y-82173997D01*
X90486091Y-81975873D01*
X90408786Y-81789244D01*
X90408784Y-81789241D01*
X90408782Y-81789237D01*
X90296558Y-81621281D01*
X90153718Y-81478441D01*
X89985762Y-81366217D01*
X89985752Y-81366212D01*
X89799127Y-81288909D01*
X89799119Y-81288907D01*
X89601007Y-81249500D01*
X89601003Y-81249500D01*
X89398997Y-81249500D01*
X89392935Y-81250097D01*
X89392757Y-81248299D01*
X89331632Y-81242827D01*
X89289355Y-81215120D01*
X85894023Y-77819788D01*
X85860538Y-77758465D01*
X85865522Y-77688773D01*
X85907394Y-77632840D01*
X85934249Y-77617547D01*
X86015756Y-77583786D01*
X86096562Y-77529792D01*
X86163234Y-77508917D01*
X86230614Y-77527401D01*
X86234340Y-77529795D01*
X86314479Y-77583343D01*
X86314486Y-77583347D01*
X86501016Y-77660609D01*
X86501025Y-77660612D01*
X86550000Y-77670353D01*
X86550000Y-76815865D01*
X86552383Y-76791671D01*
X86554930Y-76778871D01*
X86555500Y-76776003D01*
X86555500Y-76735830D01*
X86569745Y-76750075D01*
X86655255Y-76799444D01*
X86750630Y-76825000D01*
X86849370Y-76825000D01*
X86944745Y-76799444D01*
X87030255Y-76750075D01*
X87050000Y-76730330D01*
X87050000Y-77670352D01*
X87098974Y-77660612D01*
X87098983Y-77660609D01*
X87285513Y-77583347D01*
X87285526Y-77583340D01*
X87453399Y-77471170D01*
X87453403Y-77471167D01*
X87596167Y-77328403D01*
X87596170Y-77328399D01*
X87708340Y-77160526D01*
X87708347Y-77160513D01*
X87785609Y-76973983D01*
X87785612Y-76973974D01*
X87824999Y-76775958D01*
X87825000Y-76775955D01*
X87825000Y-76700000D01*
X87080330Y-76700000D01*
X87100075Y-76680255D01*
X87149444Y-76594745D01*
X87175000Y-76499370D01*
X87175000Y-76400630D01*
X87149444Y-76305255D01*
X87100075Y-76219745D01*
X87080330Y-76200000D01*
X87825000Y-76200000D01*
X87825000Y-76124500D01*
X87844685Y-76057461D01*
X87897489Y-76011706D01*
X87949000Y-76000500D01*
X88650500Y-76000500D01*
X88717539Y-76020185D01*
X88763294Y-76072989D01*
X88774500Y-76124500D01*
X88774500Y-77247870D01*
X88774501Y-77247876D01*
X88780908Y-77307483D01*
X88831202Y-77442328D01*
X88831206Y-77442335D01*
X88917452Y-77557544D01*
X88917455Y-77557547D01*
X89032664Y-77643793D01*
X89032671Y-77643797D01*
X89051051Y-77650652D01*
X89167517Y-77694091D01*
X89227127Y-77700500D01*
X89524902Y-77700499D01*
X89591941Y-77720183D01*
X89612583Y-77736818D01*
X92913583Y-81037819D01*
X92947068Y-81099142D01*
X92942084Y-81168834D01*
X92900212Y-81224767D01*
X92834748Y-81249184D01*
X92825902Y-81249500D01*
X91887129Y-81249500D01*
X91887123Y-81249501D01*
X91827516Y-81255908D01*
X91692671Y-81306202D01*
X91692664Y-81306206D01*
X91577455Y-81392452D01*
X91577452Y-81392455D01*
X91491206Y-81507664D01*
X91491202Y-81507671D01*
X91440908Y-81642517D01*
X91434501Y-81702116D01*
X91434500Y-81702135D01*
X91434500Y-83297870D01*
X91434501Y-83297876D01*
X91440908Y-83357483D01*
X91491202Y-83492328D01*
X91491206Y-83492335D01*
X91577452Y-83607544D01*
X91577455Y-83607547D01*
X91692664Y-83693793D01*
X91692671Y-83693797D01*
X91778833Y-83725933D01*
X91834766Y-83767804D01*
X91859184Y-83833268D01*
X91859500Y-83842115D01*
X91859500Y-86063330D01*
X91859499Y-86063348D01*
X91859499Y-86229054D01*
X91859498Y-86229054D01*
X91900423Y-86381785D01*
X91925929Y-86425961D01*
X91925930Y-86425965D01*
X91925931Y-86425965D01*
X91979479Y-86518714D01*
X91979481Y-86518717D01*
X92018058Y-86557294D01*
X92051543Y-86618617D01*
X92050152Y-86677068D01*
X92024366Y-86773302D01*
X92024364Y-86773313D01*
X92004532Y-86999998D01*
X92004532Y-87000001D01*
X92024364Y-87226686D01*
X92024366Y-87226697D01*
X92083258Y-87446488D01*
X92083261Y-87446497D01*
X92179431Y-87652732D01*
X92179432Y-87652734D01*
X92309954Y-87839141D01*
X92470858Y-88000045D01*
X92470861Y-88000047D01*
X92657266Y-88130568D01*
X92863504Y-88226739D01*
X93083308Y-88285635D01*
X93245230Y-88299801D01*
X93309998Y-88305468D01*
X93310000Y-88305468D01*
X93310002Y-88305468D01*
X93366673Y-88300509D01*
X93536692Y-88285635D01*
X93756496Y-88226739D01*
X93962734Y-88130568D01*
X94149139Y-88000047D01*
X94186454Y-87962732D01*
X94313876Y-87835311D01*
X94314658Y-87836093D01*
X94368171Y-87800484D01*
X94438031Y-87799368D01*
X94496065Y-87835369D01*
X94496124Y-87835311D01*
X94496372Y-87835559D01*
X94497405Y-87836200D01*
X94499951Y-87839138D01*
X94660858Y-88000045D01*
X94660861Y-88000047D01*
X94847266Y-88130568D01*
X95053504Y-88226739D01*
X95273308Y-88285635D01*
X95435230Y-88299801D01*
X95499998Y-88305468D01*
X95500000Y-88305468D01*
X95500002Y-88305468D01*
X95556673Y-88300509D01*
X95726692Y-88285635D01*
X95946496Y-88226739D01*
X96152734Y-88130568D01*
X96339139Y-88000047D01*
X96500047Y-87839139D01*
X96630568Y-87652734D01*
X96726739Y-87446496D01*
X96785635Y-87226692D01*
X96805468Y-87000000D01*
X96785635Y-86773308D01*
X96726739Y-86553504D01*
X96630568Y-86347266D01*
X96502181Y-86163908D01*
X96500045Y-86160858D01*
X96339141Y-85999954D01*
X96152734Y-85869432D01*
X96152732Y-85869431D01*
X95946497Y-85773261D01*
X95946488Y-85773258D01*
X95726697Y-85714366D01*
X95726693Y-85714365D01*
X95726692Y-85714365D01*
X95726691Y-85714364D01*
X95726686Y-85714364D01*
X95500002Y-85694532D01*
X95499998Y-85694532D01*
X95273313Y-85714364D01*
X95273302Y-85714366D01*
X95053511Y-85773258D01*
X95053502Y-85773261D01*
X94847267Y-85869431D01*
X94847265Y-85869432D01*
X94660858Y-85999954D01*
X94496124Y-86164689D01*
X94495343Y-86163908D01*
X94441815Y-86199520D01*
X94371954Y-86200627D01*
X94313937Y-86164627D01*
X94313876Y-86164689D01*
X94313612Y-86164425D01*
X94312585Y-86163788D01*
X94310050Y-86160863D01*
X94149141Y-85999954D01*
X93962734Y-85869432D01*
X93962732Y-85869431D01*
X93756497Y-85773261D01*
X93756488Y-85773258D01*
X93536697Y-85714366D01*
X93536693Y-85714365D01*
X93536692Y-85714365D01*
X93536691Y-85714364D01*
X93536686Y-85714364D01*
X93310002Y-85694532D01*
X93309998Y-85694532D01*
X93195307Y-85704566D01*
X93126807Y-85690799D01*
X93076624Y-85642184D01*
X93060500Y-85581038D01*
X93060500Y-83842115D01*
X93080185Y-83775076D01*
X93132989Y-83729321D01*
X93141167Y-83725933D01*
X93156128Y-83720353D01*
X93227331Y-83693796D01*
X93228430Y-83692972D01*
X93229717Y-83692492D01*
X93235112Y-83689547D01*
X93235535Y-83690322D01*
X93293887Y-83668552D01*
X93350198Y-83677673D01*
X93430873Y-83711091D01*
X93596777Y-83744091D01*
X93628992Y-83750499D01*
X93628996Y-83750500D01*
X93628997Y-83750500D01*
X93831004Y-83750500D01*
X93831005Y-83750499D01*
X94029127Y-83711091D01*
X94215756Y-83633786D01*
X94296110Y-83580094D01*
X94362786Y-83559217D01*
X94430166Y-83577701D01*
X94433865Y-83580078D01*
X94514244Y-83633786D01*
X94514245Y-83633786D01*
X94514246Y-83633787D01*
X94554962Y-83650652D01*
X94700873Y-83711091D01*
X94866777Y-83744091D01*
X94898992Y-83750499D01*
X94898996Y-83750500D01*
X94898997Y-83750500D01*
X95101004Y-83750500D01*
X95101004Y-83750499D01*
X95286443Y-83713614D01*
X95356034Y-83719841D01*
X95398315Y-83747550D01*
X95565139Y-83914374D01*
X95565149Y-83914385D01*
X95569479Y-83918715D01*
X95569480Y-83918716D01*
X95681284Y-84030520D01*
X95681286Y-84030521D01*
X95681290Y-84030524D01*
X95731610Y-84059576D01*
X95731615Y-84059578D01*
X95818209Y-84109574D01*
X95818210Y-84109574D01*
X95818215Y-84109577D01*
X95970942Y-84150500D01*
X95970943Y-84150500D01*
X98738331Y-84150500D01*
X98738347Y-84150501D01*
X98745943Y-84150501D01*
X98904054Y-84150501D01*
X98904057Y-84150501D01*
X99056785Y-84109577D01*
X99143387Y-84059577D01*
X99193716Y-84030520D01*
X99305520Y-83918716D01*
X99305520Y-83918714D01*
X99315724Y-83908511D01*
X99315728Y-83908506D01*
X99472646Y-83751587D01*
X99533967Y-83718104D01*
X99536057Y-83717668D01*
X99569127Y-83711091D01*
X99755756Y-83633786D01*
X99836562Y-83579792D01*
X99903234Y-83558917D01*
X99970614Y-83577401D01*
X99974340Y-83579795D01*
X100054479Y-83633343D01*
X100054486Y-83633347D01*
X100241016Y-83710609D01*
X100241025Y-83710612D01*
X100290000Y-83720353D01*
X100290000Y-82865865D01*
X100292383Y-82841671D01*
X100295500Y-82826002D01*
X100295500Y-82785830D01*
X100309745Y-82800075D01*
X100395255Y-82849444D01*
X100490630Y-82875000D01*
X100589370Y-82875000D01*
X100684745Y-82849444D01*
X100770255Y-82800075D01*
X100790000Y-82780330D01*
X100790000Y-83720352D01*
X100838974Y-83710612D01*
X100838983Y-83710609D01*
X101025513Y-83633347D01*
X101025526Y-83633340D01*
X101193399Y-83521170D01*
X101193403Y-83521167D01*
X101336167Y-83378403D01*
X101336170Y-83378399D01*
X101448340Y-83210526D01*
X101448347Y-83210513D01*
X101525609Y-83023983D01*
X101525612Y-83023974D01*
X101564999Y-82825958D01*
X101565000Y-82825955D01*
X101565000Y-82750000D01*
X100820330Y-82750000D01*
X100840075Y-82730255D01*
X100889444Y-82644745D01*
X100915000Y-82549370D01*
X100915000Y-82450630D01*
X100889444Y-82355255D01*
X100840075Y-82269745D01*
X100820330Y-82250000D01*
X101565000Y-82250000D01*
X101565000Y-82174045D01*
X101564999Y-82174041D01*
X101525612Y-81976025D01*
X101525609Y-81976016D01*
X101448347Y-81789486D01*
X101445471Y-81784105D01*
X101447679Y-81782924D01*
X101430080Y-81726707D01*
X101448568Y-81659328D01*
X101500549Y-81612641D01*
X101554060Y-81600500D01*
X102075501Y-81600500D01*
X102142540Y-81620185D01*
X102188295Y-81672989D01*
X102199501Y-81724500D01*
X102199501Y-81847876D01*
X102205908Y-81907483D01*
X102256202Y-82042328D01*
X102256206Y-82042335D01*
X102342452Y-82157544D01*
X102342455Y-82157547D01*
X102457664Y-82243793D01*
X102457671Y-82243797D01*
X102490942Y-82256206D01*
X102592517Y-82294091D01*
X102592527Y-82294092D01*
X102597913Y-82295365D01*
X102658631Y-82329935D01*
X102691021Y-82391843D01*
X102684799Y-82461435D01*
X102657088Y-82503725D01*
X102499951Y-82660862D01*
X102369432Y-82847265D01*
X102369431Y-82847267D01*
X102273261Y-83053502D01*
X102273258Y-83053511D01*
X102214366Y-83273302D01*
X102214364Y-83273313D01*
X102194532Y-83499998D01*
X102194532Y-83500001D01*
X102214364Y-83726686D01*
X102214366Y-83726697D01*
X102240152Y-83822931D01*
X102238489Y-83892781D01*
X102208058Y-83942705D01*
X97361286Y-88789478D01*
X97249481Y-88901282D01*
X97249480Y-88901284D01*
X97203745Y-88980500D01*
X97170423Y-89038215D01*
X97129499Y-89190943D01*
X97129499Y-89190945D01*
X97129499Y-89359046D01*
X97129500Y-89359059D01*
X97129500Y-91625500D01*
X97109815Y-91692539D01*
X97057011Y-91738294D01*
X97005500Y-91749500D01*
X95887129Y-91749500D01*
X95887123Y-91749501D01*
X95827516Y-91755908D01*
X95692671Y-91806202D01*
X95692664Y-91806206D01*
X95648733Y-91839093D01*
X95583269Y-91863510D01*
X95514996Y-91848658D01*
X95486742Y-91827507D01*
X94601941Y-90942706D01*
X94568456Y-90881383D01*
X94569847Y-90822931D01*
X94571891Y-90815304D01*
X94595635Y-90726692D01*
X94615468Y-90500000D01*
X94595635Y-90273308D01*
X94536739Y-90053504D01*
X94440568Y-89847266D01*
X94310047Y-89660861D01*
X94310045Y-89660858D01*
X94149141Y-89499954D01*
X93962734Y-89369432D01*
X93962732Y-89369431D01*
X93756497Y-89273261D01*
X93756488Y-89273258D01*
X93536697Y-89214366D01*
X93536693Y-89214365D01*
X93536692Y-89214365D01*
X93536691Y-89214364D01*
X93536686Y-89214364D01*
X93310002Y-89194532D01*
X93309998Y-89194532D01*
X93083313Y-89214364D01*
X93083302Y-89214366D01*
X92863511Y-89273258D01*
X92863502Y-89273261D01*
X92657267Y-89369431D01*
X92657265Y-89369432D01*
X92470858Y-89499954D01*
X92309954Y-89660858D01*
X92179432Y-89847265D01*
X92179431Y-89847267D01*
X92083261Y-90053502D01*
X92083258Y-90053511D01*
X92024366Y-90273302D01*
X92024364Y-90273313D01*
X92004532Y-90499998D01*
X92004532Y-90500001D01*
X92024364Y-90726686D01*
X92024366Y-90726697D01*
X92083258Y-90946488D01*
X92083261Y-90946497D01*
X92179431Y-91152732D01*
X92179432Y-91152734D01*
X92309954Y-91339141D01*
X92470858Y-91500045D01*
X92470861Y-91500047D01*
X92657266Y-91630568D01*
X92863504Y-91726739D01*
X93083308Y-91785635D01*
X93245230Y-91799801D01*
X93309998Y-91805468D01*
X93310000Y-91805468D01*
X93310002Y-91805468D01*
X93374397Y-91799834D01*
X93536692Y-91785635D01*
X93632932Y-91759847D01*
X93702781Y-91761510D01*
X93752706Y-91791941D01*
X95325139Y-93364374D01*
X95325149Y-93364385D01*
X95329479Y-93368715D01*
X95329480Y-93368716D01*
X95398182Y-93437418D01*
X95431666Y-93498739D01*
X95434500Y-93525098D01*
X95434500Y-93797869D01*
X95434501Y-93797876D01*
X95440908Y-93857483D01*
X95491202Y-93992328D01*
X95491206Y-93992335D01*
X95577452Y-94107544D01*
X95577455Y-94107547D01*
X95692664Y-94193793D01*
X95692671Y-94193797D01*
X95692674Y-94193798D01*
X95827517Y-94244091D01*
X95887127Y-94250500D01*
X96584902Y-94250499D01*
X96651941Y-94270183D01*
X96672582Y-94286817D01*
X98866284Y-96480520D01*
X98866286Y-96480521D01*
X98866290Y-96480524D01*
X99003209Y-96559573D01*
X99003216Y-96559577D01*
X99155943Y-96600501D01*
X99155945Y-96600501D01*
X99321654Y-96600501D01*
X99321670Y-96600500D01*
X106148308Y-96600500D01*
X106215347Y-96620185D01*
X106249880Y-96653374D01*
X106335480Y-96775624D01*
X106379954Y-96839141D01*
X106540858Y-97000045D01*
X106540861Y-97000047D01*
X106727266Y-97130568D01*
X106933504Y-97226739D01*
X107153308Y-97285635D01*
X107315230Y-97299801D01*
X107379998Y-97305468D01*
X107380000Y-97305468D01*
X107380002Y-97305468D01*
X107436673Y-97300509D01*
X107606692Y-97285635D01*
X107826496Y-97226739D01*
X108032734Y-97130568D01*
X108219139Y-97000047D01*
X108380047Y-96839139D01*
X108510568Y-96652734D01*
X108606739Y-96446496D01*
X108665635Y-96226692D01*
X108685468Y-96000000D01*
X108665635Y-95773308D01*
X108606739Y-95553504D01*
X108510568Y-95347266D01*
X108380047Y-95160861D01*
X108380045Y-95160858D01*
X108219141Y-94999954D01*
X108032734Y-94869432D01*
X108032732Y-94869431D01*
X107826497Y-94773261D01*
X107826488Y-94773258D01*
X107606697Y-94714366D01*
X107606693Y-94714365D01*
X107606692Y-94714365D01*
X107606691Y-94714364D01*
X107606686Y-94714364D01*
X107380002Y-94694532D01*
X107379998Y-94694532D01*
X107153313Y-94714364D01*
X107153302Y-94714366D01*
X106933511Y-94773258D01*
X106933502Y-94773261D01*
X106727267Y-94869431D01*
X106727265Y-94869432D01*
X106540858Y-94999954D01*
X106379954Y-95160858D01*
X106303450Y-95270118D01*
X106249881Y-95346624D01*
X106195307Y-95390248D01*
X106148308Y-95399500D01*
X99535098Y-95399500D01*
X99468059Y-95379815D01*
X99447417Y-95363181D01*
X98449364Y-94365128D01*
X98415879Y-94303805D01*
X98420863Y-94234113D01*
X98462735Y-94178180D01*
X98528199Y-94153763D01*
X98584496Y-94162885D01*
X98700873Y-94211091D01*
X98866777Y-94244091D01*
X98898992Y-94250499D01*
X98898996Y-94250500D01*
X98898997Y-94250500D01*
X99101004Y-94250500D01*
X99101005Y-94250499D01*
X99299127Y-94211091D01*
X99485756Y-94133786D01*
X99653718Y-94021558D01*
X99796558Y-93878718D01*
X99908786Y-93710756D01*
X99922749Y-93677047D01*
X99966590Y-93622644D01*
X100032884Y-93600579D01*
X100037310Y-93600500D01*
X100810501Y-93600500D01*
X100877540Y-93620185D01*
X100923295Y-93672989D01*
X100934501Y-93724500D01*
X100934501Y-93797876D01*
X100940908Y-93857483D01*
X100991202Y-93992328D01*
X100991206Y-93992335D01*
X101077452Y-94107544D01*
X101077455Y-94107547D01*
X101192664Y-94193793D01*
X101192671Y-94193797D01*
X101327517Y-94244091D01*
X101327516Y-94244091D01*
X101334444Y-94244835D01*
X101387127Y-94250500D01*
X102532872Y-94250499D01*
X102592483Y-94244091D01*
X102727331Y-94193796D01*
X102728430Y-94192972D01*
X102729717Y-94192492D01*
X102735112Y-94189547D01*
X102735535Y-94190322D01*
X102793887Y-94168552D01*
X102850198Y-94177673D01*
X102930873Y-94211091D01*
X103096777Y-94244091D01*
X103128992Y-94250499D01*
X103128996Y-94250500D01*
X103128997Y-94250500D01*
X103331004Y-94250500D01*
X103331005Y-94250499D01*
X103529127Y-94211091D01*
X103715756Y-94133786D01*
X103796110Y-94080094D01*
X103862786Y-94059217D01*
X103930166Y-94077701D01*
X103933865Y-94080078D01*
X104014244Y-94133786D01*
X104200873Y-94211091D01*
X104366777Y-94244091D01*
X104398992Y-94250499D01*
X104398996Y-94250500D01*
X104398997Y-94250500D01*
X104601004Y-94250500D01*
X104601005Y-94250499D01*
X104799127Y-94211091D01*
X104985756Y-94133786D01*
X105153718Y-94021558D01*
X105296558Y-93878718D01*
X105408786Y-93710756D01*
X105486091Y-93524127D01*
X105525500Y-93326003D01*
X105525500Y-92673997D01*
X105486091Y-92475873D01*
X105408786Y-92289244D01*
X105408784Y-92289241D01*
X105408782Y-92289237D01*
X105296558Y-92121281D01*
X105153718Y-91978441D01*
X104985762Y-91866217D01*
X104985752Y-91866212D01*
X104799127Y-91788909D01*
X104799119Y-91788907D01*
X104601007Y-91749500D01*
X104601003Y-91749500D01*
X104398997Y-91749500D01*
X104398992Y-91749500D01*
X104200880Y-91788907D01*
X104200872Y-91788909D01*
X104014244Y-91866213D01*
X103933891Y-91919904D01*
X103867213Y-91940782D01*
X103799833Y-91922297D01*
X103796109Y-91919904D01*
X103715755Y-91866213D01*
X103529127Y-91788909D01*
X103529119Y-91788907D01*
X103331007Y-91749500D01*
X103331003Y-91749500D01*
X103128997Y-91749500D01*
X103128992Y-91749500D01*
X102930880Y-91788907D01*
X102930868Y-91788910D01*
X102850198Y-91822325D01*
X102780729Y-91829794D01*
X102735342Y-91810036D01*
X102735114Y-91810454D01*
X102730447Y-91807905D01*
X102728432Y-91807028D01*
X102727331Y-91806204D01*
X102727329Y-91806203D01*
X102641166Y-91774066D01*
X102585233Y-91732194D01*
X102560816Y-91666730D01*
X102560500Y-91657884D01*
X102560500Y-89840097D01*
X102580185Y-89773058D01*
X102596819Y-89752416D01*
X103075977Y-89273258D01*
X103600520Y-88748716D01*
X103679577Y-88611784D01*
X103720501Y-88459057D01*
X103720501Y-88300942D01*
X103720501Y-88293347D01*
X103720500Y-88293329D01*
X103720500Y-88231692D01*
X103740185Y-88164653D01*
X103773374Y-88130119D01*
X103959139Y-88000047D01*
X104059188Y-87899998D01*
X106074532Y-87899998D01*
X106074532Y-87900001D01*
X106094364Y-88126686D01*
X106094366Y-88126697D01*
X106153258Y-88346488D01*
X106153261Y-88346497D01*
X106249431Y-88552732D01*
X106249432Y-88552734D01*
X106379954Y-88739141D01*
X106540858Y-88900045D01*
X106540861Y-88900047D01*
X106726624Y-89030118D01*
X106770248Y-89084693D01*
X106779500Y-89131692D01*
X106779500Y-90768306D01*
X106759815Y-90835345D01*
X106726623Y-90869881D01*
X106540859Y-90999953D01*
X106379954Y-91160858D01*
X106249432Y-91347265D01*
X106249431Y-91347267D01*
X106153261Y-91553502D01*
X106153258Y-91553511D01*
X106094366Y-91773302D01*
X106094364Y-91773313D01*
X106074532Y-91999998D01*
X106074532Y-92000001D01*
X106094364Y-92226686D01*
X106094366Y-92226697D01*
X106153258Y-92446488D01*
X106153261Y-92446497D01*
X106249431Y-92652732D01*
X106249432Y-92652734D01*
X106379954Y-92839141D01*
X106540858Y-93000045D01*
X106540861Y-93000047D01*
X106727266Y-93130568D01*
X106933504Y-93226739D01*
X107153308Y-93285635D01*
X107315230Y-93299801D01*
X107379998Y-93305468D01*
X107380000Y-93305468D01*
X107380002Y-93305468D01*
X107436673Y-93300509D01*
X107606692Y-93285635D01*
X107826496Y-93226739D01*
X108032734Y-93130568D01*
X108219139Y-93000047D01*
X108380047Y-92839139D01*
X108510568Y-92652734D01*
X108606739Y-92446496D01*
X108665635Y-92226692D01*
X108684797Y-92007669D01*
X108685468Y-92000001D01*
X108685468Y-91999998D01*
X113694532Y-91999998D01*
X113694532Y-92000001D01*
X113714364Y-92226686D01*
X113714366Y-92226697D01*
X113773258Y-92446488D01*
X113773261Y-92446497D01*
X113869431Y-92652732D01*
X113869432Y-92652734D01*
X113999954Y-92839141D01*
X114160858Y-93000045D01*
X114160861Y-93000047D01*
X114346624Y-93130118D01*
X114390248Y-93184693D01*
X114399500Y-93231692D01*
X114399500Y-94768306D01*
X114379815Y-94835345D01*
X114346623Y-94869881D01*
X114160859Y-94999953D01*
X113999954Y-95160858D01*
X113869432Y-95347265D01*
X113869431Y-95347267D01*
X113773261Y-95553502D01*
X113773258Y-95553511D01*
X113714366Y-95773302D01*
X113714364Y-95773313D01*
X113694532Y-95999998D01*
X113694532Y-96000001D01*
X113714364Y-96226686D01*
X113714366Y-96226697D01*
X113773258Y-96446488D01*
X113773261Y-96446497D01*
X113869431Y-96652732D01*
X113869432Y-96652734D01*
X113999954Y-96839141D01*
X114160858Y-97000045D01*
X114160861Y-97000047D01*
X114347266Y-97130568D01*
X114553504Y-97226739D01*
X114773308Y-97285635D01*
X114935230Y-97299801D01*
X114999998Y-97305468D01*
X115000000Y-97305468D01*
X115000002Y-97305468D01*
X115056673Y-97300509D01*
X115226692Y-97285635D01*
X115446496Y-97226739D01*
X115652734Y-97130568D01*
X115839139Y-97000047D01*
X116000047Y-96839139D01*
X116130568Y-96652734D01*
X116226739Y-96446496D01*
X116285635Y-96226692D01*
X116305468Y-96000000D01*
X116285635Y-95773308D01*
X116226739Y-95553504D01*
X116130568Y-95347266D01*
X116000047Y-95160861D01*
X116000045Y-95160858D01*
X115839140Y-94999953D01*
X115653377Y-94869881D01*
X115609752Y-94815304D01*
X115600500Y-94768306D01*
X115600500Y-93231692D01*
X115620185Y-93164653D01*
X115653374Y-93130119D01*
X115839139Y-93000047D01*
X116000047Y-92839139D01*
X116130568Y-92652734D01*
X116226739Y-92446496D01*
X116285635Y-92226692D01*
X116304797Y-92007669D01*
X116305468Y-92000001D01*
X116305468Y-91999998D01*
X116298670Y-91922297D01*
X116285635Y-91773308D01*
X116226739Y-91553504D01*
X116130568Y-91347266D01*
X116000047Y-91160861D01*
X116000045Y-91160858D01*
X115839141Y-90999954D01*
X115652734Y-90869432D01*
X115652732Y-90869431D01*
X115446497Y-90773261D01*
X115446488Y-90773258D01*
X115226697Y-90714366D01*
X115226693Y-90714365D01*
X115226692Y-90714365D01*
X115226691Y-90714364D01*
X115226686Y-90714364D01*
X115000002Y-90694532D01*
X114999998Y-90694532D01*
X114773313Y-90714364D01*
X114773302Y-90714366D01*
X114553511Y-90773258D01*
X114553502Y-90773261D01*
X114347267Y-90869431D01*
X114347265Y-90869432D01*
X114160858Y-90999954D01*
X113999954Y-91160858D01*
X113869432Y-91347265D01*
X113869431Y-91347267D01*
X113773261Y-91553502D01*
X113773258Y-91553511D01*
X113714366Y-91773302D01*
X113714364Y-91773313D01*
X113694532Y-91999998D01*
X108685468Y-91999998D01*
X108678670Y-91922297D01*
X108665635Y-91773308D01*
X108606739Y-91553504D01*
X108510568Y-91347266D01*
X108380047Y-91160861D01*
X108380045Y-91160858D01*
X108219140Y-90999953D01*
X108033377Y-90869881D01*
X107989752Y-90815304D01*
X107980500Y-90768306D01*
X107980500Y-89131692D01*
X108000185Y-89064653D01*
X108033374Y-89030119D01*
X108219139Y-88900047D01*
X108380047Y-88739139D01*
X108510568Y-88552734D01*
X108606739Y-88346496D01*
X108665635Y-88126692D01*
X108685468Y-87900000D01*
X108685468Y-87899998D01*
X113694532Y-87899998D01*
X113694532Y-87900001D01*
X113714364Y-88126686D01*
X113714366Y-88126697D01*
X113773258Y-88346488D01*
X113773261Y-88346497D01*
X113869431Y-88552732D01*
X113869432Y-88552734D01*
X113999954Y-88739141D01*
X114160858Y-88900045D01*
X114162629Y-88901285D01*
X114347266Y-89030568D01*
X114553504Y-89126739D01*
X114773308Y-89185635D01*
X114935230Y-89199801D01*
X114999998Y-89205468D01*
X115000000Y-89205468D01*
X115000002Y-89205468D01*
X115056673Y-89200509D01*
X115226692Y-89185635D01*
X115446496Y-89126739D01*
X115652734Y-89030568D01*
X115839139Y-88900047D01*
X116000047Y-88739139D01*
X116130568Y-88552734D01*
X116226739Y-88346496D01*
X116285635Y-88126692D01*
X116305468Y-87900000D01*
X116285635Y-87673308D01*
X116226739Y-87453504D01*
X116130568Y-87247266D01*
X116000047Y-87060861D01*
X116000045Y-87060858D01*
X115839141Y-86899954D01*
X115652734Y-86769432D01*
X115652732Y-86769431D01*
X115446497Y-86673261D01*
X115446488Y-86673258D01*
X115226697Y-86614366D01*
X115226693Y-86614365D01*
X115226692Y-86614365D01*
X115226691Y-86614364D01*
X115226686Y-86614364D01*
X115000002Y-86594532D01*
X114999998Y-86594532D01*
X114773313Y-86614364D01*
X114773302Y-86614366D01*
X114553511Y-86673258D01*
X114553502Y-86673261D01*
X114347267Y-86769431D01*
X114347265Y-86769432D01*
X114160858Y-86899954D01*
X113999954Y-87060858D01*
X113869432Y-87247265D01*
X113869431Y-87247267D01*
X113773261Y-87453502D01*
X113773258Y-87453511D01*
X113714366Y-87673302D01*
X113714364Y-87673313D01*
X113694532Y-87899998D01*
X108685468Y-87899998D01*
X108665635Y-87673308D01*
X108606739Y-87453504D01*
X108510568Y-87247266D01*
X108380047Y-87060861D01*
X108380045Y-87060858D01*
X108219141Y-86899954D01*
X108032734Y-86769432D01*
X108032732Y-86769431D01*
X107826497Y-86673261D01*
X107826488Y-86673258D01*
X107606697Y-86614366D01*
X107606693Y-86614365D01*
X107606692Y-86614365D01*
X107606691Y-86614364D01*
X107606686Y-86614364D01*
X107380002Y-86594532D01*
X107379998Y-86594532D01*
X107153313Y-86614364D01*
X107153302Y-86614366D01*
X106933511Y-86673258D01*
X106933502Y-86673261D01*
X106727267Y-86769431D01*
X106727265Y-86769432D01*
X106540858Y-86899954D01*
X106379954Y-87060858D01*
X106249432Y-87247265D01*
X106249431Y-87247267D01*
X106153261Y-87453502D01*
X106153258Y-87453511D01*
X106094366Y-87673302D01*
X106094364Y-87673313D01*
X106074532Y-87899998D01*
X104059188Y-87899998D01*
X104120047Y-87839139D01*
X104250568Y-87652734D01*
X104346739Y-87446496D01*
X104405635Y-87226692D01*
X104425468Y-87000000D01*
X104405635Y-86773308D01*
X104385082Y-86696604D01*
X104379847Y-86677066D01*
X104381510Y-86607217D01*
X104411939Y-86557294D01*
X109969236Y-80999998D01*
X112354532Y-80999998D01*
X112354532Y-81000001D01*
X112374364Y-81226686D01*
X112374366Y-81226697D01*
X112433258Y-81446488D01*
X112433261Y-81446497D01*
X112529431Y-81652732D01*
X112529432Y-81652734D01*
X112659954Y-81839141D01*
X112817086Y-81996273D01*
X112850571Y-82057596D01*
X112845587Y-82127288D01*
X112803715Y-82183221D01*
X112757932Y-82204628D01*
X112752522Y-82205906D01*
X112617671Y-82256202D01*
X112617664Y-82256206D01*
X112502455Y-82342452D01*
X112502452Y-82342455D01*
X112416206Y-82457664D01*
X112416202Y-82457671D01*
X112365908Y-82592517D01*
X112359593Y-82651261D01*
X112359501Y-82652123D01*
X112359500Y-82652135D01*
X112359500Y-84347870D01*
X112359501Y-84347876D01*
X112365908Y-84407483D01*
X112416202Y-84542328D01*
X112416206Y-84542335D01*
X112502452Y-84657544D01*
X112502455Y-84657547D01*
X112617664Y-84743793D01*
X112617671Y-84743797D01*
X112752517Y-84794091D01*
X112752516Y-84794091D01*
X112759444Y-84794835D01*
X112812127Y-84800500D01*
X114507872Y-84800499D01*
X114567483Y-84794091D01*
X114702331Y-84743796D01*
X114817546Y-84657546D01*
X114903796Y-84542331D01*
X114954091Y-84407483D01*
X114960500Y-84347873D01*
X114960499Y-82652128D01*
X114954091Y-82592517D01*
X114940829Y-82556961D01*
X114903797Y-82457671D01*
X114903793Y-82457664D01*
X114817547Y-82342455D01*
X114817544Y-82342452D01*
X114702335Y-82256206D01*
X114702328Y-82256202D01*
X114567483Y-82205908D01*
X114562079Y-82204632D01*
X114501363Y-82170060D01*
X114468976Y-82108149D01*
X114475202Y-82038558D01*
X114502910Y-81996275D01*
X114660047Y-81839139D01*
X114790568Y-81652734D01*
X114886739Y-81446496D01*
X114945635Y-81226692D01*
X114965468Y-81000000D01*
X114945635Y-80773308D01*
X114900916Y-80606415D01*
X114886741Y-80553511D01*
X114886738Y-80553502D01*
X114790568Y-80347266D01*
X114660047Y-80160861D01*
X114660045Y-80160858D01*
X114499141Y-79999954D01*
X114312734Y-79869432D01*
X114312732Y-79869431D01*
X114106497Y-79773261D01*
X114106488Y-79773258D01*
X113886697Y-79714366D01*
X113886693Y-79714365D01*
X113886692Y-79714365D01*
X113886691Y-79714364D01*
X113886686Y-79714364D01*
X113660002Y-79694532D01*
X113659998Y-79694532D01*
X113433313Y-79714364D01*
X113433302Y-79714366D01*
X113213511Y-79773258D01*
X113213502Y-79773261D01*
X113007267Y-79869431D01*
X113007265Y-79869432D01*
X112820858Y-79999954D01*
X112659954Y-80160858D01*
X112529432Y-80347265D01*
X112529431Y-80347267D01*
X112433261Y-80553502D01*
X112433258Y-80553511D01*
X112374366Y-80773302D01*
X112374364Y-80773313D01*
X112354532Y-80999998D01*
X109969236Y-80999998D01*
X111828713Y-79140521D01*
X111828716Y-79140520D01*
X111940520Y-79028716D01*
X111990639Y-78941904D01*
X112019577Y-78891785D01*
X112060500Y-78739057D01*
X112060500Y-78580943D01*
X112060500Y-77842115D01*
X112080185Y-77775076D01*
X112132989Y-77729321D01*
X112141167Y-77725933D01*
X112156128Y-77720353D01*
X112227331Y-77693796D01*
X112228430Y-77692972D01*
X112229717Y-77692492D01*
X112235112Y-77689547D01*
X112235535Y-77690322D01*
X112293887Y-77668552D01*
X112350198Y-77677673D01*
X112430873Y-77711091D01*
X112596777Y-77744091D01*
X112628992Y-77750499D01*
X112628996Y-77750500D01*
X112628997Y-77750500D01*
X112831004Y-77750500D01*
X112831005Y-77750499D01*
X113029127Y-77711091D01*
X113215756Y-77633786D01*
X113296562Y-77579792D01*
X113363234Y-77558917D01*
X113430614Y-77577401D01*
X113434340Y-77579795D01*
X113514479Y-77633343D01*
X113514486Y-77633347D01*
X113701016Y-77710609D01*
X113701025Y-77710612D01*
X113750000Y-77720353D01*
X113750000Y-76865865D01*
X113752383Y-76841671D01*
X113755500Y-76826002D01*
X113755500Y-76785830D01*
X113769745Y-76800075D01*
X113855255Y-76849444D01*
X113950630Y-76875000D01*
X114049370Y-76875000D01*
X114144745Y-76849444D01*
X114230255Y-76800075D01*
X114250000Y-76780330D01*
X114250000Y-77720352D01*
X114298974Y-77710612D01*
X114298983Y-77710609D01*
X114485513Y-77633347D01*
X114485526Y-77633340D01*
X114653399Y-77521170D01*
X114653403Y-77521167D01*
X114796167Y-77378403D01*
X114796170Y-77378399D01*
X114908340Y-77210526D01*
X114908347Y-77210513D01*
X114985609Y-77023983D01*
X114985612Y-77023974D01*
X115024999Y-76825958D01*
X115025000Y-76825955D01*
X115025000Y-76750000D01*
X114280330Y-76750000D01*
X114300075Y-76730255D01*
X114349444Y-76644745D01*
X114375000Y-76549370D01*
X114375000Y-76450630D01*
X114349444Y-76355255D01*
X114300075Y-76269745D01*
X114280330Y-76250000D01*
X115025000Y-76250000D01*
X115043123Y-76231876D01*
X115044685Y-76226558D01*
X115097489Y-76180803D01*
X115166647Y-76170859D01*
X115230203Y-76199884D01*
X115236681Y-76205916D01*
X119138584Y-80107819D01*
X119172069Y-80169142D01*
X119167085Y-80238834D01*
X119125213Y-80294767D01*
X119059749Y-80319184D01*
X119050904Y-80319500D01*
X118952130Y-80319500D01*
X118952123Y-80319501D01*
X118892516Y-80325908D01*
X118757671Y-80376202D01*
X118757664Y-80376206D01*
X118642455Y-80462452D01*
X118642454Y-80462454D01*
X118556206Y-80577664D01*
X118556202Y-80577671D01*
X118505908Y-80712517D01*
X118499501Y-80772116D01*
X118499501Y-80772123D01*
X118499500Y-80772135D01*
X118499500Y-83867870D01*
X118499501Y-83867876D01*
X118505908Y-83927483D01*
X118556202Y-84062328D01*
X118556206Y-84062335D01*
X118642452Y-84177544D01*
X118642455Y-84177547D01*
X118757664Y-84263793D01*
X118757671Y-84263797D01*
X118892517Y-84314091D01*
X118892516Y-84314091D01*
X118899444Y-84314835D01*
X118952127Y-84320500D01*
X122047872Y-84320499D01*
X122107483Y-84314091D01*
X122242331Y-84263796D01*
X122357546Y-84177546D01*
X122443796Y-84062331D01*
X122494091Y-83927483D01*
X122500500Y-83867873D01*
X122500499Y-80772128D01*
X122494091Y-80712517D01*
X122443796Y-80577669D01*
X122443795Y-80577668D01*
X122443793Y-80577664D01*
X122357546Y-80462454D01*
X122357544Y-80462452D01*
X122242335Y-80376206D01*
X122242328Y-80376202D01*
X122107482Y-80325908D01*
X122107483Y-80325908D01*
X122047883Y-80319501D01*
X122047881Y-80319500D01*
X122047873Y-80319500D01*
X122047865Y-80319500D01*
X121091496Y-80319500D01*
X121024457Y-80299815D01*
X120984108Y-80257499D01*
X120980520Y-80251284D01*
X120868716Y-80139480D01*
X120868715Y-80139479D01*
X120864385Y-80135149D01*
X120864374Y-80135139D01*
X120168934Y-79439699D01*
X120135449Y-79378376D01*
X120140433Y-79308684D01*
X120182305Y-79252751D01*
X120247769Y-79228334D01*
X120265461Y-79228334D01*
X120499999Y-79245109D01*
X120500001Y-79245109D01*
X120785362Y-79224699D01*
X121064895Y-79163890D01*
X121332958Y-79063908D01*
X121584038Y-78926808D01*
X121584039Y-78926807D01*
X121726563Y-78820115D01*
X120831678Y-77925231D01*
X120859995Y-77913503D01*
X120984472Y-77830330D01*
X121090330Y-77724472D01*
X121173503Y-77599995D01*
X121185231Y-77571679D01*
X122080115Y-78466563D01*
X122186807Y-78324039D01*
X122186808Y-78324038D01*
X122323908Y-78072958D01*
X122423890Y-77804895D01*
X122484699Y-77525362D01*
X122505109Y-77240001D01*
X122505109Y-77239998D01*
X122484699Y-76954637D01*
X122423890Y-76675104D01*
X122323908Y-76407041D01*
X122186808Y-76155961D01*
X122186803Y-76155953D01*
X122080116Y-76013436D01*
X122080115Y-76013435D01*
X121185231Y-76908320D01*
X121173503Y-76880005D01*
X121090330Y-76755528D01*
X120984472Y-76649670D01*
X120859995Y-76566497D01*
X120831678Y-76554767D01*
X121726563Y-75659883D01*
X121726562Y-75659882D01*
X121584046Y-75553196D01*
X121584038Y-75553191D01*
X121332957Y-75416091D01*
X121332958Y-75416091D01*
X121064895Y-75316109D01*
X120785362Y-75255300D01*
X120500001Y-75234891D01*
X120499999Y-75234891D01*
X120214637Y-75255300D01*
X119935104Y-75316109D01*
X119667041Y-75416091D01*
X119415961Y-75553191D01*
X119415953Y-75553196D01*
X119273435Y-75659882D01*
X120168321Y-76554767D01*
X120140005Y-76566497D01*
X120015528Y-76649670D01*
X119909670Y-76755528D01*
X119826497Y-76880005D01*
X119814767Y-76908321D01*
X118919882Y-76013435D01*
X118813196Y-76155953D01*
X118813191Y-76155961D01*
X118676091Y-76407041D01*
X118576109Y-76675104D01*
X118515300Y-76954637D01*
X118494891Y-77239998D01*
X118494891Y-77240001D01*
X118511665Y-77474538D01*
X118496813Y-77542811D01*
X118447408Y-77592216D01*
X118379135Y-77607068D01*
X118313670Y-77582651D01*
X118300300Y-77571065D01*
X109867590Y-69138355D01*
X109867588Y-69138352D01*
X109748717Y-69019481D01*
X109748709Y-69019475D01*
X109642436Y-68958119D01*
X109642435Y-68958118D01*
X109642435Y-68958119D01*
X109611785Y-68940423D01*
X109459057Y-68899499D01*
X109379948Y-68899499D01*
X109312909Y-68879814D01*
X109267154Y-68827010D01*
X109257210Y-68757852D01*
X109286235Y-68694296D01*
X109308826Y-68673923D01*
X109339139Y-68652698D01*
X109500047Y-68491790D01*
X109630118Y-68306026D01*
X109684693Y-68262403D01*
X109731692Y-68253151D01*
X115692554Y-68253151D01*
X115759593Y-68272836D01*
X115780235Y-68289470D01*
X118660137Y-71169372D01*
X118693622Y-71230695D01*
X118688638Y-71300387D01*
X118681291Y-71316475D01*
X118675635Y-71326833D01*
X118575628Y-71594962D01*
X118514804Y-71874566D01*
X118494390Y-72159998D01*
X118494390Y-72160001D01*
X118514804Y-72445433D01*
X118575628Y-72725037D01*
X118675635Y-72993166D01*
X118812770Y-73244309D01*
X118812775Y-73244317D01*
X118984254Y-73473387D01*
X118984270Y-73473405D01*
X119186594Y-73675729D01*
X119186612Y-73675745D01*
X119415682Y-73847224D01*
X119415690Y-73847229D01*
X119666833Y-73984364D01*
X119666832Y-73984364D01*
X119666836Y-73984365D01*
X119666839Y-73984367D01*
X119934954Y-74084369D01*
X119934960Y-74084370D01*
X119934962Y-74084371D01*
X120214566Y-74145195D01*
X120214568Y-74145195D01*
X120214572Y-74145196D01*
X120468220Y-74163337D01*
X120499999Y-74165610D01*
X120500000Y-74165610D01*
X120500001Y-74165610D01*
X120528595Y-74163564D01*
X120785428Y-74145196D01*
X120796365Y-74142817D01*
X121065037Y-74084371D01*
X121065037Y-74084370D01*
X121065046Y-74084369D01*
X121333161Y-73984367D01*
X121584315Y-73847226D01*
X121813395Y-73675739D01*
X122015739Y-73473395D01*
X122187226Y-73244315D01*
X122324367Y-72993161D01*
X122424369Y-72725046D01*
X122456542Y-72577150D01*
X122485195Y-72445433D01*
X122485195Y-72445432D01*
X122485196Y-72445428D01*
X122505610Y-72160000D01*
X122485196Y-71874572D01*
X122424369Y-71594954D01*
X122324367Y-71326839D01*
X122274224Y-71235010D01*
X122187229Y-71075690D01*
X122187224Y-71075682D01*
X122015745Y-70846612D01*
X122015729Y-70846594D01*
X121813405Y-70644270D01*
X121813387Y-70644254D01*
X121584317Y-70472775D01*
X121584309Y-70472770D01*
X121333166Y-70335635D01*
X121333167Y-70335635D01*
X121225915Y-70295632D01*
X121065046Y-70235631D01*
X121065043Y-70235630D01*
X121065037Y-70235628D01*
X120785433Y-70174804D01*
X120500001Y-70154390D01*
X120499999Y-70154390D01*
X120214566Y-70174804D01*
X119934962Y-70235628D01*
X119666833Y-70335635D01*
X119656475Y-70341291D01*
X119588201Y-70356140D01*
X119522738Y-70331719D01*
X119509372Y-70320137D01*
X116480241Y-67291006D01*
X116480239Y-67291003D01*
X116361368Y-67172132D01*
X116361367Y-67172131D01*
X116274555Y-67122011D01*
X116274555Y-67122010D01*
X116274551Y-67122009D01*
X116224436Y-67093074D01*
X116175636Y-67079998D01*
X118494891Y-67079998D01*
X118494891Y-67080001D01*
X118515300Y-67365362D01*
X118576109Y-67644895D01*
X118676091Y-67912958D01*
X118813191Y-68164038D01*
X118813196Y-68164046D01*
X118919882Y-68306562D01*
X118919883Y-68306563D01*
X119814768Y-67411678D01*
X119826497Y-67439995D01*
X119909670Y-67564472D01*
X120015528Y-67670330D01*
X120140005Y-67753503D01*
X120168320Y-67765231D01*
X119273435Y-68660115D01*
X119273436Y-68660116D01*
X119415953Y-68766803D01*
X119415961Y-68766808D01*
X119667042Y-68903908D01*
X119667041Y-68903908D01*
X119935104Y-69003890D01*
X120214637Y-69064699D01*
X120499999Y-69085109D01*
X120500001Y-69085109D01*
X120785362Y-69064699D01*
X121064895Y-69003890D01*
X121332958Y-68903908D01*
X121584038Y-68766808D01*
X121584039Y-68766807D01*
X121726563Y-68660115D01*
X120831679Y-67765231D01*
X120859995Y-67753503D01*
X120984472Y-67670330D01*
X121090330Y-67564472D01*
X121173503Y-67439995D01*
X121185231Y-67411679D01*
X122080115Y-68306563D01*
X122186807Y-68164039D01*
X122186808Y-68164038D01*
X122323908Y-67912958D01*
X122423890Y-67644895D01*
X122484699Y-67365362D01*
X122505109Y-67080001D01*
X122505109Y-67079998D01*
X122484699Y-66794637D01*
X122423890Y-66515104D01*
X122323908Y-66247041D01*
X122186808Y-65995961D01*
X122186803Y-65995953D01*
X122080116Y-65853436D01*
X122080115Y-65853435D01*
X121185231Y-66748320D01*
X121173503Y-66720005D01*
X121090330Y-66595528D01*
X120984472Y-66489670D01*
X120859995Y-66406497D01*
X120831678Y-66394767D01*
X121726563Y-65499883D01*
X121726562Y-65499882D01*
X121584046Y-65393196D01*
X121584038Y-65393191D01*
X121332957Y-65256091D01*
X121332958Y-65256091D01*
X121064895Y-65156109D01*
X120785362Y-65095300D01*
X120500001Y-65074891D01*
X120499999Y-65074891D01*
X120214637Y-65095300D01*
X119935104Y-65156109D01*
X119667041Y-65256091D01*
X119415961Y-65393191D01*
X119415953Y-65393196D01*
X119273435Y-65499882D01*
X120168321Y-66394767D01*
X120140005Y-66406497D01*
X120015528Y-66489670D01*
X119909670Y-66595528D01*
X119826497Y-66720005D01*
X119814768Y-66748321D01*
X118919882Y-65853435D01*
X118813196Y-65995953D01*
X118813191Y-65995961D01*
X118676091Y-66247041D01*
X118576109Y-66515104D01*
X118515300Y-66794637D01*
X118494891Y-67079998D01*
X116175636Y-67079998D01*
X116071708Y-67052150D01*
X115913594Y-67052150D01*
X115905998Y-67052150D01*
X115905982Y-67052151D01*
X109731692Y-67052151D01*
X109664653Y-67032466D01*
X109630119Y-66999276D01*
X109500047Y-66813512D01*
X109500045Y-66813509D01*
X109339141Y-66652605D01*
X109152734Y-66522083D01*
X109152732Y-66522082D01*
X108946497Y-66425912D01*
X108946488Y-66425909D01*
X108726697Y-66367017D01*
X108726693Y-66367016D01*
X108726692Y-66367016D01*
X108726691Y-66367015D01*
X108726686Y-66367015D01*
X108500002Y-66347183D01*
X108499998Y-66347183D01*
X108273313Y-66367015D01*
X108273302Y-66367017D01*
X108053511Y-66425909D01*
X108053502Y-66425912D01*
X107847267Y-66522082D01*
X107795622Y-66558244D01*
X107729416Y-66580571D01*
X107661648Y-66563559D01*
X107613836Y-66512610D01*
X107600500Y-66456668D01*
X107600500Y-64300096D01*
X107620185Y-64233057D01*
X107636810Y-64212424D01*
X107758067Y-64091167D01*
X107804879Y-64064144D01*
X107804276Y-64062687D01*
X107811776Y-64059579D01*
X107811785Y-64059577D01*
X107905258Y-64005610D01*
X107948716Y-63980520D01*
X108060520Y-63868716D01*
X108060520Y-63868714D01*
X108070724Y-63858511D01*
X108070728Y-63858506D01*
X108122614Y-63806619D01*
X108183935Y-63773136D01*
X108242386Y-63774527D01*
X108255929Y-63778155D01*
X108287253Y-63786549D01*
X108439215Y-63799844D01*
X108499998Y-63805162D01*
X108500000Y-63805162D01*
X108500002Y-63805162D01*
X108553186Y-63800508D01*
X108712747Y-63786549D01*
X108919030Y-63731276D01*
X109112581Y-63641021D01*
X109287519Y-63518529D01*
X109438529Y-63367519D01*
X109561021Y-63192581D01*
X109651276Y-62999030D01*
X109706549Y-62792747D01*
X109725162Y-62580000D01*
X109725079Y-62579057D01*
X109706549Y-62367258D01*
X109706549Y-62367253D01*
X109651276Y-62160970D01*
X109561021Y-61967419D01*
X109438529Y-61792481D01*
X109438527Y-61792478D01*
X109287521Y-61641472D01*
X109112578Y-61518977D01*
X109112579Y-61518977D01*
X108983547Y-61458809D01*
X108919030Y-61428724D01*
X108919026Y-61428723D01*
X108919022Y-61428721D01*
X108712752Y-61373452D01*
X108712748Y-61373451D01*
X108712747Y-61373451D01*
X108712746Y-61373450D01*
X108712741Y-61373450D01*
X108500002Y-61354838D01*
X108499998Y-61354838D01*
X108285311Y-61373620D01*
X108216811Y-61359853D01*
X108166628Y-61311238D01*
X108150695Y-61243209D01*
X108174071Y-61177366D01*
X108186817Y-61162417D01*
X108672416Y-60676819D01*
X108733739Y-60643334D01*
X108760097Y-60640500D01*
X109905969Y-60640500D01*
X109973008Y-60660185D01*
X110007544Y-60693377D01*
X110101472Y-60827521D01*
X110252478Y-60978527D01*
X110252481Y-60978529D01*
X110427419Y-61101021D01*
X110427421Y-61101022D01*
X110427420Y-61101022D01*
X110491936Y-61131106D01*
X110620970Y-61191276D01*
X110827253Y-61246549D01*
X110979215Y-61259844D01*
X111039998Y-61265162D01*
X111040000Y-61265162D01*
X111040002Y-61265162D01*
X111093186Y-61260508D01*
X111252747Y-61246549D01*
X111459030Y-61191276D01*
X111652581Y-61101021D01*
X111827519Y-60978529D01*
X111978529Y-60827519D01*
X112101021Y-60652581D01*
X112191276Y-60459030D01*
X112246549Y-60252747D01*
X112265162Y-60040000D01*
X112246549Y-59827253D01*
X112191276Y-59620970D01*
X112101021Y-59427419D01*
X111978529Y-59252481D01*
X111978527Y-59252478D01*
X111827521Y-59101472D01*
X111652578Y-58978977D01*
X111652579Y-58978977D01*
X111523547Y-58918809D01*
X111459030Y-58888724D01*
X111459026Y-58888723D01*
X111459022Y-58888721D01*
X111252752Y-58833452D01*
X111252748Y-58833451D01*
X111252747Y-58833451D01*
X111252746Y-58833450D01*
X111252741Y-58833450D01*
X111040002Y-58814838D01*
X111039998Y-58814838D01*
X110827258Y-58833450D01*
X110827247Y-58833452D01*
X110620977Y-58888721D01*
X110620968Y-58888725D01*
X110427421Y-58978977D01*
X110252478Y-59101472D01*
X110101472Y-59252478D01*
X110007544Y-59386623D01*
X109952967Y-59430248D01*
X109905969Y-59439500D01*
X108380940Y-59439500D01*
X108340019Y-59450464D01*
X108340019Y-59450465D01*
X108302751Y-59460451D01*
X108228214Y-59480423D01*
X108228209Y-59480426D01*
X108091290Y-59559475D01*
X108091282Y-59559481D01*
X105519482Y-62131281D01*
X105519478Y-62131287D01*
X105473292Y-62211284D01*
X105440424Y-62268212D01*
X105440423Y-62268213D01*
X105435809Y-62285433D01*
X105399499Y-62420943D01*
X105399499Y-62420945D01*
X105399499Y-62589046D01*
X105399500Y-62589059D01*
X105399500Y-73199903D01*
X105379815Y-73266942D01*
X105363181Y-73287584D01*
X103787584Y-74863181D01*
X103726261Y-74896666D01*
X103699903Y-74899500D01*
X101921692Y-74899500D01*
X101854653Y-74879815D01*
X101820119Y-74846625D01*
X101690047Y-74660861D01*
X101690045Y-74660858D01*
X101529141Y-74499954D01*
X101342734Y-74369432D01*
X101342732Y-74369431D01*
X101136497Y-74273261D01*
X101136488Y-74273258D01*
X100916697Y-74214366D01*
X100916693Y-74214365D01*
X100916692Y-74214365D01*
X100916691Y-74214364D01*
X100916686Y-74214364D01*
X100690002Y-74194532D01*
X100689998Y-74194532D01*
X100463313Y-74214364D01*
X100463302Y-74214366D01*
X100243511Y-74273258D01*
X100243502Y-74273261D01*
X100037267Y-74369431D01*
X100037265Y-74369432D01*
X99850858Y-74499954D01*
X99689954Y-74660858D01*
X99629902Y-74746623D01*
X99575325Y-74790248D01*
X99528327Y-74799500D01*
X97315942Y-74799500D01*
X97163214Y-74840423D01*
X97151365Y-74847265D01*
X97151363Y-74847266D01*
X97026287Y-74919477D01*
X97026282Y-74919481D01*
X96914480Y-75031284D01*
X96914478Y-75031286D01*
X96845764Y-75100000D01*
X96780644Y-75165120D01*
X96719321Y-75198604D01*
X96677174Y-75198985D01*
X96677065Y-75200097D01*
X96671003Y-75199500D01*
X96468997Y-75199500D01*
X96468992Y-75199500D01*
X96270880Y-75238907D01*
X96270868Y-75238910D01*
X96190198Y-75272325D01*
X96120729Y-75279794D01*
X96075342Y-75260036D01*
X96075114Y-75260454D01*
X96070447Y-75257905D01*
X96068432Y-75257028D01*
X96067331Y-75256204D01*
X96067330Y-75256203D01*
X96067328Y-75256202D01*
X95932482Y-75205908D01*
X95932483Y-75205908D01*
X95872883Y-75199501D01*
X95872881Y-75199500D01*
X95872873Y-75199500D01*
X95872864Y-75199500D01*
X94727129Y-75199500D01*
X94727123Y-75199501D01*
X94667516Y-75205908D01*
X94532671Y-75256202D01*
X94532664Y-75256206D01*
X94417455Y-75342452D01*
X94417452Y-75342455D01*
X94331206Y-75457664D01*
X94331202Y-75457671D01*
X94280908Y-75592517D01*
X94274501Y-75652116D01*
X94274500Y-75652135D01*
X94274500Y-77247870D01*
X94274501Y-77247876D01*
X94280908Y-77307483D01*
X94331202Y-77442328D01*
X94331206Y-77442335D01*
X94417452Y-77557544D01*
X94417455Y-77557547D01*
X94532664Y-77643793D01*
X94532671Y-77643797D01*
X94667517Y-77694091D01*
X94667516Y-77694091D01*
X94674444Y-77694835D01*
X94727127Y-77700500D01*
X95872872Y-77700499D01*
X95932483Y-77694091D01*
X96067331Y-77643796D01*
X96068430Y-77642972D01*
X96069717Y-77642492D01*
X96075112Y-77639547D01*
X96075535Y-77640322D01*
X96133887Y-77618552D01*
X96190198Y-77627673D01*
X96270873Y-77661091D01*
X96436777Y-77694091D01*
X96468992Y-77700499D01*
X96468996Y-77700500D01*
X96468997Y-77700500D01*
X96671004Y-77700500D01*
X96671005Y-77700499D01*
X96869127Y-77661091D01*
X97055756Y-77583786D01*
X97136562Y-77529792D01*
X97203234Y-77508917D01*
X97270614Y-77527401D01*
X97274340Y-77529795D01*
X97354479Y-77583343D01*
X97354486Y-77583347D01*
X97541016Y-77660609D01*
X97541025Y-77660612D01*
X97590000Y-77670353D01*
X97590000Y-76815865D01*
X97592383Y-76791671D01*
X97594930Y-76778871D01*
X97595500Y-76776003D01*
X97595500Y-76735830D01*
X97609745Y-76750075D01*
X97695255Y-76799444D01*
X97790630Y-76825000D01*
X97889370Y-76825000D01*
X97984745Y-76799444D01*
X98070255Y-76750075D01*
X98090000Y-76730330D01*
X98090000Y-77670352D01*
X98138974Y-77660612D01*
X98138983Y-77660609D01*
X98325513Y-77583347D01*
X98325526Y-77583340D01*
X98493399Y-77471170D01*
X98493403Y-77471167D01*
X98636167Y-77328403D01*
X98636170Y-77328399D01*
X98748340Y-77160526D01*
X98748347Y-77160513D01*
X98825609Y-76973983D01*
X98825612Y-76973974D01*
X98864999Y-76775958D01*
X98865000Y-76775955D01*
X98865000Y-76700000D01*
X98120330Y-76700000D01*
X98140075Y-76680255D01*
X98189444Y-76594745D01*
X98215000Y-76499370D01*
X98215000Y-76400630D01*
X98189444Y-76305255D01*
X98140075Y-76219745D01*
X98120330Y-76200000D01*
X98865000Y-76200000D01*
X98865000Y-76124500D01*
X98884685Y-76057461D01*
X98937489Y-76011706D01*
X98989000Y-76000500D01*
X99409447Y-76000500D01*
X99476486Y-76020185D01*
X99521829Y-76072095D01*
X99559431Y-76152732D01*
X99559432Y-76152734D01*
X99689954Y-76339141D01*
X99850858Y-76500045D01*
X99850861Y-76500047D01*
X100037266Y-76630568D01*
X100243504Y-76726739D01*
X100463308Y-76785635D01*
X100625230Y-76799801D01*
X100689998Y-76805468D01*
X100690000Y-76805468D01*
X100690002Y-76805468D01*
X100751642Y-76800075D01*
X100916692Y-76785635D01*
X101136496Y-76726739D01*
X101342734Y-76630568D01*
X101529139Y-76500047D01*
X101690047Y-76339139D01*
X101820118Y-76153375D01*
X101874693Y-76109752D01*
X101921692Y-76100500D01*
X103913331Y-76100500D01*
X103913347Y-76100501D01*
X103920943Y-76100501D01*
X104079054Y-76100501D01*
X104079057Y-76100501D01*
X104231785Y-76059577D01*
X104281904Y-76030639D01*
X104368716Y-75980520D01*
X104480520Y-75868716D01*
X104480520Y-75868714D01*
X104490728Y-75858507D01*
X104490730Y-75858504D01*
X106358506Y-73990728D01*
X106358511Y-73990724D01*
X106368714Y-73980520D01*
X106368716Y-73980520D01*
X106480520Y-73868716D01*
X106536483Y-73771784D01*
X106559577Y-73731785D01*
X106600500Y-73579057D01*
X106600500Y-73420943D01*
X106600500Y-69249097D01*
X106620185Y-69182058D01*
X106672989Y-69136303D01*
X106742147Y-69126359D01*
X106805703Y-69155384D01*
X106812181Y-69161416D01*
X107414784Y-69764020D01*
X107448269Y-69825343D01*
X107443285Y-69895035D01*
X107401414Y-69950967D01*
X107342455Y-69995103D01*
X107342452Y-69995106D01*
X107256206Y-70110315D01*
X107256202Y-70110322D01*
X107205908Y-70245168D01*
X107199501Y-70304767D01*
X107199500Y-70304786D01*
X107199500Y-72000521D01*
X107199501Y-72000527D01*
X107205908Y-72060134D01*
X107256202Y-72194979D01*
X107256206Y-72194986D01*
X107342452Y-72310195D01*
X107342455Y-72310198D01*
X107457664Y-72396444D01*
X107457671Y-72396448D01*
X107502618Y-72413212D01*
X107592517Y-72446742D01*
X107652127Y-72453151D01*
X107775500Y-72453150D01*
X107842539Y-72472834D01*
X107888294Y-72525638D01*
X107899500Y-72577150D01*
X107899500Y-73453330D01*
X107899499Y-73453348D01*
X107899499Y-73619054D01*
X107899498Y-73619054D01*
X107899499Y-73619057D01*
X107940423Y-73771785D01*
X107940424Y-73771786D01*
X107969358Y-73821900D01*
X107969359Y-73821904D01*
X107969360Y-73821904D01*
X107996386Y-73868716D01*
X108019479Y-73908714D01*
X108019481Y-73908717D01*
X108122566Y-74011802D01*
X108156051Y-74073125D01*
X108151067Y-74142817D01*
X108109195Y-74198750D01*
X108066978Y-74219258D01*
X107863682Y-74273730D01*
X107863673Y-74273734D01*
X107657517Y-74369865D01*
X107471179Y-74500342D01*
X107310342Y-74661179D01*
X107179865Y-74847517D01*
X107083734Y-75053673D01*
X107083730Y-75053682D01*
X107031127Y-75249999D01*
X107031128Y-75250000D01*
X107994314Y-75250000D01*
X107989920Y-75254394D01*
X107937259Y-75345606D01*
X107910000Y-75447339D01*
X107910000Y-75552661D01*
X107937259Y-75654394D01*
X107989920Y-75745606D01*
X107994314Y-75750000D01*
X107031128Y-75750000D01*
X107083730Y-75946317D01*
X107083734Y-75946326D01*
X107179865Y-76152482D01*
X107310342Y-76338820D01*
X107471179Y-76499657D01*
X107657517Y-76630134D01*
X107863673Y-76726265D01*
X107863682Y-76726269D01*
X108059999Y-76778872D01*
X108060000Y-76778871D01*
X108060000Y-75815686D01*
X108064394Y-75820080D01*
X108155606Y-75872741D01*
X108257339Y-75900000D01*
X108362661Y-75900000D01*
X108464394Y-75872741D01*
X108555606Y-75820080D01*
X108560000Y-75815686D01*
X108560000Y-76778872D01*
X108756317Y-76726269D01*
X108756326Y-76726265D01*
X108962482Y-76630134D01*
X109148820Y-76499657D01*
X109309657Y-76338820D01*
X109440134Y-76152482D01*
X109536265Y-75946326D01*
X109536269Y-75946317D01*
X109590742Y-75743021D01*
X109627107Y-75683360D01*
X109689954Y-75652831D01*
X109759329Y-75661126D01*
X109798198Y-75687433D01*
X110398181Y-76287416D01*
X110431666Y-76348739D01*
X110434500Y-76375097D01*
X110434500Y-77297870D01*
X110434501Y-77297876D01*
X110440908Y-77357483D01*
X110491202Y-77492328D01*
X110491206Y-77492335D01*
X110577452Y-77607544D01*
X110577455Y-77607547D01*
X110692664Y-77693793D01*
X110692671Y-77693797D01*
X110778833Y-77725933D01*
X110834766Y-77767804D01*
X110859184Y-77833268D01*
X110859500Y-77842115D01*
X110859500Y-78359902D01*
X110839815Y-78426941D01*
X110823181Y-78447583D01*
X103562705Y-85708058D01*
X103501382Y-85741543D01*
X103442931Y-85740152D01*
X103346697Y-85714366D01*
X103346693Y-85714365D01*
X103346692Y-85714365D01*
X103346691Y-85714364D01*
X103346686Y-85714364D01*
X103120002Y-85694532D01*
X103119998Y-85694532D01*
X102893313Y-85714364D01*
X102893302Y-85714366D01*
X102673511Y-85773258D01*
X102673502Y-85773261D01*
X102467267Y-85869431D01*
X102467265Y-85869432D01*
X102280858Y-85999954D01*
X102119954Y-86160858D01*
X101989432Y-86347265D01*
X101989431Y-86347267D01*
X101893261Y-86553502D01*
X101893258Y-86553511D01*
X101834366Y-86773302D01*
X101834364Y-86773313D01*
X101814532Y-86999998D01*
X101814532Y-87000001D01*
X101834364Y-87226686D01*
X101834366Y-87226697D01*
X101893258Y-87446488D01*
X101893261Y-87446497D01*
X101989431Y-87652732D01*
X101989432Y-87652734D01*
X102119954Y-87839141D01*
X102280858Y-88000045D01*
X102377344Y-88067605D01*
X102420969Y-88122182D01*
X102428163Y-88191680D01*
X102396640Y-88254035D01*
X102393902Y-88256861D01*
X101591286Y-89059478D01*
X101479481Y-89171282D01*
X101479479Y-89171285D01*
X101429361Y-89258094D01*
X101429359Y-89258096D01*
X101400425Y-89308209D01*
X101400424Y-89308210D01*
X101400423Y-89308215D01*
X101359499Y-89460943D01*
X101359499Y-89460945D01*
X101359499Y-89629046D01*
X101359500Y-89629059D01*
X101359500Y-91657884D01*
X101339815Y-91724923D01*
X101287011Y-91770678D01*
X101278834Y-91774066D01*
X101192669Y-91806203D01*
X101192664Y-91806206D01*
X101077455Y-91892452D01*
X101077452Y-91892455D01*
X100991206Y-92007664D01*
X100991202Y-92007671D01*
X100940908Y-92142517D01*
X100934501Y-92202116D01*
X100934500Y-92202135D01*
X100934500Y-92275500D01*
X100914815Y-92342539D01*
X100862011Y-92388294D01*
X100810500Y-92399500D01*
X100037310Y-92399500D01*
X99970271Y-92379815D01*
X99924516Y-92327011D01*
X99922749Y-92322953D01*
X99908787Y-92289247D01*
X99908786Y-92289244D01*
X99908784Y-92289241D01*
X99908782Y-92289237D01*
X99796558Y-92121281D01*
X99653718Y-91978441D01*
X99485762Y-91866217D01*
X99485752Y-91866212D01*
X99299127Y-91788909D01*
X99299119Y-91788907D01*
X99101007Y-91749500D01*
X99101003Y-91749500D01*
X98898997Y-91749500D01*
X98898992Y-91749500D01*
X98700880Y-91788907D01*
X98700872Y-91788909D01*
X98514235Y-91866217D01*
X98512947Y-91866906D01*
X98512194Y-91867062D01*
X98508616Y-91868545D01*
X98508334Y-91867866D01*
X98444544Y-91881145D01*
X98379301Y-91856141D01*
X98337934Y-91799834D01*
X98330500Y-91757545D01*
X98330500Y-89570096D01*
X98350185Y-89503057D01*
X98366814Y-89482420D01*
X103057294Y-84791939D01*
X103118615Y-84758456D01*
X103177066Y-84759847D01*
X103196604Y-84765082D01*
X103273308Y-84785635D01*
X103435230Y-84799801D01*
X103499998Y-84805468D01*
X103500000Y-84805468D01*
X103500002Y-84805468D01*
X103556807Y-84800498D01*
X103726692Y-84785635D01*
X103946496Y-84726739D01*
X104152734Y-84630568D01*
X104339139Y-84500047D01*
X104500047Y-84339139D01*
X104630568Y-84152734D01*
X104726739Y-83946496D01*
X104785635Y-83726692D01*
X104805468Y-83500000D01*
X104804797Y-83492335D01*
X104794857Y-83378718D01*
X104785635Y-83273308D01*
X104726739Y-83053504D01*
X104630568Y-82847266D01*
X104500047Y-82660861D01*
X104500045Y-82660858D01*
X104342913Y-82503726D01*
X104309428Y-82442403D01*
X104314412Y-82372711D01*
X104356284Y-82316778D01*
X104402078Y-82295368D01*
X104407480Y-82294091D01*
X104407483Y-82294091D01*
X104542331Y-82243796D01*
X104657546Y-82157546D01*
X104743796Y-82042331D01*
X104794091Y-81907483D01*
X104800500Y-81847873D01*
X104800499Y-80152128D01*
X104794091Y-80092517D01*
X104793152Y-80090000D01*
X104743797Y-79957671D01*
X104743793Y-79957664D01*
X104657547Y-79842455D01*
X104657544Y-79842452D01*
X104542335Y-79756206D01*
X104542328Y-79756202D01*
X104407482Y-79705908D01*
X104407483Y-79705908D01*
X104347883Y-79699501D01*
X104347881Y-79699500D01*
X104347873Y-79699500D01*
X104347864Y-79699500D01*
X102652129Y-79699500D01*
X102652123Y-79699501D01*
X102592516Y-79705908D01*
X102457671Y-79756202D01*
X102457664Y-79756206D01*
X102342455Y-79842452D01*
X102342452Y-79842455D01*
X102256206Y-79957664D01*
X102256202Y-79957671D01*
X102205908Y-80092517D01*
X102199501Y-80152116D01*
X102199501Y-80152123D01*
X102199500Y-80152135D01*
X102199500Y-80275500D01*
X102179815Y-80342539D01*
X102127011Y-80388294D01*
X102075500Y-80399500D01*
X99195942Y-80399500D01*
X99043216Y-80440422D01*
X99005055Y-80462455D01*
X99005054Y-80462454D01*
X98906287Y-80519477D01*
X98906282Y-80519481D01*
X98794478Y-80631286D01*
X98212582Y-81213181D01*
X98151259Y-81246666D01*
X98124901Y-81249500D01*
X97427129Y-81249500D01*
X97427123Y-81249501D01*
X97367516Y-81255908D01*
X97232671Y-81306202D01*
X97232664Y-81306206D01*
X97117455Y-81392452D01*
X97117452Y-81392455D01*
X97031206Y-81507664D01*
X97031202Y-81507671D01*
X96980908Y-81642517D01*
X96974501Y-81702116D01*
X96974500Y-81702127D01*
X96974500Y-82316778D01*
X96974501Y-82825500D01*
X96954816Y-82892539D01*
X96902013Y-82938294D01*
X96850501Y-82949500D01*
X96350097Y-82949500D01*
X96283058Y-82929815D01*
X96262416Y-82913181D01*
X96061819Y-82712584D01*
X96028334Y-82651261D01*
X96025500Y-82624903D01*
X96025500Y-82173996D01*
X96025499Y-82173992D01*
X95986092Y-81975877D01*
X95986090Y-81975872D01*
X95986090Y-81975871D01*
X95985841Y-81975049D01*
X95985586Y-81973336D01*
X95984903Y-81969898D01*
X95985071Y-81969864D01*
X95980500Y-81939049D01*
X95980500Y-81885945D01*
X95980500Y-81885943D01*
X95939577Y-81733216D01*
X95921622Y-81702116D01*
X95860524Y-81596290D01*
X95860518Y-81596282D01*
X95748717Y-81484481D01*
X95748709Y-81484475D01*
X95611790Y-81405426D01*
X95611782Y-81405422D01*
X95549328Y-81388687D01*
X95519117Y-81380592D01*
X95491637Y-81368137D01*
X95491130Y-81369086D01*
X95485758Y-81366215D01*
X95299127Y-81288909D01*
X95299119Y-81288907D01*
X95101007Y-81249500D01*
X95101003Y-81249500D01*
X94898997Y-81249500D01*
X94892935Y-81250097D01*
X94892758Y-81248304D01*
X94831602Y-81242815D01*
X94789355Y-81215119D01*
X91405740Y-77831504D01*
X91372255Y-77770181D01*
X91377239Y-77700489D01*
X91419111Y-77644556D01*
X91445968Y-77629262D01*
X91498400Y-77607544D01*
X91555756Y-77583786D01*
X91636562Y-77529792D01*
X91703234Y-77508917D01*
X91770614Y-77527401D01*
X91774340Y-77529795D01*
X91854479Y-77583343D01*
X91854486Y-77583347D01*
X92041016Y-77660609D01*
X92041025Y-77660612D01*
X92090000Y-77670353D01*
X92090000Y-76815865D01*
X92092383Y-76791671D01*
X92094930Y-76778871D01*
X92095500Y-76776003D01*
X92095500Y-76735830D01*
X92109745Y-76750075D01*
X92195255Y-76799444D01*
X92290630Y-76825000D01*
X92389370Y-76825000D01*
X92484745Y-76799444D01*
X92570255Y-76750075D01*
X92590000Y-76730330D01*
X92590000Y-77670352D01*
X92638974Y-77660612D01*
X92638983Y-77660609D01*
X92825513Y-77583347D01*
X92825526Y-77583340D01*
X92993399Y-77471170D01*
X92993403Y-77471167D01*
X93136167Y-77328403D01*
X93136170Y-77328399D01*
X93248340Y-77160526D01*
X93248347Y-77160513D01*
X93325609Y-76973983D01*
X93325612Y-76973974D01*
X93364999Y-76775958D01*
X93365000Y-76775955D01*
X93365000Y-76700000D01*
X92620330Y-76700000D01*
X92640075Y-76680255D01*
X92689444Y-76594745D01*
X92715000Y-76499370D01*
X92715000Y-76400630D01*
X92689444Y-76305255D01*
X92640075Y-76219745D01*
X92620330Y-76200000D01*
X93365000Y-76200000D01*
X93365000Y-76124045D01*
X93364999Y-76124041D01*
X93325612Y-75926025D01*
X93325609Y-75926016D01*
X93248347Y-75739486D01*
X93248340Y-75739473D01*
X93136170Y-75571600D01*
X93136167Y-75571596D01*
X92993403Y-75428832D01*
X92993399Y-75428829D01*
X92825526Y-75316659D01*
X92825513Y-75316652D01*
X92638984Y-75239390D01*
X92638977Y-75239388D01*
X92590000Y-75229645D01*
X92590000Y-76169670D01*
X92570255Y-76149925D01*
X92484745Y-76100556D01*
X92389370Y-76075000D01*
X92290630Y-76075000D01*
X92195255Y-76100556D01*
X92109745Y-76149925D01*
X92095500Y-76164170D01*
X92095500Y-76123997D01*
X92092383Y-76108326D01*
X92090000Y-76084134D01*
X92090000Y-75229646D01*
X92089999Y-75229645D01*
X92041022Y-75239388D01*
X92041015Y-75239390D01*
X91854481Y-75316654D01*
X91854479Y-75316655D01*
X91774337Y-75370204D01*
X91707660Y-75391081D01*
X91640280Y-75372596D01*
X91636558Y-75370204D01*
X91555754Y-75316212D01*
X91369127Y-75238909D01*
X91369119Y-75238907D01*
X91336135Y-75232346D01*
X91274224Y-75199961D01*
X91272645Y-75198410D01*
X91112590Y-75038355D01*
X91112588Y-75038352D01*
X90993717Y-74919481D01*
X90993712Y-74919477D01*
X90868637Y-74847266D01*
X90868635Y-74847265D01*
X90856785Y-74840423D01*
X90704057Y-74799499D01*
X90545943Y-74799499D01*
X90538347Y-74799499D01*
X90538331Y-74799500D01*
X86275942Y-74799500D01*
X86123214Y-74840423D01*
X86111365Y-74847265D01*
X86111363Y-74847266D01*
X85986287Y-74919477D01*
X85986282Y-74919481D01*
X85874480Y-75031284D01*
X85874478Y-75031286D01*
X85805764Y-75100000D01*
X85740644Y-75165120D01*
X85679321Y-75198604D01*
X85637174Y-75198985D01*
X85637065Y-75200097D01*
X85631003Y-75199500D01*
X85428997Y-75199500D01*
X85428992Y-75199500D01*
X85230880Y-75238907D01*
X85230868Y-75238910D01*
X85150198Y-75272325D01*
X85080729Y-75279794D01*
X85035342Y-75260036D01*
X85035114Y-75260454D01*
X85030447Y-75257905D01*
X85028432Y-75257028D01*
X85027331Y-75256204D01*
X85027330Y-75256203D01*
X85027328Y-75256202D01*
X84892482Y-75205908D01*
X84892483Y-75205908D01*
X84832883Y-75199501D01*
X84832881Y-75199500D01*
X84832873Y-75199500D01*
X84832864Y-75199500D01*
X83687129Y-75199500D01*
X83687123Y-75199501D01*
X83627516Y-75205908D01*
X83492671Y-75256202D01*
X83492664Y-75256206D01*
X83377455Y-75342452D01*
X83377452Y-75342455D01*
X83291206Y-75457664D01*
X83291202Y-75457671D01*
X83240908Y-75592517D01*
X83234501Y-75652116D01*
X83234500Y-75652135D01*
X83234500Y-77247870D01*
X83234501Y-77247876D01*
X83240908Y-77307483D01*
X83291202Y-77442328D01*
X83291206Y-77442335D01*
X83377452Y-77557544D01*
X83377455Y-77557547D01*
X83492664Y-77643793D01*
X83492671Y-77643797D01*
X83511051Y-77650652D01*
X83627517Y-77694091D01*
X83687127Y-77700500D01*
X84024902Y-77700499D01*
X84091941Y-77720183D01*
X84112583Y-77736818D01*
X87413584Y-81037819D01*
X87447069Y-81099142D01*
X87442085Y-81168834D01*
X87400213Y-81224767D01*
X87334749Y-81249184D01*
X87325903Y-81249500D01*
X86387129Y-81249500D01*
X86387123Y-81249501D01*
X86327516Y-81255908D01*
X86192671Y-81306202D01*
X86192664Y-81306206D01*
X86077455Y-81392452D01*
X86077452Y-81392455D01*
X85991206Y-81507664D01*
X85991202Y-81507671D01*
X85940908Y-81642517D01*
X85934501Y-81702116D01*
X85934500Y-81702135D01*
X85934500Y-83297870D01*
X85934501Y-83297876D01*
X85940908Y-83357483D01*
X85991202Y-83492328D01*
X85991206Y-83492335D01*
X86077452Y-83607544D01*
X86077455Y-83607547D01*
X86192664Y-83693793D01*
X86192671Y-83693797D01*
X86237618Y-83710561D01*
X86327517Y-83744091D01*
X86387127Y-83750500D01*
X86780903Y-83750499D01*
X86847941Y-83770183D01*
X86893696Y-83822987D01*
X86903640Y-83892146D01*
X86874615Y-83955701D01*
X86868583Y-83962180D01*
X86467584Y-84363181D01*
X86406261Y-84396666D01*
X86379903Y-84399500D01*
X85230939Y-84399500D01*
X85201148Y-84407482D01*
X85201149Y-84407483D01*
X85078214Y-84440423D01*
X85078209Y-84440426D01*
X84941290Y-84519475D01*
X84941282Y-84519481D01*
X84829478Y-84631286D01*
X83442705Y-86018058D01*
X83381382Y-86051543D01*
X83322931Y-86050152D01*
X83226697Y-86024366D01*
X83226693Y-86024365D01*
X83226692Y-86024365D01*
X83226691Y-86024364D01*
X83226686Y-86024364D01*
X83000002Y-86004532D01*
X82999998Y-86004532D01*
X82773313Y-86024364D01*
X82773302Y-86024366D01*
X82553511Y-86083258D01*
X82553502Y-86083261D01*
X82347267Y-86179431D01*
X82347265Y-86179432D01*
X82160858Y-86309954D01*
X81999954Y-86470858D01*
X81869432Y-86657265D01*
X81869431Y-86657267D01*
X81773261Y-86863502D01*
X81773258Y-86863511D01*
X81714366Y-87083302D01*
X81714364Y-87083313D01*
X81694532Y-87309998D01*
X79500500Y-87309998D01*
X79500500Y-79439999D01*
X81721127Y-79439999D01*
X81721128Y-79440000D01*
X82684314Y-79440000D01*
X82679920Y-79444394D01*
X82627259Y-79535606D01*
X82600000Y-79637339D01*
X82600000Y-79742661D01*
X82627259Y-79844394D01*
X82679920Y-79935606D01*
X82684314Y-79940000D01*
X81721128Y-79940000D01*
X81773730Y-80136317D01*
X81773734Y-80136326D01*
X81869865Y-80342482D01*
X82000342Y-80528820D01*
X82161179Y-80689657D01*
X82347517Y-80820134D01*
X82553673Y-80916265D01*
X82553682Y-80916269D01*
X82749999Y-80968872D01*
X82750000Y-80968871D01*
X82750000Y-80005686D01*
X82754394Y-80010080D01*
X82845606Y-80062741D01*
X82947339Y-80090000D01*
X83052661Y-80090000D01*
X83154394Y-80062741D01*
X83245606Y-80010080D01*
X83250000Y-80005686D01*
X83250000Y-80968872D01*
X83446317Y-80916269D01*
X83446326Y-80916265D01*
X83652482Y-80820134D01*
X83838820Y-80689657D01*
X83999657Y-80528820D01*
X84130134Y-80342482D01*
X84226265Y-80136326D01*
X84226269Y-80136317D01*
X84278872Y-79940000D01*
X83315686Y-79940000D01*
X83320080Y-79935606D01*
X83372741Y-79844394D01*
X83400000Y-79742661D01*
X83400000Y-79637339D01*
X83372741Y-79535606D01*
X83320080Y-79444394D01*
X83315686Y-79440000D01*
X84278872Y-79440000D01*
X84278872Y-79439999D01*
X84226269Y-79243682D01*
X84226265Y-79243673D01*
X84130134Y-79037517D01*
X83999657Y-78851179D01*
X83838820Y-78690342D01*
X83652482Y-78559865D01*
X83446328Y-78463734D01*
X83250000Y-78411127D01*
X83250000Y-79374314D01*
X83245606Y-79369920D01*
X83154394Y-79317259D01*
X83052661Y-79290000D01*
X82947339Y-79290000D01*
X82845606Y-79317259D01*
X82754394Y-79369920D01*
X82750000Y-79374314D01*
X82750000Y-78411127D01*
X82553671Y-78463734D01*
X82347517Y-78559865D01*
X82161179Y-78690342D01*
X82000342Y-78851179D01*
X81869865Y-79037517D01*
X81773734Y-79243673D01*
X81773730Y-79243682D01*
X81721127Y-79439999D01*
X79500500Y-79439999D01*
X79500500Y-58912135D01*
X79879500Y-58912135D01*
X79879500Y-64087870D01*
X79879501Y-64087876D01*
X79885908Y-64147483D01*
X79936202Y-64282328D01*
X79936206Y-64282335D01*
X80022452Y-64397544D01*
X80022455Y-64397547D01*
X80137664Y-64483793D01*
X80137673Y-64483798D01*
X80209470Y-64510576D01*
X80265404Y-64552446D01*
X80289822Y-64617910D01*
X80283180Y-64667712D01*
X80229632Y-64820742D01*
X80229630Y-64820750D01*
X80209435Y-64999996D01*
X80209435Y-65000003D01*
X80229630Y-65179249D01*
X80229631Y-65179254D01*
X80289211Y-65349523D01*
X80316650Y-65393191D01*
X80385184Y-65502262D01*
X80512738Y-65629816D01*
X80665478Y-65725789D01*
X80835745Y-65785368D01*
X80835750Y-65785369D01*
X81014996Y-65805565D01*
X81015000Y-65805565D01*
X81015004Y-65805565D01*
X81194249Y-65785369D01*
X81194252Y-65785368D01*
X81194255Y-65785368D01*
X81364522Y-65725789D01*
X81517262Y-65629816D01*
X81517267Y-65629810D01*
X81520097Y-65627555D01*
X81522275Y-65626665D01*
X81523158Y-65626111D01*
X81523255Y-65626265D01*
X81584783Y-65601145D01*
X81597412Y-65600500D01*
X83458325Y-65600500D01*
X83525364Y-65620185D01*
X83567683Y-65666047D01*
X83854558Y-66202754D01*
X83854571Y-66202776D01*
X84179574Y-66725423D01*
X84179580Y-66725433D01*
X84538086Y-67225727D01*
X84652682Y-67365362D01*
X84928544Y-67701501D01*
X85349282Y-68150718D01*
X85798499Y-68571456D01*
X86174234Y-68879814D01*
X86274272Y-68961913D01*
X86274271Y-68961913D01*
X86774566Y-69320419D01*
X86774576Y-69320425D01*
X87297223Y-69645428D01*
X87297245Y-69645441D01*
X87840019Y-69935559D01*
X87840038Y-69935569D01*
X88225711Y-70110315D01*
X88400652Y-70189580D01*
X88400674Y-70189589D01*
X88706726Y-70304778D01*
X88976690Y-70406385D01*
X89195545Y-70472774D01*
X89565660Y-70585048D01*
X89565668Y-70585050D01*
X90165071Y-70724811D01*
X90772331Y-70825070D01*
X91256971Y-70872803D01*
X91384837Y-70885397D01*
X91384839Y-70885397D01*
X91384849Y-70885398D01*
X92000000Y-70905536D01*
X92615151Y-70885398D01*
X92615160Y-70885397D01*
X92615162Y-70885397D01*
X92658946Y-70881084D01*
X93227669Y-70825070D01*
X93834929Y-70724811D01*
X94434332Y-70585050D01*
X95023310Y-70406385D01*
X95451654Y-70245168D01*
X95599325Y-70189589D01*
X95599331Y-70189586D01*
X95599343Y-70189582D01*
X96159962Y-69935569D01*
X96389537Y-69812858D01*
X96702754Y-69645441D01*
X96702776Y-69645428D01*
X97225423Y-69320425D01*
X97225433Y-69320419D01*
X97324963Y-69249097D01*
X97725728Y-68961913D01*
X98201501Y-68571456D01*
X98650718Y-68150718D01*
X99071456Y-67701501D01*
X99461913Y-67225728D01*
X99820417Y-66725436D01*
X100145433Y-66202768D01*
X100145435Y-66202763D01*
X100145441Y-66202754D01*
X100432317Y-65666047D01*
X100481279Y-65616203D01*
X100541675Y-65600500D01*
X102432588Y-65600500D01*
X102499627Y-65620185D01*
X102509903Y-65627555D01*
X102512736Y-65629814D01*
X102512738Y-65629816D01*
X102665478Y-65725789D01*
X102835745Y-65785368D01*
X102835750Y-65785369D01*
X103014996Y-65805565D01*
X103015000Y-65805565D01*
X103015004Y-65805565D01*
X103194249Y-65785369D01*
X103194252Y-65785368D01*
X103194255Y-65785368D01*
X103364522Y-65725789D01*
X103517262Y-65629816D01*
X103644816Y-65502262D01*
X103740789Y-65349522D01*
X103800368Y-65179255D01*
X103802976Y-65156109D01*
X103820565Y-65000003D01*
X103820565Y-64999996D01*
X103800369Y-64820750D01*
X103800366Y-64820737D01*
X103743357Y-64657816D01*
X103739795Y-64588037D01*
X103774523Y-64527410D01*
X103817066Y-64500679D01*
X103862326Y-64483798D01*
X103862326Y-64483797D01*
X103862331Y-64483796D01*
X103977546Y-64397546D01*
X104063796Y-64282331D01*
X104114091Y-64147483D01*
X104120500Y-64087873D01*
X104120499Y-58912128D01*
X104114091Y-58852517D01*
X104110873Y-58843890D01*
X104063797Y-58717671D01*
X104063793Y-58717664D01*
X103977547Y-58602455D01*
X103977544Y-58602452D01*
X103862335Y-58516206D01*
X103862328Y-58516202D01*
X103727482Y-58465908D01*
X103727484Y-58465908D01*
X103696244Y-58462550D01*
X103631693Y-58435812D01*
X103591845Y-58378419D01*
X103585500Y-58339261D01*
X103585500Y-57815097D01*
X103605185Y-57748058D01*
X103621819Y-57727416D01*
X103849238Y-57499997D01*
X107275340Y-57499997D01*
X107275340Y-57500002D01*
X107293944Y-57712654D01*
X107293945Y-57712662D01*
X107349194Y-57918853D01*
X107349197Y-57918859D01*
X107439413Y-58112329D01*
X107478415Y-58168030D01*
X108100000Y-57546445D01*
X108100000Y-57552661D01*
X108127259Y-57654394D01*
X108179920Y-57745606D01*
X108254394Y-57820080D01*
X108345606Y-57872741D01*
X108447339Y-57900000D01*
X108453554Y-57900000D01*
X107831968Y-58521584D01*
X107887663Y-58560582D01*
X107887669Y-58560586D01*
X108081140Y-58650802D01*
X108081146Y-58650805D01*
X108287337Y-58706054D01*
X108287345Y-58706055D01*
X108499998Y-58724660D01*
X108500002Y-58724660D01*
X108712654Y-58706055D01*
X108712662Y-58706054D01*
X108918853Y-58650805D01*
X108918864Y-58650801D01*
X109112325Y-58560589D01*
X109168030Y-58521583D01*
X108546447Y-57900000D01*
X108552661Y-57900000D01*
X108654394Y-57872741D01*
X108745606Y-57820080D01*
X108820080Y-57745606D01*
X108872741Y-57654394D01*
X108900000Y-57552661D01*
X108900000Y-57546446D01*
X109521583Y-58168029D01*
X109560589Y-58112325D01*
X109650801Y-57918864D01*
X109650805Y-57918853D01*
X109706054Y-57712662D01*
X109706055Y-57712654D01*
X109724660Y-57500002D01*
X109724660Y-57499997D01*
X109706055Y-57287345D01*
X109706054Y-57287337D01*
X109650805Y-57081146D01*
X109650802Y-57081140D01*
X109560586Y-56887669D01*
X109560582Y-56887663D01*
X109521584Y-56831968D01*
X108900000Y-57453552D01*
X108900000Y-57447339D01*
X108872741Y-57345606D01*
X108820080Y-57254394D01*
X108745606Y-57179920D01*
X108654394Y-57127259D01*
X108552661Y-57100000D01*
X108546447Y-57100000D01*
X109168030Y-56478415D01*
X109112329Y-56439413D01*
X108918859Y-56349197D01*
X108918853Y-56349194D01*
X108712662Y-56293945D01*
X108712654Y-56293944D01*
X108500002Y-56275340D01*
X108499998Y-56275340D01*
X108287345Y-56293944D01*
X108287337Y-56293945D01*
X108081146Y-56349194D01*
X108081140Y-56349197D01*
X107887671Y-56439412D01*
X107887669Y-56439413D01*
X107831969Y-56478415D01*
X107831968Y-56478415D01*
X108453554Y-57100000D01*
X108447339Y-57100000D01*
X108345606Y-57127259D01*
X108254394Y-57179920D01*
X108179920Y-57254394D01*
X108127259Y-57345606D01*
X108100000Y-57447339D01*
X108100000Y-57453553D01*
X107478415Y-56831968D01*
X107478415Y-56831969D01*
X107439413Y-56887669D01*
X107439412Y-56887671D01*
X107349197Y-57081140D01*
X107349194Y-57081146D01*
X107293945Y-57287337D01*
X107293944Y-57287345D01*
X107275340Y-57499997D01*
X103849238Y-57499997D01*
X107212416Y-54136819D01*
X107273739Y-54103334D01*
X107300097Y-54100500D01*
X111699903Y-54100500D01*
X111766942Y-54120185D01*
X111787584Y-54136819D01*
X118660137Y-61009372D01*
X118693622Y-61070695D01*
X118688638Y-61140387D01*
X118681291Y-61156475D01*
X118675635Y-61166833D01*
X118575628Y-61434962D01*
X118514804Y-61714566D01*
X118494390Y-61999998D01*
X118494390Y-62000001D01*
X118514804Y-62285433D01*
X118575628Y-62565037D01*
X118575630Y-62565043D01*
X118575631Y-62565046D01*
X118644144Y-62748735D01*
X118675635Y-62833166D01*
X118812770Y-63084309D01*
X118812775Y-63084317D01*
X118984254Y-63313387D01*
X118984270Y-63313405D01*
X119186594Y-63515729D01*
X119186612Y-63515745D01*
X119415682Y-63687224D01*
X119415690Y-63687229D01*
X119666833Y-63824364D01*
X119666832Y-63824364D01*
X119666836Y-63824365D01*
X119666839Y-63824367D01*
X119934954Y-63924369D01*
X119934960Y-63924370D01*
X119934962Y-63924371D01*
X120214566Y-63985195D01*
X120214568Y-63985195D01*
X120214572Y-63985196D01*
X120468220Y-64003337D01*
X120499999Y-64005610D01*
X120500000Y-64005610D01*
X120500001Y-64005610D01*
X120528595Y-64003564D01*
X120785428Y-63985196D01*
X120806924Y-63980520D01*
X121065037Y-63924371D01*
X121065037Y-63924370D01*
X121065046Y-63924369D01*
X121333161Y-63824367D01*
X121584315Y-63687226D01*
X121813395Y-63515739D01*
X122015739Y-63313395D01*
X122187226Y-63084315D01*
X122324367Y-62833161D01*
X122424369Y-62565046D01*
X122485196Y-62285428D01*
X122505610Y-62000000D01*
X122485196Y-61714572D01*
X122442647Y-61518979D01*
X122424371Y-61434962D01*
X122424370Y-61434960D01*
X122424369Y-61434954D01*
X122324367Y-61166839D01*
X122274224Y-61075010D01*
X122187229Y-60915690D01*
X122187224Y-60915682D01*
X122015745Y-60686612D01*
X122015729Y-60686594D01*
X121813405Y-60484270D01*
X121813387Y-60484254D01*
X121584317Y-60312775D01*
X121584309Y-60312770D01*
X121333166Y-60175635D01*
X121333167Y-60175635D01*
X121225915Y-60135632D01*
X121065046Y-60075631D01*
X121065043Y-60075630D01*
X121065037Y-60075628D01*
X120785433Y-60014804D01*
X120500001Y-59994390D01*
X120499999Y-59994390D01*
X120214566Y-60014804D01*
X119934962Y-60075628D01*
X119666833Y-60175635D01*
X119656475Y-60181291D01*
X119588201Y-60196140D01*
X119522738Y-60171719D01*
X119509372Y-60160137D01*
X116269233Y-56919998D01*
X118494891Y-56919998D01*
X118494891Y-56920001D01*
X118515300Y-57205362D01*
X118576109Y-57484895D01*
X118676091Y-57752958D01*
X118813191Y-58004038D01*
X118813196Y-58004046D01*
X118919882Y-58146562D01*
X118919883Y-58146563D01*
X119814768Y-57251678D01*
X119826497Y-57279995D01*
X119909670Y-57404472D01*
X120015528Y-57510330D01*
X120140005Y-57593503D01*
X120168320Y-57605231D01*
X119273435Y-58500115D01*
X119273436Y-58500116D01*
X119415953Y-58606803D01*
X119415961Y-58606808D01*
X119667042Y-58743908D01*
X119667041Y-58743908D01*
X119935104Y-58843890D01*
X120214637Y-58904699D01*
X120499999Y-58925109D01*
X120500001Y-58925109D01*
X120785362Y-58904699D01*
X121064895Y-58843890D01*
X121332958Y-58743908D01*
X121584038Y-58606808D01*
X121584039Y-58606807D01*
X121726563Y-58500115D01*
X120831679Y-57605231D01*
X120859995Y-57593503D01*
X120984472Y-57510330D01*
X121090330Y-57404472D01*
X121173503Y-57279995D01*
X121185231Y-57251679D01*
X122080115Y-58146563D01*
X122186807Y-58004039D01*
X122186808Y-58004038D01*
X122323908Y-57752958D01*
X122423890Y-57484895D01*
X122484699Y-57205362D01*
X122505109Y-56920001D01*
X122505109Y-56919998D01*
X122484699Y-56634637D01*
X122423890Y-56355104D01*
X122323908Y-56087041D01*
X122186808Y-55835961D01*
X122186803Y-55835953D01*
X122080116Y-55693436D01*
X122080115Y-55693435D01*
X121185231Y-56588320D01*
X121173503Y-56560005D01*
X121090330Y-56435528D01*
X120984472Y-56329670D01*
X120859995Y-56246497D01*
X120831678Y-56234767D01*
X121726563Y-55339883D01*
X121726562Y-55339882D01*
X121584046Y-55233196D01*
X121584038Y-55233191D01*
X121332957Y-55096091D01*
X121332958Y-55096091D01*
X121064895Y-54996109D01*
X120785362Y-54935300D01*
X120500001Y-54914891D01*
X120499999Y-54914891D01*
X120214637Y-54935300D01*
X119935104Y-54996109D01*
X119667041Y-55096091D01*
X119415961Y-55233191D01*
X119415953Y-55233196D01*
X119273435Y-55339882D01*
X120168321Y-56234767D01*
X120140005Y-56246497D01*
X120015528Y-56329670D01*
X119909670Y-56435528D01*
X119826497Y-56560005D01*
X119814768Y-56588321D01*
X118919882Y-55693435D01*
X118813196Y-55835953D01*
X118813191Y-55835961D01*
X118676091Y-56087041D01*
X118576109Y-56355104D01*
X118515300Y-56634637D01*
X118494891Y-56919998D01*
X116269233Y-56919998D01*
X112487590Y-53138355D01*
X112487588Y-53138352D01*
X112368717Y-53019481D01*
X112368716Y-53019480D01*
X112281904Y-52969360D01*
X112281904Y-52969359D01*
X112281900Y-52969358D01*
X112231785Y-52940423D01*
X112079057Y-52899499D01*
X111920943Y-52899499D01*
X111913347Y-52899499D01*
X111913331Y-52899500D01*
X106920940Y-52899500D01*
X106880019Y-52910464D01*
X106880019Y-52910465D01*
X106842751Y-52920451D01*
X106768214Y-52940423D01*
X106768209Y-52940426D01*
X106631290Y-53019475D01*
X106631282Y-53019481D01*
X106519478Y-53131286D01*
X103087680Y-56563083D01*
X103026357Y-56596568D01*
X102956665Y-56591584D01*
X102912318Y-56563083D01*
X96987590Y-50638355D01*
X96987588Y-50638352D01*
X96868717Y-50519481D01*
X96868716Y-50519480D01*
X96781904Y-50469360D01*
X96781904Y-50469359D01*
X96781900Y-50469358D01*
X96731785Y-50440423D01*
X96579057Y-50399499D01*
X96420943Y-50399499D01*
X96413347Y-50399499D01*
X96413331Y-50399500D01*
X86420940Y-50399500D01*
X86380019Y-50410464D01*
X86380019Y-50410465D01*
X86342751Y-50420451D01*
X86268214Y-50440423D01*
X86268209Y-50440426D01*
X86131290Y-50519475D01*
X86131282Y-50519481D01*
X80534481Y-56116282D01*
X80534479Y-56116285D01*
X80484361Y-56203094D01*
X80484359Y-56203096D01*
X80455425Y-56253209D01*
X80455424Y-56253210D01*
X80444509Y-56293945D01*
X80414499Y-56405943D01*
X80414499Y-56405945D01*
X80414499Y-56574046D01*
X80414500Y-56574059D01*
X80414500Y-58339261D01*
X80394815Y-58406300D01*
X80342011Y-58452055D01*
X80303754Y-58462551D01*
X80272516Y-58465909D01*
X80137671Y-58516202D01*
X80137664Y-58516206D01*
X80022455Y-58602452D01*
X80022452Y-58602455D01*
X79936206Y-58717664D01*
X79936202Y-58717671D01*
X79885908Y-58852517D01*
X79879501Y-58912116D01*
X79879501Y-58912123D01*
X79879500Y-58912135D01*
X79500500Y-58912135D01*
X79500500Y-49624500D01*
X79520185Y-49557461D01*
X79572989Y-49511706D01*
X79624500Y-49500500D01*
X125875500Y-49500500D01*
X125942539Y-49520185D01*
G37*
%TD.AperFunction*%
%TD*%
M02*
